<svg xmlns="http://www.w3.org/2000/svg" viewBox="0 0 175.7 186.3"><defs><clipPath id="clip-path"><circle class="cls-1" cx="87.8" cy="87.8" r="87.8"/></clipPath><clipPath id="clip-path-2"><path class="cls-1" d="M119.6 138.1c-25.9-8.1-18.9-35-18.9-35l-11.9-1.4v-.3l-1 .2-.9-.2v.3l-12 1.4S82 130 56 138.1s-31.9 16.1-33.9 48.2h131.4c-2-32.1-7.9-40.1-33.9-48.2z"/></clipPath><clipPath id="clip-path-3"><path class="cls-1" d="M78.9 88.9a6.4 6.4 0 004.2-1.1c1.8-1.2 4.6-2.5 7.3-1.4 4.3 1.8 4.5 11.9-7 12.7s-10-7.5-8.6-9.4 2.8-.9 4.1-.8z"/></clipPath><style>.cls-1{fill:none}.cls-4{fill:#50321a}.cls-6{fill:#ffcaa6}.cls-8{fill:#eaa16e}.cls-9{fill:#edad80}.cls-10{fill:#010c39}.cls-13{fill:#fff}.cls-14{fill:#f4826c}</style></defs><circle cx="87.8" cy="87.8" r="87.8" fill="#473c72"/><g clip-path="url(#clip-path)"><path class="cls-4" d="M78.4 32.6s34.1-4.4 39 31.7 8.5 45.9 8.5 45.9-61.6 23.6-97 3.2c0 0 17.5-15.4 20-49.7.2-1.7.2-3.5.3-5.2 0-5.2 2-25.7 29.2-25.9z"/><path d="M70.1 51.7c-10.5 22.5-16.9 46.5-31.3 66.1 27.6 9.3 64.3-.2 79.7-5.1a135.5 135.5 0 00-19.8-52.9c-5.7-9.8-22-21.2-28.6-8.1z" fill="#3f230f"/><path class="cls-6" d="M106.8 77c-3.4 5.3-3.8 13.8.5 16.6s11.9-1.4 15.2-6.7 2.6-11.8-1.8-14.5-10.5-.7-13.9 4.6zM64.4 78.3c3.8 5 4.8 13.5.7 16.6s-11.9-.5-15.6-5.6-3.4-11.6.7-14.6 10.5-1.5 14.2 3.6z"/><g clip-path="url(#clip-path-2)"><path class="cls-6" d="M119.6 138.1c-25.9-8.1-18.9-35-18.9-35l-11.9-1.4v-.3l-1 .2-.9-.2v.3l-12 1.4S82 130 56 138.1s-31.9 16.1-33.9 48.2h131.4c-2-32.1-7.9-40.1-33.9-48.2z"/><path class="cls-8" d="M99.9 109.5a41 41 0 01.8-6.4l-11.9-1.4v-.3l-1 .2-.9-.2v.3l-12 1.4a33.9 33.9 0 01.8 10.2c2.7 5.3 12.1 12.8 24.2-3.8z"/><path class="cls-9" d="M100.5 109.9h-.3l.3.3zM99.5 110.1c.1.2.2.5.5.6s0-.2-.3-.6h.3s.2 0 0-.2-.4.1-.3.3zM91.8 116.9zM86 118.9c.1 0 .1 0 .1-.1a.1.1 0 01-.1.1zM85 118.5zM91.8 116.9zM99.3 111.8v-.2c0 .1 0 .1-.1.1zM93.8 115zM95.3 113.6l.3.3v-.2c-.1-.1-.2-.1-.3-.1zM98 111.4zM92.6 115.9zM99.8 109.5l-.2-.1.2.1zM76.5 104.6c-.2.1-.4-.2-.7-.1s.6.2.7.1zM99.2 111.8zM79.7 116.2zM82.2 118.2h-.1a.1.1 0 01.1 0zM78.3 115.4c0-.1 0-.1-.1-.1a.1.1 0 01.1.1zM77.2 114v.1-.1zM99.2 101.6c0 .1.1.2.1.3s.5-.2-.1-.3zM99.1 111.7zM76.4 116.9l-.2-.2c.1.1.1.2.2.2zM85.9 100.5zM75.6 115.9v-.3z"/><path class="cls-9" d="M102.8 102c.2-.5-.4.1-.7.2-.6 0 .1-.3.2-.5a7.8 7.8 0 00-1.4.3v-.2h-1.6c0 .2-.1.4-.1.6s-.3.2-.4-.1a.4.4 0 01.1-.3h.2l-.5.2h-.3c0-.4.5-.1.2-.4l.3.2c-.1-.7.2 0 .1-.6s-.5.1-.9-.1 0 .4-.1.5-.4-.9-.8-.5-.3.7-.5.4v-.4c-.4-.1-.3.6-.7.3s.4-.1.3-.2-.2.2-.4.2v-.4l-1.4.2c0-.1.1-.2 0-.3a2.6 2.6 0 01-1.7-.5l-.3.3v-.2c-.2-.1 0 .2-.1.3s-.2-.2-.1-.3-1.2.5-1.5.1h.1c-.3-.2-.5.6-.7.3l-1.3-.2.8 1c0-.1.1-.2.1-.3l.2-.7-1.4-.3-.4-.2c0 .4-.4.2-.4.2v.3a1.9 1.9 0 00-.6-.7l-1.6 1.4h-.1l.2.2 1.1-1.3c0 .1-.1.3-.2.3v-.3l-.2.4-.2-.4H86a.3.3 0 01.1.2c-.2.2-.7-.1-.7-.3l-.6.4c0-.2.1-.2.2-.3s-.1-.4-.4 0 0 .2 0 .2a1.1 1.1 0 00-.8 0v-.2l-1.5.3c.2 0 .2.5 0 .5v-.3c-.1.2.2.1 0 .4s-.2-.4-.1-.5H82v-.3c0 .2-.4-.3-.5.1l-1.2.3c0 .3-.2.2-.3.5s-.7-.3-1-.2-.1.3-.2.5-.4-.2-.2-.4a2.5 2.5 0 00-1.1.4c0 .1.1.1.1.2s-.3-.1-.3-.2h.1c-.4.2-.6 0-1.4-.1s-1.5-.1-1.7.2h.1l-.6.3c-.2.1-.2 0-.3-.1l-.2-.2h-.1a3.1 3.1 0 01.5 1.3 2.6 2.6 0 00.3 1.1c-.2.1-.2.3-.2.6v.2c0 .1 0 .2.1.2s.2.7 0 1h.2c.2.1-.1.2-.2.3s.2-.2.3-.1-.1 2.2-.2 3.2 1 .2.6.7h-.4a2.5 2.5 0 01.2 1.2v.9c.1.1.1.2.1.4l-.2-.2c-.1.1-.1.4-.1.6s.1.3.2.3h.2c.1.2-.2.1-.2.3l.3.4c.1.1.2.1.1.2s-.1 0-.1 0 .3.5.5.3.4.4.4.7.2.6.6.4.1.7.4.7 0 .2-.2.3.4.3.6.1.9.2.6 1l1.9.7c-.2.4-.6-.3-.8.1l.8.2a1.2 1.2 0 01.8.2c.1.2-.2.2-.3.2l.8.4a1.4 1.4 0 00.9.1h-.2c.1 0 .2.2.3 0h-.1c-.1-.4.6-.5.7-.7s.4.3-.1 1a.2.2 0 00.2-.2c.1.1.1.1 0 .3s.3-.3.6-.2-.1.1-.1.2a.6.6 0 01.7-.2c-.1.1 0 .2-.1.1a.9.9 0 00.7-.1.8.8 0 01.7-.1c-.2.5.2.2.2.6h.3v-.2c.2 0 .4-.3.7-.2l-.2.2h.5l-.3-.2c.2-.2-.1-.5.2-.4s.3 0 .4.2c.1-.2.2-.3.4-.2s.1.4.1.5.6-.2.6-.6v.1c.2 0 .2.1.2.2s-.2-.4.2-.4v.2c.4 0 .7-.4 1.1-.4s-.3.2-.1.5.9-.9 1.4-1.1h-.1c-.2-.5.5.1.6-.3s0 .4 0 .3.6-.5 1-.9l.7-.3c0-.1.1-.2-.1-.3a.8.8 0 00.9-.4c.2-.4.3-.7.8-.6s0 .2 0 .2l.3-.5h-.4c0-.2 0-.4.1-.4s.3.3.5.3l-.2-.2c.5.2-.3-.4.2-.4h.1c0-.1 0-.4.1-.4s0 .2.2.4-.1-.7.2-.6-.1.2-.1.3.4 0 .5-.1l.4-.2h-.2c-.3-.7.3-.5.2-1.1s.1.2.4.5.3 0 .3.1.3-.1.2-.6.2-.1.3.1-.1-.1-.2-.2.8-.2.8-.9-.1-.8 0-1.2.2.3.2.3.3-.2.4-.4h.2c.1-.1-.2-.3 0-.4l.3.4v-.7a.4.4 0 01.2.4c.1-.2.2-.5 0-.7h-.1l.2.2c.1.3-.2.2-.3.1v-.2c-.6-.2-.3.5-.5.7l-.3-.3.2.4c-.2 0-.4-.1-.4-.3s.1.3-.2.2H98v.2c-.1-.1-.3-.2-.1-.2s-.1.6-.5.5c-.2.4.3.2.3.7l-.8-.3.3.2h-.3c.1.3.2.1.3.3s-.4.6-.8.3.3-.1.2.2-.1.3-.4.3.1-.3-.3-.3-.3.2-.4.4-.1.4-.3.7-.5.2-.8.3h-.1c.2.4 0 .5-.1.7s-.2-.3-.2-.4h-.1a.4.4 0 01-.1.3v-.2c-.2.2-.2.6-.6.7s.7.4.6.8l-.3-.4h-.1v.1c-.2 0 .1.3-.1.3l-.2-.2h.1c-.1.1-.3 0-.5-.1s.2.3.1.4-.2-.2-.4-.2-.2.1 0 .4h-.2c-.1.1-.5.3-.2.5-.2.5-.8.4-1.2.6-.2.3-.5.4-.6.7a.4.4 0 01-.2-.3c-.2.2-.1.3-.5.3s-.1-.1.2-.2-.4-.1-.6.2-.3-.2-.3-.1h-.2v-.4c-.6-.2-.7 1.1-1.2.4s.3.2.2.5-.6-.5-.6-.5-.2.6-.6.5a.4.4 0 01-.1.6c-.2 0-.3-.5-.2-.6h.1c.1 0 .2-.1.1-.2h-.1c-.1-.1-.4-.1-.3-.3s-.1.2 0 .3-.4 0-.7-.2.1.3 0 .3-.2.2-.5.3.1-.5-.2-.3 0-.4.1-.5-.5-.2-.6-.3h-.1v.3c0-.1-.1-.1-.1-.2s0 .5-.2.6-.4.1-.3-.2 0-.4.3-.4h-.1c-.3-.3-.3.4-.6.2s0-.3 0-.3-.1.3-.2.4-.3 0-.4 0h.1c-.1.2-.2.1-.4.1s.2-.1.2-.1-.3-.5-.6-.4.2-.3.1-.5-.1-.3-.5-.3 0 .2-.3.4h.5l-.4.2h.4c-.2.1-.2.1-.2.3s-.5 0-.6-.4l.4-.5c-.2-.4-.7-.1-1-.5v.2c-.2.2-.3-.1-.5-.1s.1-.3.2-.4-.2-.3-.6 0v-.3c-.2-.3-.7.1-1-.2s.3-.3.6-.2-.2-.2-.3-.1-.4-.1-.3-.3-.3.2-.4.1h.1c-.1.1-.2-.1-.3.2s-.7-.8-.4-1.4l-.6-.6h.1c0-.2-.1-.2-.3-.1s-.3 0-.3-.2.3.1.4 0-.2-.2.3-.5c.2-.2-.2-.5-.2-.9h.1a1.7 1.7 0 01-.6-1c.3.1.2.2.5.1s-.5.1-.6-.2l.6-.4v.3c.4-.1 0-.3.1-.5h.2c-.1-.4-.5-.4-.5-.8h-.2c-.4-.2.3-.2-.1-.4h.5l-.6-.8c.3.1.5.4.7.6s0-.5-.3-.6.2.2.1.2a.8.8 0 01-.5-.7c.8 0 .1-.9.7-1.2a.8.8 0 01-.1-.8v-.9c-.7.2-.1 0-.7 0v-.2h.7l.5.2-.2-.2h-.4c-.3-.3.2 0 .3 0a.2.2 0 00.2.2c-.1-.1 0 0-.2-.5v.3h.1c.1-.1 0-.2.2-.2a.9.9 0 01.8-.2v.2c.1-.1.1-.3.3-.2v.2c.1-.1.3-.3.4-.2v.2c.6.1.8-.6 1.3-.8s.5.6.7.7c.6 0 1-.5 1.6-.8s1.3.1 1.9.3 0-.3.1-.4.3-.4.4.1h-.1c.2.4.4.2.7.2v-.6c.7.8 1.5-.5 1.9.2h.2l1.3-.9-.2-.3a.4.4 0 01-.1-.3l-1.3 1.2h.1v.3l.4.2h1a.3.3 0 00-.1.2.2.2 0 00.2-.2.4.4 0 00.1-.3c.1-.2.1-.5.2-.5l.2.5h.1l-1.4-1.2v.3l-.2.7 1.3.5a1.1 1.1 0 001.1.1v.2c.2 0 .8.4.8-.2s.5.1.8-.1v.3c.2-.4.3-.5.6-.5s0 .2-.1.1.2-.2.5 0H92c.2.1.2 0 .4-.2s.4.1.4.4.3-.4.4-.3a.3.3 0 01-.1.2c.4.3.7-.3.9.1v.2c-.3-.1-.6-.1-.5-.2s.2.4-.1.8.7-.6.9-.5h.4c0 .3.3.2.4.2s.2-.2.1-.5a.1.1 0 01-.1.1h-.4c.1-.1.2-.2.4 0a.8.8 0 01.2-.5 9.3 9.3 0 00.5 1c.4-.1.9 0 1.2-.6s.2.2.2.3H97c.2-.1.7.1.8-.3s-.2.3.2.3h-.1a.6.6 0 00.5.2h.5c.2-.3.7-.4.6 0a.1.1 0 01.1-.1h.3v1.1l-.3.5c-.2.2.1.3.3.5h-.4l.4.4c.2.4-.9.6-.5 1.2h.3c-.1.2 0 .6-.2.6h-.1l.3.5c-.2.4-.7-.1-.8.4s.5.6.6.6.1-.2.3-.2v.2c.5 0 1 .2 1.4-.2l-.3-.4h.3v.2c.2-.1 0-.2-.1-.3h.2l-.4-.3c.2-.1.4.1.5-.1s-.5.1-.6-.1.4-.1.2-.3h.3c-.1-.1 0-.3-.3-.5s0-.5.5-.4l-.4-.4c.6.3.1-.5.7-.4s-.1-.6-.4-1 .2.1.1.1.3-.2.4-.4-.4-.6-.7-.7.5.1 1-.1-.3-.6-.6-.4l.6-.6c-.6.2 0-.2-.3-.3s.6-.4.5-.8.4-.3.4-.3zm-8.3-.5zm-.6 0h.3c0 .1 0 .2-.1.2zm1 2.2c-.1.1-.2 0-.2-.1h.2zM95.1 103.4zM86.5 100.3v.1-.1zM96 115zM96.8 114.4z"/><path class="cls-9" d="M86.7 120c0 .1-.1.1-.1.2s.2 0 .1-.2zM76.4 117v-.1.1zM86.4 120.2h.2c-.1-.1-.2-.1-.2 0zM99.9 111.1zM99.9 111zM99.9 110.8s.1.1 0 0zM98.9 112zM98.7 112.4c.1-.1.3 0 .4-.2H99c.1.1-.4 0-.3.2zM96.5 112.8l.3-.2c-.1 0-.3-.1-.2-.2s.2.1-.1.4zM95.7 113.4c.1-.1-.2-.1-.2-.1s0 .1.2.1zM89.8 117.9v-.3c-.2.1-.1.1 0 .3zM88.9 119.8l.2.1v-.3l-.2.2zM87.6 118.1v-.1l-.2.2.2-.1zM77.6 114.1l-.3.2c.1.1.5-.1.3-.2zM76.6 109.4c.1-.1.2-.2.1-.3s-.2.3-.1.3zM85.4 103.2l-.1.2.2-.2h-.1z"/></g><path class="cls-6" d="M58.3 53.6c-.1.5-5.9 37 7.5 50.6s36.6 5.5 42.3-8.4c4.9-11.9 5.8-34.5-3.7-48.3s-36.7-21.4-46.1 6.1z"/><path class="cls-8" d="M75 63.5l1.7 18.1.2 2.6c0 .2.1.4.3.4l4 .8c.5.1.7-.7.2-.8l-4-.8.3.4-1.6-18.1-.2-2.6c-.1-.5-.9-.5-.9 0z"/><path class="cls-10" d="M90.7 75a2.1 2.1 0 001.4 2.4 2.5 2.5 0 00.2-4.6c-.8 0-1.6 1-1.6 2.2zM68.4 75.8c0 1.2.6 2.3 1.5 2.3s1.6-.9 1.7-2.2-.6-2.3-1.5-2.3-1.6.9-1.7 2.2z"/><path class="cls-8" d="M117.3 78.8a6.7 6.7 0 00-2.5.8 4.4 4.4 0 00-1.7 1.6 4.5 4.5 0 00-.6 2.8 3.4 3.4 0 001 2.3 2.5 2.5 0 001.9.5 3 3 0 002.4-3.2 2.2 2.2 0 00-2.1-1.4 2.8 2.8 0 00-2.5 1.1c-.2.1-.2.4 0 .6h.6a2 2 0 011.7-.9 1.6 1.6 0 011.4.6 1.4 1.4 0 01-.3 1.5 2 2 0 01-1.3.8 1.3 1.3 0 01-1.2-.2 1.5 1.5 0 01-.5-.6 4.5 4.5 0 01-.3-1.1 4.6 4.6 0 01.5-2.3 3 3 0 011.2-1.3 4.4 4.4 0 011.6-.6h.3c.1 0 .3-.1.2 0h.2a.4.4 0 000-.8zM52.2 81.4h.6l1.3.4a3.7 3.7 0 012.1 3.2 3.1 3.1 0 01-.5 2.1 1.1 1.1 0 01-1.2.5 1.9 1.9 0 01-1.3-.5 1.9 1.9 0 01-.7-1.5.7.7 0 01.4-.6 1.4 1.4 0 01.9-.3 2.2 2.2 0 012 .8.3.3 0 00.5 0 .4.4 0 000-.6c-.9-1.2-3.3-1.6-4.3-.2s.4 3.1 1.7 3.6a2.5 2.5 0 001.9-.1 2.7 2.7 0 001.3-1.8 4.8 4.8 0 00-1.7-4.9 5.1 5.1 0 00-3-1c-.5-.1-.5.8 0 .8z"/><g clip-path="url(#clip-path-3)"><path d="M78.9 88.9a6.4 6.4 0 004.2-1.1c1.8-1.2 4.6-2.5 7.3-1.4 4.3 1.8 4.5 11.9-7 12.7s-10-7.5-8.6-9.4 2.8-.9 4.1-.8z" fill="#9e3a2d"/><path class="cls-13" d="M73.6 87.2s-2.2 4.9 4.6 4.4c13.4-1.2 14.1-3.3 12.9-7.6z"/><path class="cls-14" d="M75.1 98.4s2.2-4.1 8.4-4.8 8.7 2.4 8.7 2.4-5 7.2-17.1 2.4z"/></g><path class="cls-14" d="M61.9 88.4c0 2.2 2.2 3.9 4.9 3.9s4.9-1.7 4.9-3.9-2.2-4-4.9-4-4.9 1.8-4.9 4zM94.9 86c0 2.2 2.3 4 5 4s4.9-1.8 4.9-4-2.2-4-4.9-4-5 1.8-5 4z"/><path class="cls-8" d="M83.2 100.9c0 .3.5.5 1.2.5s1.2-.2 1.2-.5-.6-.6-1.2-.6-1.2.3-1.2.6z"/><path class="cls-4" d="M97 64.4c-.2 1.2-2.4.6-5 .1s-4.9-.8-4.7-1.9 2.6-1.7 5.2-1.1 4.7 1.8 4.5 2.9zM72.1 63.7c.2 1.1-2 1.4-4.7 1.9s-4.8 1.1-5 0 1.8-2.5 4.4-3 5.1 0 5.3 1.1z"/><path d="M125.4 140l-5.2-1.8c-9.4 29-50.6 47.5-63.5-.4l-.7.3-6.4 2.1c.8 16-3.5 31.2-9.1 46.1H133c-3.4-12.9-8.4-27.3-7.6-46.3z" fill="#f9a61a"/><path d="M77.5 183.9c-12.4-1.2-22.8-6.7-31.5-14.6a168.4 168.4 0 01-5.5 17H133c-1.1-4-2.3-8.1-3.4-12.5-15.4 8.8-34.3 12-52.1 10.1z" fill="#d6850d"/><path class="cls-4" d="M57.3 57.5a160.2 160.2 0 0127-2.9l1.3-9 4 8.1 1-8.1 3.3 8.1 16.9 2.3s-7.4-22.9-29.5-22.4c-28.3.6-24 23.9-24 23.9z"/><path class="cls-13" d="M118.8 75.4c.4.6 1.4 0 2.6-.9s2.2-1.6 1.8-2.2-1.7-.3-2.9.6-1.9 1.9-1.5 2.5zM120.7 77.7c.4.6 1.5 0 2.7-.9s2.1-1.6 1.7-2.2-1.7-.3-2.9.6-1.9 1.9-1.5 2.5z"/></g></svg>