<svg xmlns="http://www.w3.org/2000/svg" viewBox="0 0 175.7 193.9"><defs><clipPath id="clip-path"><circle class="cls-1" cx="87.8" cy="87.8" r="87.8"/></clipPath><clipPath id="clip-path-2"><path class="cls-1" d="M128.9 138.7c-26-8.1-18.9-35-18.9-35l-12-1.4v-.3l-.9.2-1-.2v.3l-12 1.4s7.1 26.9-18.9 35-31.8 16.2-33.9 48.2h131.5c-2.1-32-8-40.1-33.9-48.2z"/></clipPath><clipPath id="clip-path-3"><path class="cls-1" d="M88.1 89.5a6.2 6.2 0 004.2-1.1c1.8-1.2 4.6-2.5 7.3-1.4 4.3 1.8 4.5 11.9-7 12.7s-10-7.5-8.6-9.4 2.8-.9 4.1-.8z"/></clipPath><clipPath id="clip-path-4"><path class="cls-1" d="M128.9 138.7l-1.4-.5c-17.9 13.2-43.3 10.9-62.2.4h-.1c-25.9 8.1-31.8 16.2-33.9 48.2h131.5c-2.1-31.9-8-40-33.9-48.1z"/></clipPath><style>.cls-1{fill:none}.cls-4{fill:#fdcb68}.cls-6{fill:#eaa271}.cls-8{fill:#d6854d}.cls-9{fill:#db9464}.cls-10{fill:#010c39}.cls-13{fill:#fff}.cls-14{fill:#f4826c}</style></defs><circle cx="87.8" cy="87.8" r="87.8" fill="#72c9cc"/><g clip-path="url(#clip-path)"><path class="cls-4" d="M76.8 34.1a33.5 33.5 0 0124.7-.4c10.9 3.9 25.9 13.5 25.2 36.3-1.2 35.7 50.7 58.4 19.6 86.5s-110.1 7.9-110.1 7.9S26 140.1 43 114c15-23 4.7-67.6 33.8-79.9z"/><path d="M64.6 169.6c21.7 2.7 51.3 3.7 71.5-6.3-.8-36.8-20.2-73.3-40.4-103.7-25.3 26.9-45.7 73.3-31.1 110z" fill="#edad3b" opacity=".79"/><path class="cls-6" d="M116 77.6c-3.3 5.3-3.8 13.8.5 16.6s11.9-1.4 15.3-6.7 2.5-11.8-1.8-14.5-10.6-.7-14 4.6zM73.7 78.9c3.7 5 4.8 13.5.6 16.6s-11.9-.5-15.6-5.6-3.4-11.6.7-14.6 10.5-1.5 14.3 3.6z"/><g clip-path="url(#clip-path-2)"><path class="cls-6" d="M128.9 138.7c-26-8.1-18.9-35-18.9-35l-12-1.4v-.3l-.9.2-1-.2v.3l-12 1.4s7.1 26.9-18.9 35-31.8 16.2-33.9 48.2h131.5c-2.1-32-8-40.1-33.9-48.2z"/><path class="cls-8" d="M109.1 110.1a34 34 0 01.9-6.4l-12-1.4v-.3l-.9.2-1-.2v.3l-12 1.4a35.8 35.8 0 01.9 10.2c2.6 5.3 12.1 12.8 24.1-3.8z"/><path class="cls-9" d="M109.7 110.5c-.1-.1-.2-.2-.3-.1l.3.3zM108.7 110.7c.1.2.2.5.5.6s0-.2-.3-.6.2 0 .3 0 .2 0 .1-.2-.5.1-.4.3zM101 117.5zM95.3 119.5s-.1 0 0 0zM94.3 119.1zM101 117.5h-.2c.1.2.1.1.2 0zM108.5 112.4v-.2zM103 115.6zM104.6 114.2c-.1 0 .1.2.2.3a.3.3 0 01-.1-.2zM107.2 112zM101.8 116.6zM109 110.1l-.2-.1.2.1zM85.7 105.2c-.2.1-.3-.2-.6 0zM108.4 112.4zM89 116.8zM91.4 118.8zM87.5 116zM86.4 114.6v.1-.1zM108.4 102.2a.4.4 0 01.1.3c0-.2.5-.2-.1-.3zM108.4 112.3a.1.1 0 00.1-.1zM85.6 117.6l-.2-.3zM95.1 101.1zM84.8 116.5v-.3h-.1z"/><path class="cls-9" d="M112 102.6c.2-.5-.4.1-.6.2h-.1c-.6 0 .1-.3.2-.5a7.8 7.8 0 00-1.4.3v-.2h-1.7a1.3 1.3 0 01-.1.6c-.2 0-.3.2-.3-.1-.1-.2 0-.3 0-.3h.3a.6.6 0 00-.5.2c-.2 0-.3.1-.4 0s.5-.1.2-.4l.3.2c-.1-.6.2 0 .1-.6s-.5.1-.9 0 0 .3-.1.5-.3-1-.8-.6-.3.7-.5.4v-.4c-.4-.1-.3.6-.6.3s.3-.1.2-.2-.2.2-.4.2v-.4l-1.4.2c.1-.1.2-.2.1-.3a2.9 2.9 0 01-1.8-.5l-.2.3c-.1 0-.1-.1-.1-.2s0 .2-.1.3a.2.2 0 01-.1-.3 1.2 1.2 0 01-1.5.1h.1c-.3-.2-.4.6-.7.3h.1l-1.4-.2.9 1v-.5l.3-.7-1.4-.3h-.4c-.1.3-.5.1-.4.2s-.1 0-.1.2l-.7-.7-1.4 1.3c0 .1 0 .1.1.2L96 101c-.1.1-.1.3-.2.3v-.3l-.2.4-.2-.4h-.1v.2c-.2.2-.6-.1-.7-.3l-.6.4c0-.2.1-.2.2-.3s-.1-.4-.4 0 0 .2 0 .2h-.7v-.2a8 8 0 00-1.5.3c.2.1.2.5 0 .5v-.3c0 .2.2.1 0 .4s-.1-.4 0-.5h-.3c0-.1.1-.2.1-.3s-.5-.3-.6.1l-1.2.3c0 .3-.1.2-.2.5s-.7-.3-1.1-.2-.1.3-.2.5-.4-.2-.2-.4a2.5 2.5 0 00-1.1.4v.2c-.1.1-.3-.1-.3-.2h.1c-.3.2-.6 0-1.4 0s-1.4-.2-1.6.1l-.6.3c-.2.1-.2 0-.2-.1s0-.1-.3-.2a2.7 2.7 0 01.4 1.3 2.6 2.6 0 00.3 1.1c-.2.1-.2.3-.2.6v.2c0 .1.1.2.1.3a1 1 0 010 .9h.2c.2.1-.1.2-.1.3s.1-.2.2-.1 0 2.2-.2 3.2 1.1.2.6.7h-.4a1.7 1.7 0 01.2 1.2v.6a.4.4 0 00.1.3v.4c0-.1-.1-.1-.1-.2s-.2.4-.1.6 0 .3.1.3h.2c.1.2-.2.1-.2.3s.2.3.3.4.2.1.2.2h-.2c.2 0 .3.5.5.3s.5.4.5.7.2.6.6.4 0 .7.4.7 0 .2-.2.3.3.3.5.1 1 .2.6 1l2 .7c-.3.4-.6-.3-.9.1l.8.2a1.1 1.1 0 01.8.2c.1.2-.2.2-.3.2l.9.4a1.1 1.1 0 00.8.1c0 .1-.1.1-.2.1s.3.2.3 0h-.1c0-.4.6-.5.7-.7s.4.4-.1 1a.2.2 0 00.2-.2.2.2 0 010 .3c.4 0 .3-.3.7-.2l-.2.2a.6.6 0 01.7-.2c0 .1 0 .2-.1.1a.9.9 0 00.7-.1.8.8 0 01.7-.1c-.2.5.2.2.2.6h.3v-.2c.2 0 .5-.3.7-.2l-.2.2h.5l-.3-.2c.2-.2-.1-.5.3-.4s.2 0 .4.2c.1-.2.2-.3.3-.2s.1.4.1.5.6-.2.7-.6 0 .3 0 .4v-.3c.2 0 .2.1.2.2s-.2-.4.2-.4v.2c.4 0 .7-.4 1.1-.4s-.3.2-.1.5.9-.9 1.4-1.1h-.1c-.2-.5.5.1.6-.2v.2a1.9 1.9 0 00.9-.9 1.5 1.5 0 00.7-.3c0-.1.1-.2-.1-.3a1 1 0 001-.4c.1-.3.3-.7.7-.6v.2l.3-.5h-.3c-.1-.2-.1-.4 0-.4s.3.3.5.3-.1-.1-.2-.2-.3-.4.2-.4h.1c0-.1 0-.4.1-.4s0 .2.2.4-.1-.7.3-.6l-.2.3h.5l.4-.2h-.1c-.4-.7.2-.5.1-1.1s.2.2.4.5h.3c-.1-.4.4-.1.2-.5s.2-.2.3 0-.1-.1-.2-.2.9-.2.8-.9-.1-.8 0-1.2.2.3.2.3.3-.2.4-.4.1.1.2.1-.2-.3.1-.4a.8.8 0 00.2.4v-.7a.4.4 0 01.2.4.9.9 0 00.1-.7h-.2c0-.1.2.1.2.2s-.2.2-.3.1c-.6-.3-.2.4-.4.6l-.3-.3v.4c-.1 0-.4-.1-.3-.3s0 .3-.3.2h-.1v.2c0-.1-.2-.2-.1-.2s-.1.6-.4.5h-.1c-.1.4.3.2.3.7l-.7-.3.2.2c-.1.1-.2.1-.2 0s.1.1.2.3-.4.6-.8.3.3-.1.3.2-.2.3-.5.3.1-.3-.3-.3-.3.2-.4.4-.1.4-.2.7-.6.2-.9.3h-.1c.3.4 0 .5-.1.7s-.2-.3-.2-.4h-.1v.3l-.2-.2c-.2.2-.2.6-.5.7s.6.4.5.8-.3-.3-.3-.4v-.3c-.2 0 .1.3 0 .3l-.3-.2s.2 0 .1-.1a.4.4 0 01-.5 0 .2.2 0 01.1.3c-.2.1-.2-.2-.4-.2s-.2.1 0 .4h-.2c0 .1-.5.3-.2.5-.2.5-.8.4-1.1.6h-.1c-.2.3-.5.4-.5.7a.3.3 0 01-.3-.3c-.1.2-.1.3-.4.3s-.2-.1.1-.2-.4-.1-.5.2-.3-.2-.4-.1h-.1v-.4c-.6-.2-.7 1.1-1.2.4s.3.2.2.5-.5-.5-.6-.5-.2.6-.6.5a.4.4 0 01-.1.6c-.2 0-.3-.5-.2-.6h.1c.1 0 .2-.1.1-.2-.2-.1-.5-.1-.4-.3s-.1.2.1.3-.5 0-.8-.1.1.2 0 .2-.2.2-.5.3.1-.5-.2-.3 0-.4.1-.5-.5-.2-.6-.3H93v.3c-.1-.1-.2-.1-.2-.2s0 .5-.2.6-.4.1-.3-.2 0-.4.3-.4-.1.1-.2 0h.1c-.2-.3-.3.4-.6.2s.1-.3 0-.3 0 .3-.2.4-.3 0-.4 0h.1c-.1.2-.2.1-.4.1s.2-.1.2-.1-.3-.5-.6-.4.2-.3.1-.5-.1-.3-.4-.3 0 .2-.4.4h.6l-.5.2h.4c-.2.1-.2.1-.2.3s-.5 0-.6-.4l.4-.5c-.2-.4-.7-.1-1-.5v.2c-.2.2-.3-.1-.5-.1s.2-.3.2-.4-.2-.3-.5 0v-.3c-.2-.3-.7.2-.9-.2s.2-.3.5-.2-.1-.2-.2-.1-.5 0-.4-.3h-.3c0 .1-.2-.1-.3.2s-.7-.8-.4-1.4l-.6-.6h.1c0-.2-.1-.1-.3-.1s-.3 0-.3-.2.3.1.4 0-.1-.2.3-.5c.3-.2-.2-.5-.2-.9h.1a1.6 1.6 0 01-.5-1c.2.1.1.2.4.1s-.5.1-.5-.2a.6.6 0 01.5-.3v.2c.3-.1-.1-.3 0-.5h.2c-.1-.4-.5-.4-.5-.8h-.1c-.5-.2.2-.2-.1-.4h.4c-.1-.2-.5-.5-.6-.8a1.7 1.7 0 01.8.6c-.1-.1-.1-.5-.3-.6v.2a.7.7 0 01-.6-.7c.8 0 .1-.8.7-1.2a1.9 1.9 0 01-.1-.8v-.9c-.7.2 0 0-.7 0s-.1-.1 0-.1l.3-.2h.4l.5.2c-.3-.1-.4-.2-.3-.2h-.4c-.3-.3.3 0 .3 0h.2c-.1-.1 0 0-.2-.5l.2.3c.1-.1 0-.2.2-.2a.9.9 0 01.8-.2v.2c.1-.1.2-.3.3-.2v.2c.1-.1.3-.3.4-.2v.2c.6.1.8-.6 1.3-.8s.5.6.7.7c.7 0 1.1-.5 1.6-.7s1.3 0 1.9.2 0-.3.1-.4.3-.4.4.1h-.1c.2.4.5.2.7.2v-.6c.7.8 1.5-.5 2 .2h.1l1.3-.9-.2-.3v.1l-1.2 1.2a.1.1 0 00.1-.1v.3l.4.2h1.1l-.2.2c.2 0 .2-.1.2-.2a.4.4 0 00.1-.3c.1-.2.1-.5.3-.5v.5h.1l-1.3-1.3v.3l-.2.7 1.3.5c.4.2.7.4 1.1.1s0 .2-.1.2.8.4.8-.2.5.1.8-.1v.3c.3-.3.3-.5.6-.5s0 .2-.1.1.3-.2.5 0v.2c.2 0 .2-.1.4-.3s.5.1.5.4.2-.4.3-.3 0 .2-.1.2.7-.3.9.1v.2l-.6-.2c0 .3.2.4 0 .8s.6-.6.9-.5h-.1c.1 0 .2 0 .2-.1h.2c0 .3.3.2.4.2s.2-.2.1-.5h-.5c.1-.1.3-.2.4 0l.2-.5c.1.4.5.7.5 1s.9 0 1.3-.6.1.2.1.3h-.2c.3-.1.7.1.8-.3s-.2.3.2.3h-.1a.7.7 0 00.6.2h.4c.2-.3.7-.4.7 0 .1.1.3.1.3.2v.6a.6.6 0 01-.1.4l-.3.5c-.1.3.1.3.3.5h-.4l.4.4c.2.4-.9.6-.4 1.2h.2c-.1.2.1.7-.2.6h-.1l.3.5c-.1.4-.7-.1-.7.4a.8.8 0 00.5.6l.3-.2v.2c.5 0 1 .2 1.4-.2l-.3-.3h.3v.2c.2-.1 0-.2-.1-.3h.3l-.5-.3c.2-.1.4.1.5-.1s-.5.1-.6-.1.4-.1.3-.3h.2c-.1-.1 0-.3-.3-.4s0-.5.5-.5a.8.8 0 01-.4-.4c.6.3.1-.5.7-.4s-.1-.6-.3-1h.1c0-.2.2-.2.3-.4s-.4-.6-.6-.7.4.1.9-.1-.2-.6-.6-.4.2-.3.7-.6-.1-.2-.4-.3.6-.4.6-.8.2.1.2.1zm-8.3-.5zm-.5 0h.2c0 .1 0 .2-.1.2s-.1-.1-.1-.2zm.9 2.2c-.1.1-.1 0-.1-.1h.1zM104.3 104z"/><path class="cls-9" d="M95.7 100.9v.1l.1-.1h-.1zM104.2 116.5zM105.2 115.7zM106.1 115zM96 120.6l-.2.2c.1 0 .2 0 .2-.2zM85.6 117.6h.1-.1zM95.6 120.8zM109.1 111.7zM109.1 111.6zM109.1 111.4s.1.1 0 0zM108.1 112.7zM107.9 113c.1-.1.3 0 .4-.2h-.1c.1.1-.4 0-.3.2zM105.7 113.4l.3-.2c-.1 0-.3-.1-.2-.2s.3.1-.1.4zM104.9 114c.1-.1-.1-.1-.2-.1s0 .2.2.1zM99 118.5v-.3c-.2.1-.1.1 0 .3zM98.2 120.4l.1.1v-.3l-.1.2zM96.8 118.7l-.2.1.2-.1zM86.8 114.7l-.2.3c.1 0 .4-.2.2-.3zM85.8 110c.2 0 .3-.2.1-.3s-.2.3-.1.3zM94.6 103.8l-.1.2.2-.2h-.1z"/></g><path class="cls-6" d="M67.6 54.2c-.2.5-6 37 7.4 50.6s36.6 5.5 42.3-8.4c4.9-11.9 5.8-34.5-3.7-48.3s-36.7-21.4-46 6.1z"/><path class="cls-8" d="M84.3 64.1l1.6 18.1.2 2.6c0 .2.1.4.3.4l4 .8c.5.1.7-.7.2-.8l-4-.7.3.3-1.6-18.1-.2-2.6c-.1-.5-.9-.5-.8 0z"/><path class="cls-10" d="M99.9 75.6a2.1 2.1 0 001.5 2.4c.8 0 1.6-1 1.7-2.2s-.7-2.3-1.5-2.4a2 2 0 00-1.7 2.2zM77.6 76.4c0 1.2.6 2.3 1.5 2.3s1.7-.9 1.7-2.2-.6-2.3-1.5-2.3-1.6.9-1.7 2.2z"/><path class="cls-8" d="M126.5 79.4a6.7 6.7 0 00-2.5.8 4.4 4.4 0 00-1.7 1.6 5.2 5.2 0 00-.6 2.8 3.4 3.4 0 001 2.3 2.6 2.6 0 001.9.5 3.2 3.2 0 001.8-1 2.6 2.6 0 00.6-2.2 2.3 2.3 0 00-2-1.4 2.9 2.9 0 00-2.6 1.1c-.1.2-.2.4 0 .6h.6a2 2 0 011.7-.9 1.6 1.6 0 011.4.6 1.4 1.4 0 01-.3 1.5 2 2 0 01-1.2.8 1.5 1.5 0 01-1.8-.8 4.3 4.3 0 01-.2-1.1 3.7 3.7 0 01.4-2.3 3.3 3.3 0 011.3-1.3 3.9 3.9 0 011.5-.6h.7a.4.4 0 000-.8zM61.4 82h.6l1.3.4a3.5 3.5 0 012.1 3.2 2.7 2.7 0 01-.5 2.1 1.1 1.1 0 01-1.2.5 2.4 2.4 0 01-1.3-.5 2.3 2.3 0 01-.7-1.5c.1-.2.2-.5.4-.6a1.6 1.6 0 01.9-.3 2.2 2.2 0 012 .8c.1.2.4.2.6 0a.6.6 0 000-.6c-1-1.2-3.4-1.6-4.4-.2s.4 3.1 1.7 3.6a2.8 2.8 0 002-.1 2.6 2.6 0 001.2-1.8 4.7 4.7 0 00-1.7-4.9 5.1 5.1 0 00-3-1c-.5-.1-.5.8 0 .8z"/><g clip-path="url(#clip-path-3)"><path d="M88.1 89.5a6.2 6.2 0 004.2-1.1c1.8-1.2 4.6-2.5 7.3-1.4 4.3 1.8 4.5 11.9-7 12.7s-10-7.5-8.6-9.4 2.8-.9 4.1-.8z" fill="#9e3a2d"/><path class="cls-13" d="M82.8 87.8s-2.2 4.9 4.7 4.4c13.3-1.2 14-3.3 12.8-7.6z"/><path class="cls-14" d="M84.3 99s2.2-4.1 8.4-4.8 8.8 2.4 8.8 2.4-5.1 7.2-17.2 2.4z"/></g><path class="cls-14" d="M71.1 89c0 2.2 2.2 4 4.9 4s5-1.8 5-4-2.2-4-5-4-4.9 1.8-4.9 4zM104.2 86.6c0 2.2 2.2 4 4.9 4s4.9-1.8 4.9-4-2.2-4-4.9-4-4.9 1.8-4.9 4z"/><path d="M92.4 101.5c0 .3.5.5 1.2.5s1.2-.2 1.2-.5-.5-.6-1.2-.6-1.2.3-1.2.6z" fill="#eaa16e"/><path class="cls-4" d="M106.2 65c-.2 1.2-2.3.6-5 .1s-4.9-.8-4.7-1.9 2.6-1.7 5.3-1.1 4.6 1.8 4.4 2.9zM81.3 64.3c.2 1.1-2 1.4-4.7 1.9s-4.8 1.1-5 0 1.8-2.5 4.5-3 5 0 5.2 1.1z"/><path d="M128.9 138.7l-1.4-.5c-17.9 13.2-43.3 10.9-62.2.4h-.1c-25.9 8.1-31.8 16.2-33.9 48.2h131.5c-2.1-31.9-8-40-33.9-48.1z" fill="#0ac3b5"/><path d="M35.3 161.9c-2.2 6.3-3.3 14.3-4 25h131.5c-.7-10.5-1.8-18.4-3.8-24.5-12.9 5.9-27.1 9.9-41.3 13.1-29.4 5.7-56.8-1.7-82.4-13.6z" fill="#04a091"/><g clip-path="url(#clip-path-4)"><path class="cls-13" d="M56.6 141.8l1.2 2.5a.7.7 0 00.5.4l2.8.4a.8.8 0 01.4 1.3l-2 1.9a.8.8 0 00-.2.7l.5 2.7a.8.8 0 01-1.1.8l-2.5-1.3h-.7l-2.4 1.3a.8.8 0 01-1.1-.8l.5-2.7a1.4 1.4 0 00-.2-.7l-2-1.9a.8.8 0 01.4-1.3l2.7-.4a.7.7 0 00.6-.4l1.2-2.5a.8.8 0 011.4 0zM56.3 142z"/><path class="cls-13" d="M56.3 141.6a.2.2 0 00-.2.2h.3c0-.1 0-.2-.2-.2zM52.6 144.6zM50 146.5zM52.6 144.6zM54.2 143.1c0 .1.1.1.1.2h-.1zM55.3 141.6zM56.6 141.8h.1-.1zM56.1 151.7c0-.2.3 0 .2-.2s-.3.1-.2.2zM56.3 151.5zM51.6 148.2zM51.9 150.4zM51.7 151.4zM59.2 145.3s-.2 0 0 0zM55.7 141.7zM52.8 150.6v0zM52.7 151.3z"/><path class="cls-13" d="M58 145.3c.2.1.1-.1.2-.2s.1.1.1.2h.9v-.3h.1c.1.1-.1 0-.1.1h.4c0 .2-.2 0-.1.2h-.1c0 .2-.1 0-.1.2h.5v-.2c.3-.1.2.4.4.2s.1-.2.3-.1h-.1c.2.1.1-.2.3 0h-.1c.1.1.1-.1.2-.1v.2h.3a.2.2 0 01-.1.3c-.2 0 0 0 0 .1s-.1 0-.1 0a1.5 1.5 0 01-.5.6c-.2.1 0 .3-.2.4-.3.3-.5.6-.8.7s-.3.2-.2.4-.3 0-.5.5.1.2.1.3h-.1l.2.2h-.1c.1.1 0 .4 0 .4v.3h-.1c.2.1-.1 0 0 .2h.3v.4c0 .2.1.5.1.8h.1c.1.1 0-.1.2 0s-.2.1-.2.1h-.1c.1 0-.1.2.1.3v.2H59c0-.1-.1-.1 0-.1l-.5-.2c-.3 0-.5-.6-.9-.6h-.3c-.1-.1.1 0 .1-.1s-.4-.3-.7-.3 0-.2-.1-.2H56c-.3-.1-.7.1-.8.1a6.1 6.1 0 01-1.7.7c-.2.1.1.4-.3.4v-.2c-.1.2-.4.4-.4.3h-.2s-.1 0 0-.1h-.1c.1-.2 0-.3.1-.5s.1-.2-.1-.3.2-.2.1-.3h.2c0-.1 0-.2-.1-.2s-.1-.5.2-.5a.7.7 0 00-.1-.5c0-.2.1-.4 0-.6s.1.1.1.3h.1a1.1 1.1 0 00-.1-.5l-.3-.5h.2l-.2-.2-.2-.2-.3-.2h-.4c.2-.1-.1-.2.2-.3h-.2a.1.1 0 01.1-.1h-.4c-.2-.1-.5-.1-.6-.3s0-.1.1-.3h-.2c-.1-.1-.3-.1-.3-.2-.1 0-.1.1-.2 0s0-.1.1-.2c-.1 0-.2-.1-.1-.2h.2c-.1 0 0-.2-.1-.3h.2c0-.1-.2-.1-.1-.2h.1l.4-.2c.1.1-.2 0-.1.2l.8-.3c0-.2.2.1.3-.1l.6-.2h.4c0-.1.1-.1 0-.2s.4.1.6 0l.5-.2.2-.4H54v-.3c0 .2.2.1.3.1s-.1 0-.1-.1-.2-.1 0-.2c.1 0 0-.1.1-.2s0 .1.1.2-.1-.3 0-.4v.2c.2 0 .1-.1.2-.1v-.2c-.2-.3 0-.3 0-.6s0 .1.1.2h.3c-.1-.1.1-.1 0-.2h.2c0-.1-.1 0-.1 0s.3-.3.2-.6-.1-.3 0-.5.1.1.1.1l.2-.2h.1s-.1-.1 0-.1v.2c.1-.1.1-.2.2-.2h.2v.2c-.1-.2-.3.1-.4.1v-.2c0 .1 0 .2-.1.2s-.1-.1 0-.1h-.3c0-.1-.1-.1 0-.1s-.1.3-.2.3c-.1.3.1.1.1.3H55c-.1.1-.1.3-.3.3s.1-.1.1.1 0 .1-.1.2 0-.2-.2-.1-.1.2-.1.3 0 .2-.1.4l-.3.3c.1.1 0 .2 0 .3h-.2c.1 0 .1 0 .1.1h-.1c-.1.1-.1.3-.2.2s.2.3.1.4v-.4h-.3c.1.1.1.1 0 .1s-.1 0-.2-.1-.1 0-.1.2c-.1 0-.4 0-.3.2h-.7l-.4.2h-.3c-.1 0-.2-.1-.3 0s-.1-.1-.2 0h-.1v-.2a.6.6 0 00-.5.3l-.4.4c.1.2.2-.2.2 0s-.3.3-.3.4.2.2.3.5.1-.1.2 0 0 .3-.1.2-.1-.1 0-.1h-.1c0 .2.2.3.1.3s.1 0 0-.1l.3.4h.1c.1.2.1 0 .3.1s-.2.1 0 .2-.1.1-.2.1.2.3.3.4h.3c0 .1.2.1.1.2s-.1.1-.2 0c.1.2.2-.1.3.1h.2c0 .2.1.1.1.2h.1c.2-.1.1.2.3.3h-.1c.1.1 0 .1.1.2s0-.1.1-.1h.1c-.1.1.1.1.1.2h-.2v.3c.1.1 0 .2 0 .3h-.2l.2.2h-.2c0 .2.2.3.2.5s-.2 0-.2-.2-.1.1 0 .2.1.2 0 .2c.1 0 .1.2.2.1s-.1.6-.4.7 0 .4.1.6h-.1c0 .3.3.1.3.4s-.1-.1-.1 0 .2.3.3.5h.5l.6-.4v.2c.1-.1-.1-.2.1-.3l.2.2h-.1c.1.1.1-.1.2-.1l.4-.4H54c.1-.2.2 0 .2-.1h.1l.4-.4-.3.4.3-.2h-.1c0-.2.1-.3.3-.4s.4-.1.6 0 .4-.1.5-.1 0 0 .2-.2h.1v.2c0 .1-.1 0-.1.1s0 .1.1.2h.1c.3 0 .1.2.4.2h-.1c.1 0 .4.2.6.1h-.1c.3.1.7.1.9.3H58c.1 0 .2-.1.2 0h.1c.5.3.8 0 1.1-.1s.4 0 .6-.2a1.1 1.1 0 00.2-.8c-.1-.2-.2-.3-.2-.5s-.1-.6 0-1h-.2c.1-.1-.1-.2 0-.2.2-.1.1-.2.1-.3h-.2a.6.6 0 000-.6c-.1-.2-.1-.4 0-.4s0 0-.1-.1h.1l.3-.3c.1-.1-.1-.3 0-.4h.1c.2-.2.5-.3.6-.6.1-.1.4-.2.2-.4s.2-.1.3-.3a.6.6 0 01.1-.4s.1.1 0 .1 0-.1.1-.2h.1c.1-.1 0-.1 0-.2s.2-.3.3-.2v-.3h.2c.1-.4-.1-.5-.1-.7h.1c.1.3.1.5 0 .5s.2-.3.3-.1l-.4-.6h-.1v-.2c.1-.1-.2-.2-.3-.2s-.1 0-.1.2h-.1c0-.2-.2-.3-.2-.4s-.5 0-.7.2a.1.1 0 01-.1-.1h.1c-.1.1-.4 0-.4.2s.1-.2-.1-.2c-.4-.3-.7.3-1.1-.1h-.4l-.2-.2c-.1 0-.3-.4-.3-.6s-.1-.1-.2-.2h-.1c-.2-.1.1-.4-.2-.6h-.1c0-.1-.2-.3-.1-.3s-.1 0 0-.1l-.2-.2c0-.2.3-.1.1-.3s-.3-.2-.3-.1h-.1c-.2.1-.4.1-.4.4h.1c-.1.1 0 .1.1.1s.1-.2.2-.1-.1.2 0 .2h-.1l.2.2c0 .1.2.2 0 .3h.2c-.2 0 .1.3-.1.3s.3.3.4.4v.2h.3c0 .3-.2 0-.3.2s.3.2.4.1v.2c.1-.1.1.1.3.1s0 .2.2.2-.2 2.7-.2 2.7zm3.3.3zm.1.2h.1c-.1-.1-.1-.1-.1 0zm.2-1zM58.8 148.9zM54.6 143.7zM54.9 143.2zM52.8 150.6zM50.4 146.1zM56.1 141.8zM55.6 141.8zM55.5 141.9z"/><path class="cls-13" d="M54.7 142.5h.1c-.1 0-.2 0-.1-.1s.1-.1 0 .1zM51.3 144.8zM50.7 145.4zM49.8 145.1h.1c-.1 0-.1.1-.1.2zM51.7 151.2zM54.1 152.3zM59.9 149.6l.1.1-.1-.2v.1zM98.4 141.8l1.2 2.5a.7.7 0 00.6.4l2.7.4a.8.8 0 01.4 1.3l-2 1.9a1.4 1.4 0 00-.2.7l.5 2.7a.8.8 0 01-1.1.8l-2.4-1.3h-.7l-2.5 1.3a.8.8 0 01-1.1-.8l.5-2.7a.8.8 0 00-.2-.7l-2-1.9a.8.8 0 01.4-1.3l2.8-.4a.7.7 0 00.5-.4l1.2-2.5a.8.8 0 011.4 0zM98.1 142z"/><path class="cls-13" d="M98.1 141.6a.2.2 0 00-.2.2h.2c.1 0 .1 0 0 .1h.1c.1-.1 0-.2-.1-.2zM94.4 144.6zM91.8 146.5zM94.4 144.6zM97.5 141.8zM95.5 144.2zM96 143.1l.2.2H96zM97.1 141.6zM95.1 144.4zM98.4 141.8h.1-.1zM98 151.7c-.1-.2.2 0 .1-.2s-.2.1-.1.2zM98.1 151.5zM93.7 149.5zM93.7 150.4zM93.5 151.4h.1-.1zM101 145.3s-.1 0 0 0zM97.5 141.7zM94.6 150.6zM94.5 151.3z"/><path class="cls-13" d="M99.8 145.3c.3.1.2-.1.2-.2s.1.1.2.2h.8v-.3h.5c0 .2-.3 0-.2.2h-.1c.1.2-.1 0 0 .2h.4v-.2c.3-.1.2.4.4.2s.1-.2.3-.1h-.1c.2.1.2-.2.4 0h-.2c.2.1.1-.1.2-.1v.2h.2c.2.1 0 .3-.1.3s.1.1 0 .1 0 0 0 .1-.1 0-.1 0a1.5 1.5 0 01-.5.6c-.2.1 0 .3-.2.4h.1a2.8 2.8 0 01-.9.7c.1.2-.3.2-.2.4s-.3 0-.5.5v.3h-.1l.2.2h-.1c0-.1 0-.1.1-.1a2.3 2.3 0 01-.1.4v.3h-.1c.2.1-.1 0 0 .2h.1a.6.6 0 00.1.4h-.1a3.1 3.1 0 00.2.8c.1.1.1-.1.2 0s-.2.1-.2.1h-.1c.1 0 0 .2.1.3v.2h-.3c0-.1-.1-.1 0-.1l-.5-.2v.2c0-.1-.1-.1 0-.2-.4 0-.6-.6-.9-.6h-.3c-.1-.1.1 0 0-.1s-.4-.3-.7-.3 0-.2-.1-.2h-.5c-.3-.1-.6.1-.8.1a5.1 5.1 0 01-1.7.7c-.2.1.1.4-.2.4v-.2l-.5.3h-.2c.1 0-.1 0 0-.1h-.1c.1-.2 0-.3.1-.5s.1-.2-.1-.3.2-.2.2-.3h.1c0-.1 0-.2-.1-.2s-.1-.5.2-.5v-1.1s.1.1 0 .3h.1a1.1 1.1 0 00-.1-.5c0-.2-.1-.3-.2-.5h.1l-.2-.2-.2-.2-.3-.2H93c.3-.1-.1-.2.2-.3h-.1c-.1 0 0-.1 0-.1h-.4c-.2-.1-.4-.1-.6-.3s0-.1.1-.3H92c0-.1-.2-.1-.2-.2h-.1c-.1 0-.1.1-.1 0a.1.1 0 010-.2c-.1 0-.1-.1-.1-.2h.2c-.1 0 0-.2-.1-.3h.2c.1-.1-.2-.1 0-.2l.4-.2c.1.1-.2 0-.1.2l.8-.3c0-.2.2.1.3-.1l.6-.2h.4v-.2c.2.2.3.1.5 0a1.1 1.1 0 01.6-.2.1.1 0 00-.1.1l.2-.4h-.1a.2.2 0 010-.3c0 .2.1.1.2.1s-.1 0-.1-.1-.2-.1 0-.2h.1a.1.1 0 010-.2c.1 0 0 .1.1.2s-.1-.3 0-.4v.2c.2 0 .2-.1.2-.1v-.2c-.2-.3.1-.3 0-.6s.1.1.2.2h.1v-.2h.9c0-.1-.1 0-.1 0s.3-.3.3-.6-.1-.3-.1-.5.1.1.1.1l.2-.2h.2v.2a.3.3 0 01.1-.2c.1.1 0 .1 0 .1h.2v.2c0-.2-.3.1-.3.1s-.1-.1-.1-.2v.2H97c-.2.1 0 .3-.2.3 0 .3.1.1.2.3h-.3c-.1.1-.1.3-.3.3s.2-.1.2.1-.1.1-.2.2 0-.2-.1-.1-.2.2-.2.3v.4c0 .2-.3.2-.4.3.1.1 0 .2 0 .3h-.2c0 .1 0 .3-.2.2s.3.3.1.4-.1-.2 0-.2h-.1v-.2H95c-.1.1 0 0-.1-.1s-.2 0-.1.2h-.1c-.1 0-.4 0-.3.2h-.7l-.4.2H93c-.1 0-.2-.1-.3 0s-.1-.1-.2 0h-.1v-.2a.9.9 0 00-.5.3l-.3.4c0 .2.1-.2.2 0s-.4.3-.4.4.2.2.3.5.1-.1.2 0 0 .3-.1.2h-.1c0 .2.2.3.1.3s.1 0 .1-.1.2.2.3.4c.1.2.1 0 .3.1s-.2.1 0 .2a.1.1 0 01-.1.1c.2.1.1.3.2.4h.3c0 .1.2.1.1.2s-.1.1-.2 0c.1.2.2-.1.4.1h.1c0 .2.1.1.2.2.2-.1.1.2.3.3h-.1c.2.1 0 .1.1.2s0-.1.1-.1h.1c-.1.1.2.1.1.2h-.2c-.1 0 0 0 0 .1v.3c.1.1 0 .2 0 .3h-.1s-.1.1.1.2h-.1c-.1.2.2.3.1.5s-.2 0-.2-.2v.2s.1.2 0 .2h.1s0 .2.1.1-.1.6-.3.7v.6c-.1.3.2.1.2.4s-.1-.1-.1 0 .2.3.3.5h.6l.5-.4v.2c0-.1-.1-.2 0-.3l.2.2h-.1c.1.1.2-.1.3-.1.2-.1.1-.3.3-.4 0-.2.1 0 .2-.1h.1l.3-.4c0 .2-.2.3-.2.4l.2-.2h-.1l.3-.4c.1.3.4-.1.6 0s.4-.1.5-.1l.2-.2h.1v.2c.1.1-.1 0-.1.1s0 .1.1.2h.1c.3 0 .1.2.4.2h-.1c.1 0 .4.2.6.1.2.1.7.1.8.3s.1-.1.1 0h.2c.4.3.8 0 1-.1s.5 0 .6-.2a.8.8 0 00.2-.8c0-.2-.1-.3-.2-.5s0-.6 0-1h-.1c0-.1-.2-.2 0-.2.1-.1 0-.2 0-.3h-.2a.6.6 0 000-.6c0-.2-.1-.4 0-.4.1-.1.1 0 .3-.3.1-.1-.1-.3 0-.4h.1c.2-.2.5-.3.6-.6.1-.1.4-.2.2-.4s.2-.1.3-.3a.6.6 0 01.1-.4s.1.1 0 .1 0-.1.2-.2c.1-.1 0-.1 0-.2s.3-.3.4-.2a.4.4 0 01-.1-.3h.1c.2-.4-.1-.5 0-.7a1.8 1.8 0 01.1.5c.1 0 .1-.3.2-.1s-.3-.4-.4-.6v-.2c0-.1-.2-.2-.4-.2s-.1 0 0 .2h-.1l-.3-.4c-.2.1-.5 0-.7.2s0-.1-.1-.1h.1c-.1.1-.3 0-.4.2s.1-.2-.1-.2c-.3-.3-.7.3-1.1-.1h-.3l-.3-.2c-.1 0-.2-.4-.3-.6s-.1-.1-.2-.2h-.1c-.2-.1.1-.4-.2-.6-.1-.1-.2-.3-.1-.3h-.1l-.2-.2c0-.2.3-.1.2-.3s-.3-.2-.4-.1.1.1 0 .1h-.1c-.1.1-.4.1-.4.4h.1c-.1.1 0 .1.1.1s.1-.2.2-.1-.1.2 0 .2h-.1l.2.2c0 .1.2.2 0 .3h.3c-.3 0 .1.3-.2.3s.3.3.5.4v.2h.4c-.1.3-.2 0-.4.2s.3.2.4.1v.2c.2-.1.1.1.3.1s0 .2.2.2-.1 2-.1 2zm3.4.3zm0 .2zm.3-1zM103.3 144.9zM100.6 148.9zM96.4 143.7zM94.6 150.6zM92.2 146.1zM97.9 141.8zM97.4 141.8zM97.3 141.9z"/><path class="cls-13" d="M96.5 142.5c-.2 0 .1-.2 0 0zM96.2 143zM93.2 144.8v-.2c-.1.1 0 .1 0 .2zM92.5 145.4zM91.7 145.1a.3.3 0 00-.1.2c0-.1 0-.1.1-.2zM93.5 151.2zM95.9 152.3zM101.7 149.6l.1.1-.1-.2v.1zM140.2 141.8l1.2 2.5a.8.8 0 00.6.4l2.7.4a.8.8 0 01.4 1.3l-1.9 1.9a.9.9 0 00-.3.7l.5 2.7a.8.8 0 01-1.1.8l-2.4-1.3h-.7l-2.4 1.3a.8.8 0 01-1.1-.8l.4-2.7a.6.6 0 00-.2-.7l-2-1.9a.8.8 0 01.5-1.3l2.7-.4a.7.7 0 00.5-.4l1.3-2.5a.7.7 0 011.3 0z"/><path class="cls-13" d="M140 142s.1-.1 0-.1zM140 141.6l-.3.2h.2c.1 0 .1 0 0 .1h.1c.1-.1 0-.2-.1-.2zM136.2 144.6zM133.7 146.5zM136.2 144.6zM137.9 143.1c-.1.1 0 .1.1.2a.1.1 0 00-.1-.1zM138.9 141.6zM140.2 141.8h.1-.1zM139.8 151.7c-.1-.2.2 0 .1-.2s-.2.1-.1.2zM139.4 141.8zM139.9 151.5zM135.5 149.5zM135.5 150.4zM135.4 151.4zM142.9 145.3c-.1 0-.1 0-.1-.1s-.1.1.1.1zM139.3 141.7zM136.4 150.6zM136.3 151.3z"/><path class="cls-13" d="M141.6 145.3c.3.1.2-.1.3-.2s0 .1.1.2h.8v-.3h.5c0 .2-.3 0-.1.2h-.2c.1.2-.1 0 0 .2h.5v-.2c.3-.1.2.4.5.2s.1-.2.2-.1h-.1c.2.1.2-.2.4 0h-.1c.1.1.1-.1.2-.1v.2h.2c.2.1.1.3-.1.3-.1 0 .1 0 0 .1s-.1 0-.1 0a.7.7 0 01-.5.6c-.1.1.1.3-.1.4-.3.3-.5.6-.9.7s-.3.2-.1.4-.3 0-.6.5l.2.3h-.2l.2.2h-.1a.1.1 0 01.1-.1c.1.1 0 .4-.1.4l.2.3h-.2c.2.1-.1 0 .1.2h.1a.3.3 0 000 .4h-.1a3.1 3.1 0 00.2.8h.1c0 .1 0-.1.1 0s-.1.1-.2.1c.1 0-.1.2 0 .3 0 .1.1.1 0 .1l.2.2h-.4l-.5-.2c0 .1.1.1 0 .2s-.1-.1 0-.2c-.4 0-.6-.6-.9-.6h-.3c-.1-.1.1 0 0-.1s-.4-.3-.7-.3 0-.2-.1-.2h-.4c-.3-.1-.7.1-.9.1a5.1 5.1 0 01-1.7.7c-.2.1.1.4-.2.4v-.2c-.2.2-.4.4-.5.3h-.2c-.1-.1 0-.1 0-.1s-.1 0 0-.1h-.1c.1-.2 0-.3.1-.5s.1-.2 0-.3.2-.2.1-.3h.1c.1-.1 0-.2-.1-.2s-.1-.5.2-.5v-1.1c.1 0 .1.1.1.3a1.1 1.1 0 00-.1-.5c0-.2-.1-.3-.2-.5h.1a.2.2 0 00-.2-.2v-.2a.5.5 0 00-.4-.2h-.3c.2-.1-.2-.2.1-.3h-.1a.1.1 0 01.1-.1h-.6c-.2-.1-.4-.1-.6-.3s0-.1.1-.3h-.1c-.1-.1-.3-.1-.3-.2-.2 0-.2.1-.2 0a.1.1 0 010-.2c-.1 0-.1-.1-.1-.2h.2c-.1 0 0-.2 0-.3h.1c.1-.1-.2-.1 0-.2l.4-.2c.1.1-.1 0 0 .2a1.9 1.9 0 01.8-.3h-.1c0-.2.2.1.4-.1s-.1.2-.1.1l.7-.2h.4v-.2a.3.3 0 00.5 0l.6-.2s-.1.1 0 .1.1-.3.2-.4h-.2v-.3c0 .2.1.1.2.1h-.1c.2 0-.1-.1.1-.2v-.2c.1 0 0 .1.1.2s-.1-.3.1-.4-.1.1-.1.2.2-.1.2-.1l.2-.2h-.1c-.2-.3.1-.3 0-.6s.1.1.2.2h.1c0-.1.2-.1.1-.2h.1c0-.1-.1 0-.1 0s.3-.3.3-.6-.1-.3 0-.5 0 .1 0 .1l.2-.2h.2v.2a.2.2 0 01.2-.2h.1v.2h-.1c0-.2-.2.1-.3.1h-.3c0-.1-.1-.1 0-.1s-.1.3-.3.3c0 .3.1.1.2.3h-.2c-.2.1-.1.3-.3.3s.1-.1.1.1 0 .1-.2.2 0-.2-.1-.1-.1.2-.2.3 0 .2 0 .4-.2.2-.3.3h-.1c.2.1.1.2 0 .3h-.2c0 .1 0 .3-.2.2s.3.3.1.4v-.2h-.1v-.2h-.3c-.2.1-.1 0-.2-.1s-.1 0-.1.2h-.1c-.1 0-.3 0-.2.2h-.8l-.4.2h-.2c-.2 0-.2-.1-.4 0s-.1-.1-.2 0h-.1v-.2a.9.9 0 00-.5.3c-.1.2-.1.3-.3.4s.1-.2.2 0-.3.3-.3.4.2.2.2.5.1-.1.3 0-.1.3-.2.2h-.1c.1.2.2.3.1.3s.1 0 .1-.1l.3.4c.2.2.2 0 .3.1s-.1.1 0 .2 0 .1-.1.1a.4.4 0 01.2.4h.3c0 .1.2.1.1.2s0 .1-.2 0h.1c0 .2.1-.1.3.1s-.1.1 0 .1h.1c.1.2.1.1.2.2h.1c.1-.1 0 .2.2.3h-.1c.2.1 0 .1.1.2h.2c0 .1.2.1.1.2h-.2c-.1 0 0 0 0 .1s.1.2 0 .3h.1c.1.1-.1.2 0 .3h-.2c.1 0 0 .1.1.2h-.1c-.1.2.2.3.1.5s-.1 0-.2-.2v.2s.1.2 0 .2h.1s0 .2.1.1-.1.6-.3.7v.6c0 .3.2.1.3.4s-.2-.1-.2 0 .2.3.3.5h.6l.5-.4v.2c0-.1-.1-.2 0-.3l.3.2h-.2c.2.1.2-.1.3-.1.2-.1.1-.3.3-.4 0-.2.1 0 .2-.1h.1l.3-.4c0 .2-.2.3-.2.4l.2-.2a.5.5 0 01.2-.4c.1.3.5-.1.7 0s.3-.1.5-.1 0 0 .1-.2h.1l.2.2c0 .1-.1 0-.1.1v.2h.2c.2 0 0 .2.3.2h-.1c.2 0 .4.2.6.1s0 .1 0 .1.7.1.8.3c.1 0 .1-.1.2 0h.1c.4.3.8 0 1-.1s.5 0 .6-.2a.8.8 0 00.2-.8c0-.2-.1-.3-.2-.5s0-.6 0-1h-.1c0-.1-.2-.2 0-.2a.4.4 0 00.1-.3h-.3c.2-.2.1-.4 0-.6s-.1-.4.1-.4-.1 0-.1-.1h.1c0-.1 0 0 .2-.3.1-.1-.1-.3 0-.4h.2c.1-.2.4-.3.5-.6s.1.1 0 .1.4-.2.3-.4.2-.1.2-.3h.1c-.1-.2-.1-.2 0-.4s.1.1 0 .1 0-.1.2-.2v-.2c0-.1.2-.3.3-.2a.2.2 0 010-.3c.2-.4-.1-.5 0-.7a1.8 1.8 0 01.1.5c.1 0 .1-.3.3-.1s-.4-.4-.4-.6h-.1v-.2l-.3-.2c-.1.1-.2 0-.1.2h-.1l-.3-.4c-.2.1-.5 0-.7.2h.1c-.2.1-.4 0-.5.2s.2-.2-.1-.2h.1c-.4-.3-.8.3-1.2-.1h-.2l-.3-.2c-.1 0-.2-.4-.2-.6s-.2-.1-.3-.2h-.1c-.2-.1.1-.4-.2-.6-.1-.1-.2-.3-.1-.3l-.2-.2c-.1-.2.2-.1.1-.3s-.3-.2-.3-.1h-.1c-.2.1-.4.1-.4.4h.1c.1 0 .2-.2.3-.1s-.2.2 0 .2h-.2l.3.2c-.1.1.1.2-.1.3h.3c-.3 0 .1.3-.1.3s.2.3.4.4h-.1a.1.1 0 010 .2h.4c-.1.3-.2 0-.3.2s.3.2.3.1.1.1 0 .2.2.1.3.1 0 .2.3.2-.2 1.8-.2 1.8zm3.4.3zm.1.2zm.2-1zM142.4 148.9zM138.2 143.7zM133.9 146zM136.4 150.6zM134 146.1zM139.6 141.8zM139.2 141.8zM139.2 141.9z"/><path class="cls-13" d="M138.3 142.5c-.2 0 .1-.2 0 0zM138 143zM135 144.8v-.2c-.1.1 0 .1 0 .2zM134.3 145.4zM133.5 145.1a.3.3 0 00-.1.2c0-.1.1-.1.1-.2zM135.3 151.2zM137.7 152.3zM143.6 149.6v.1-.2.1zM56.6 182.6l1.2 2.5a.7.7 0 00.5.4l2.8.4a.8.8 0 01.4 1.3l-2 1.9a.8.8 0 00-.2.7l.5 2.7a.8.8 0 01-1.1.8l-2.5-1.3h-.7l-2.4 1.3a.8.8 0 01-1.1-.8l.5-2.7a1.4 1.4 0 00-.2-.7l-2-1.9a.8.8 0 01.4-1.3l2.7-.4a.7.7 0 00.6-.4l1.2-2.5a.8.8 0 011.4 0z"/><path class="cls-13" d="M56.3 182.8a.1.1 0 00.1-.1h-.1zM56.3 182.4l-.2.2h.3c0-.1 0-.2-.2-.2zM50 187.3zM52.6 185.5zM54.2 183.9v.2h-.1zM55.3 182.4zM56.6 182.6h.1-.1zM56.1 192.5c0-.1.3 0 .2-.2s-.3.1-.2.2zM56.3 192.3zM51.6 189zM51.7 192.2zM59.2 186.1s-.2 0 0 0zM52.8 191.4v0zM52.7 192.1z"/><path class="cls-13" d="M58 186.1c.2.1.1-.1.2-.2s.1.1.1.2h.9v-.2c.1 0 .1-.1.1 0 .1.1-.1 0-.1.1h.4c0 .2-.2.1-.1.2h-.1c0 .3-.1 0-.1.2h.5c.1-.1 0-.1.1-.2s.2.4.4.2.1-.2.3-.1h-.1c.2.1.1-.2.3 0h-.1c.1.2.1-.1.2 0h.3a.2.2 0 01-.1.3c-.2 0 0 0 0 .1H61a1.5 1.5 0 01-.5.6c-.2.1 0 .4-.2.4-.3.3-.5.6-.8.7s-.3.2-.2.4-.3 0-.5.5.1.2.1.3h-.1a.2.2 0 00.2.2h-.1c.1.1 0 .4 0 .4v.3h-.1c.2.2-.1.1 0 .2h.2v.4c0 .3.1.5.1.8.1 0-.1.2.1.3v.2H59c0-.1-.1-.1 0-.1l-.5-.2v.2c-.1-.1-.1-.1-.1-.2-.3 0-.5-.6-.9-.6h-.3c-.1-.1.1 0 .1-.1s-.4-.3-.7-.3v-.2H56c-.3-.1-.7.1-.8.1a6.1 6.1 0 01-1.7.7c-.2.1.1.4-.3.4v-.2c-.1.2-.4.4-.4.3h-.2c.1-.1 0-.1-.1 0a.1.1 0 01.1-.1s-.1 0 0-.1h-.1c.1-.2 0-.3.1-.5s.1-.2-.1-.3.2-.2.1-.3h.2c0-.1 0-.2-.1-.2s-.1-.5.2-.5a.7.7 0 00-.1-.5c0-.2.1-.3 0-.6s.1.1.1.3h.1a1.1 1.1 0 00-.1-.5l-.3-.5h.2l-.2-.2-.2-.2-.3-.2h-.4c.2-.1-.1-.2.2-.3h-.1c-.2-.1-.2.1-.3-.1h-.2s0-.1.1 0-.5-.2-.6-.4 0-.1.1-.3h-.2l-.3-.2h-.2c.1 0 0-.1.1-.2-.1 0-.2-.1-.1-.2h.2c-.1 0 0-.2-.1-.3h.2c0-.1-.2-.1-.1-.2a.1.1 0 01.1.1l.4-.2c.1.1-.2 0-.1.2l.8-.3c0-.2.2.1.3-.1.2.1.4-.1.6-.2h.4c0-.1.1-.1 0-.1a.7.7 0 00.6-.1l.5-.2a.5.5 0 00.2-.4H54v-.2h.2c.2-.1-.2-.2 0-.3.1-.1 0-.2.1-.3s0 .1.1.2-.1-.3 0-.4v.2h.2v-.2c-.2-.3 0-.3 0-.6s0 .1.1.2h.3c-.1-.1.1-.1 0-.2h.1c-.1-.2.3-.3.2-.6s-.1-.3 0-.5h.1l.2-.2h.1s-.1-.1 0-.1v.2l.2-.2h.2v.2c-.1-.2-.3.1-.4.1v-.2c0 .1 0 .2-.1.2s-.1-.1 0-.1h-.3c0-.1-.1-.1 0-.1s-.1.3-.2.3c-.1.3.1.1.1.3H55c-.1.1-.1.3-.3.3s.1-.1.1.1 0 .1-.1.2 0-.2-.2-.1-.1.2-.1.3 0 .2-.1.4l-.3.3c.1.1 0 .2 0 .3h-.2c-.1.1-.1.3-.2.2s.2.3.1.4v-.4h-.3c.1.1.1.1 0 .1s-.1 0-.1-.1-.2 0-.2.2c-.1 0-.4 0-.3.2h-.7l-.4.2h-.9v-.2a.6.6 0 00-.5.3l-.4.4c.1.2.2-.1.2 0l-.3.4c-.1.3.2.2.3.5h.2c.1.1 0 .3-.1.2s-.1 0 0-.1h-.1c0 .2.2.3.1.3s.1 0 0-.1l.3.4a.1.1 0 01.1-.1c.1.2.1 0 .3.1s-.2.1 0 .2h-.2c.2.1.2.3.3.4h.3c0 .1.2.1.1.2s-.1.1-.2 0c.1.2.2 0 .3.1h.2c0 .2.1.1.1.2h.1c.2 0 .1.2.3.3h-.1c.1.1 0 .2.1.2h.2c-.1.1.1.1.1.2h-.2v.3c.1 0 0 .1 0 .2h-.2l.2.2h-.2c0 .2.2.3.2.5s-.2 0-.2-.2-.1.2 0 .2.1.2 0 .2c.1 0 .1.2.2.1s-.1.6-.4.7 0 .4.1.6-.1 0-.1-.1.3.1.3.4-.1-.1-.1 0 .2.3.3.5h.5l.6-.4v.2c.1-.1-.1-.1.1-.2h.1c.1.1.1-.1.2-.1.2-.1.2-.3.4-.4H54c.1-.2.2 0 .2-.1h.1c.1-.1.2-.3.4-.4l-.3.4.3-.2h-.1c0-.2.1-.3.3-.4s.4-.1.6 0 .4-.1.5-.1 0 0 .2-.2h.1v.2h-.1c.2.1 0 .1.1.2s.1 0 .2 0h-.1c.3 0 .1.2.4.2h-.1c.1 0 .4.2.6.1h-.1c.3.1.7.1.9.3h.2c.5.3.8 0 1.1-.1s.4 0 .6-.2a1 1 0 00.2-.7c-.1-.3-.2-.4-.2-.6s-.1-.6 0-1h-.2c.1-.1-.1-.2 0-.2.2-.1.1-.2.1-.3h-.2a.6.6 0 000-.6q-.1-.3 0-.3v-.2h.1l.3-.3c.1-.1-.1-.3 0-.4h.1c.2-.2.5-.3.6-.6.1-.1.4-.2.2-.4s.2-.1.3-.3c0-.2 0-.2.1-.3.1 0 0-.1.1-.2h.1c.1-.1 0-.1 0-.2l.3-.2v-.3h.1c.1-.3-.1-.5-.1-.7s.1 0 .1-.1.1.5 0 .5.2-.3.3-.1l-.4-.6h-.1v-.2c.1-.1-.2-.2-.3-.2s-.1 0-.1.2h.1c0 .1-.1.1-.2.1s-.2-.3-.2-.4-.5 0-.7.2c-.1.1-.4 0-.4.2s.1-.2-.1-.2c-.4-.3-.7.3-1.1-.1h-.4c0-.1-.1-.1-.2-.1a1.5 1.5 0 01-.3-.7c0-.2-.1-.1-.2-.2h-.1c-.2-.1.1-.4-.2-.6h-.1c0-.1-.2-.3-.1-.3s-.1 0 0-.1l-.2-.2c0-.2.3 0 .1-.3h-.4c-.2.1-.4.1-.4.4h.1c-.1.1 0 .1.1.1a.1.1 0 00-.1.1h.3c0 .1-.1.2 0 .2h-.1c.1.1.1.2.2.2s.2.2 0 .3h.2c-.2 0 .1.3-.1.3l.4.4v.2h.3c0 .3-.2 0-.3.2s.3.2.4.1v.2c.1-.1.1.1.3.1s0 .2.2.2-.2 3.2-.2 3.2zm3.3.3zm.1.2zm.2-1zM58.8 189.7zM54.6 184.5zM54.9 184zM52.8 191.4zM50.4 186.9zM56.1 182.6zM55.6 182.6z"/><path class="cls-13" d="M55.5 182.8a.1.1 0 01.1-.1.1.1 0 00-.1.1zM54.7 183.3h.1c-.1 0-.2 0-.1-.1s.1-.1 0 .1zM51.3 185.6zM50.7 186.2zM49.8 185.9h.1c-.1 0-.1.1-.1.2zM51.7 192.1zM54.1 193.1zM59.9 190.4l.1.1-.1-.1zM98.4 182.6l1.2 2.5a.7.7 0 00.6.4l2.7.4a.8.8 0 01.4 1.3l-2 1.9a1.4 1.4 0 00-.2.7l.5 2.7a.8.8 0 01-1.1.8l-2.4-1.3h-.7l-2.5 1.3a.8.8 0 01-1.1-.8l.5-2.7a.8.8 0 00-.2-.7l-2-1.9a.8.8 0 01.4-1.3l2.8-.4a.7.7 0 00.5-.4l1.2-2.5a.8.8 0 011.4 0z"/><path class="cls-13" d="M98.1 182.8c.1 0 .2-.1.1-.1h-.1zM98.1 182.4l-.2.2h.2c.1 0 .1.1 0 .1h.1c.1-.1 0-.2-.1-.2zM91.8 187.3zM94.4 185.5zM97.5 182.6zM95.5 185zM96 183.9l.2.2H96zM97.1 182.4zM95.1 185.2zM98.4 182.6h.1-.1zM98 192.5c-.1-.1.2 0 .1-.2s-.2.1-.1.2zM98.1 192.3zM93.7 190.3zM93.5 192.2h.1-.1zM101 186.1s-.1 0 0 0zM94.6 191.4zM94.5 192.1z"/><path class="cls-13" d="M99.8 186.1c.3.1.2-.1.2-.2s.1.1.2.2h.8v-.2c.1 0 .2-.1.2 0h.3c0 .2-.3.1-.2.2h-.1c.1.3-.1 0 0 .2h.4c.1-.1 0-.1.1-.2s.2.4.4.2.1-.2.3-.1h-.1c.2.1.2-.2.4 0h-.2c.2.2.1-.1.2 0h.3c.2.1 0 .3-.1.3s.1.1 0 .1 0 0 0 .1h-.1a1.5 1.5 0 01-.5.6c-.2.1 0 .4-.2.4h.1a2.8 2.8 0 01-.9.7c.1.2-.3.2-.2.4s-.3 0-.5.5v.3h-.1l.2.2v.7h-.1c.2.2-.1.1 0 .2h.1a.6.6 0 00.1.4h-.1a2.4 2.4 0 00.2.8h-.1c.1 0 0 .2.1.3v.2h-.3c0-.1-.1-.1 0-.1l-.5-.2v.2c0-.1-.1-.1 0-.2-.4 0-.6-.6-.9-.6h-.3c-.1-.1.1 0 0-.1s-.4-.3-.7-.3v-.2h-.5c-.3-.1-.6.1-.8.1a5.1 5.1 0 01-1.7.7c-.2.1.1.4-.2.4v-.2l-.5.3h-.1c0-.1-.1-.1-.2 0a.1.1 0 01.1-.1c.1 0-.1 0 0-.1h-.1c.1-.2 0-.3.1-.5s.1-.2-.1-.3.2-.2.2-.3h.1c0-.1 0-.2-.1-.2s-.1-.5.2-.5v-1.1s.1.1 0 .3h.1a1.1 1.1 0 00-.1-.5c0-.2-.1-.3-.2-.5h.1l-.2-.2-.2-.2-.3-.2h-.4c.3-.1-.1-.2.2-.3h-.1c-.1 0 0 0 0-.1s-.1.1-.3-.1H93c.1 0 .1-.1.1 0l-.6-.4c.2-.1 0-.1.1-.3h-.2l-.2-.2H92a.1.1 0 010-.2c-.1 0-.1-.1-.1-.2h.2c-.1 0 0-.2-.1-.3h.2c.1-.1-.2-.1 0-.2l.4-.2c.1.1-.2 0-.1.2l.8-.3c0-.2.2.1.3-.1.2.1.4-.1.6-.2h.5c.2.1.3 0 .5-.1l.6-.2h-.1a.5.5 0 00.2-.4c-.1 0 0 .1-.1.1s-.1-.2 0-.2h.2c.2-.1-.2-.2 0-.3h.1c0-.1-.1-.2 0-.3s0 .1.1.2-.1-.3 0-.4v.2h.2v-.2c-.2-.3.1-.3 0-.6s.1.1.2.2h.1c0-.1.1-.1.1-.2-.1-.2.3-.3.3-.6s-.1-.3-.1-.5h.1l.2-.2h.2c.1.1 0 .1 0 .1h.2v.2c0-.2-.3.1-.3.1s-.1-.1-.1-.2v.2H97c-.2.1 0 .3-.2.3 0 .3.1.1.2.3h-.3c-.1.1-.1.3-.3.3s.2-.1.2.1-.1.1-.2.2 0-.2-.1-.1-.2.2-.2.3v.4c0 .2-.3.2-.4.3.1.1 0 .2 0 .3h-.2c0 .1 0 .3-.2.2s.3.3.1.4-.1-.2 0-.2h-.1v-.2c-.1 0-.2 0-.2-.1s0 .1-.1.1 0 0-.1-.1-.2 0-.1.2h-.1c-.1 0-.4 0-.3.2h-.7l-.4.2h-.9v-.2a.9.9 0 00-.5.3l-.3.4c0 .2.1-.1.2 0l-.4.4c0 .3.2.2.3.5h.2c.1.1 0 .3-.1.2h-.1c0 .2.2.3.1.3s.1 0 .1-.1.2.2.3.4c.1.2.1 0 .3.1s-.2.1 0 .2h-.1c.2.1.1.3.2.4h.3c0 .1.2.1.1.2s-.1.1-.2 0c.1.2.2 0 .4.1h.1c0 .2.1.1.2.2.2 0 .1.2.3.3h-.1c.2.1 0 .2.1.2h.2c-.1.1.2.1.1.2h-.2c-.1 0 0 .1 0 .1v.3c.1 0 0 .1 0 .2a.1.1 0 00-.1.1s-.1.1.1.2h-.1c-.1.2.2.3.1.5s-.2 0-.2-.2v.2s.1.2 0 .2h.1s0 .2.1.1-.1.6-.3.7v.6c-.1.3.2.1.2.4s-.1-.1-.1 0 .2.3.3.5h.6l.5-.4v.2c0-.1-.1-.1 0-.2h.1c.1.1.2-.1.3-.1.2-.1.1-.3.3-.4 0-.2.1 0 .2-.1h.1l.3-.4c0 .2-.2.3-.2.4l.2-.2h-.1l.3-.4c.1.3.4-.1.6 0s.4-.1.5-.1.1 0 .2-.2a.1.1 0 01.1.1v.2c.1.1-.1 0-.1.1s0 .1.1.2.1 0 .2 0h-.1c.3 0 .1.2.4.2h-.1c.1 0 .4.2.6.1.2.1.7.1.8.3h.3c.4.3.8 0 1-.1s.5 0 .6-.2a.7.7 0 00.2-.7 1.1 1.1 0 00-.2-.6c.2-.2 0-.6 0-1h-.1c0-.1-.2-.2 0-.2.1-.1 0-.2 0-.3h-.2a.6.6 0 000-.6c0-.2-.1-.3 0-.3v-.2h.1l.3-.3c.1-.1-.1-.3 0-.4h.1c.2-.2.5-.3.6-.6.1-.1.4-.2.2-.4s.2-.1.3-.3c0-.2 0-.2.1-.3.2 0 0-.1.2-.2.1-.1 0-.1 0-.2l.4-.2a.4.4 0 01-.1-.3h.1c.2-.3-.1-.5 0-.7a1.8 1.8 0 01.1.5c.1 0 .1-.3.2-.1s-.3-.4-.4-.6c-.1-.1-.1-.1-.1-.2l-.4-.2c0 .1-.1 0 0 .2h.3c-.1 0-.2 0-.2-.1h-.2l-.3-.4c-.2.1-.5 0-.7.2-.1.1-.3 0-.4.2s.1-.2-.1-.2c-.3-.3-.7.3-1.1-.1h-.6a4.9 4.9 0 01-.3-.7c0-.2-.1-.1-.2-.2h-.1c-.2-.1.1-.4-.2-.6-.1-.1-.2-.3-.1-.3s-.1 0-.1-.1l-.2-.2c0-.2.3 0 .2-.3s-.3-.2-.4-.1.1.1 0 .1h-.1c-.1.1-.4.1-.4.4h.1c-.1.1 0 .1.1.1h.2c0 .1-.1.2 0 .2h-.1l.2.2c0 .1.2.2 0 .3h.3c-.3 0 .1.3-.2.3s.3.3.5.4v.2h.4c-.1.3-.2 0-.4.2s.3.2.4.1v.2c.2-.1.1.1.3.1s0 .2.2.2-.1 2.3-.1 2.3zm3.4.3zm0 .2zm.3-1zM103.3 185.7zM100.6 189.7zM96.4 184.5zM94.6 191.4zM92.2 186.9zM97.9 182.6zM97.4 182.6z"/><path class="cls-13" d="M97.3 182.8h.1c.1-.1-.1-.1-.1 0zM96.5 183.3c-.2 0 .1-.2 0 0zM96.2 183.8c0-.1-.1 0-.1 0zM93.2 185.6c-.1-.1 0-.1 0 0zM92.5 186.2zM91.7 185.9zM93.5 192.1zM95.9 193.1zM101.7 190.4l.1.1-.1-.1zM140.2 182.6l1.2 2.5a.8.8 0 00.6.4l2.7.4a.8.8 0 01.4 1.3l-1.9 1.9a.9.9 0 00-.3.7l.5 2.7a.8.8 0 01-1.1.8l-2.4-1.3h-.7l-2.4 1.3a.8.8 0 01-1.1-.8l.4-2.7a.6.6 0 00-.2-.7l-2-1.9a.8.8 0 01.5-1.3l2.7-.4a.7.7 0 00.5-.4l1.3-2.5a.7.7 0 011.3 0z"/><path class="cls-13" d="M140 182.8s.1-.1 0-.1zM140 182.4l-.3.2h.2c.1 0 .1.1 0 .1h.1c.1-.1 0-.2-.1-.2zM136.2 185.5zM133.7 187.3h-.1a.1.1 0 00.1 0zM136.2 185.5zM137.9 183.9c-.1.1 0 .1.1.2h-.1zM138.9 182.4zM140.2 182.6h.1-.1zM139.8 192.5c-.1-.1.2 0 .1-.2s-.2.1-.1.2zM139.4 182.6zM139.9 192.3zM135.5 190.3zM135.4 192.2zM142.9 186.1h-.1.1zM139.3 182.6zM136.4 191.4zM136.3 192.1z"/><path class="cls-13" d="M141.6 186.1c.3.1.2-.1.3-.2s0 .1.1.2h.8v-.2c.1 0 .2-.1.2 0h.3c0 .2-.3.1-.1.2h-.2c.1.3-.1 0 0 .2h.5v-.2c.3-.1.2.4.5.2s.1-.2.2-.1h-.1c.2.1.2-.2.4 0h-.1c.1.2.1-.1.2 0h.2c.2.1.1.3-.1.3-.1 0 .1 0 0 .1h-.1a.7.7 0 01-.5.6c-.1.1.1.4-.1.4-.3.3-.5.6-.9.7s-.3.2-.1.4-.3 0-.6.5l.2.3h-.2l.2.2c.1.1 0 .4-.1.4l.2.3h-.2c.2.2-.1.1.1.2h.1a.3.3 0 000 .4h-.1a2.4 2.4 0 00.2.8c.1 0-.1.2 0 .3 0 .1.1.1 0 .1l.2.2h-.4l-.5-.2c0 .1.1.1 0 .2s-.1-.1 0-.2c-.4 0-.6-.6-.9-.6h-.3c-.1-.1.1 0 0-.1s-.4-.3-.7-.3v-.2h-.4c-.3-.1-.7.1-.9.1a5.1 5.1 0 01-1.7.7c-.2.1.1.4-.2.4v-.2c-.2.2-.4.4-.5.3h-.1c0-.1-.1-.1-.1 0v-.1s-.1 0 0-.1h-.1c.1-.2 0-.3.1-.5s.1-.2 0-.3.2-.2.1-.3h.1c.1-.1 0-.2-.1-.2s-.1-.5.2-.5v-1.1c.1 0 .1.1.1.3a1.1 1.1 0 00-.1-.5c0-.2-.1-.3-.2-.5h.1a.2.2 0 00-.2-.2v-.2l-.4-.2h-.3c.2-.1-.2-.2.1-.3-.2-.1-.2.1-.3-.1h-.4l-.6-.4c.2-.1 0-.1.1-.3h-.1l-.3-.2h-.2a.1.1 0 010-.2c-.1 0-.1-.1-.1-.2h.2c-.1 0 0-.2 0-.3h.1c.1-.1-.2-.1 0-.2l.4-.2c.1.1-.1 0 0 .2a1.9 1.9 0 01.8-.3h-.1c0-.2.2.1.4-.1h-.1c.2.1.4-.1.7-.2h.4a.4.4 0 00.5-.1l.6-.2s-.1.1 0 .1.1-.2.2-.4h-.2v-.2h.1c.2-.1-.1-.2.1-.3v-.3c.1 0 0 .1.1.2s-.1-.3.1-.4v.2h.2l.2-.2h-.1c-.2-.3.1-.3 0-.6s.1.1.2.2h.1c0-.1.2-.1.1-.2 0-.2.3-.3.3-.6s-.1-.3 0-.5 0 .1 0 .1l.2-.2h.2v.2l.2-.2h.1v.2h-.1c0-.2-.2.1-.3.1h-.3c0-.1-.1-.1 0-.1s-.1.3-.3.3c0 .3.1.1.2.3h-.2c-.2.1-.1.3-.3.3s.1-.1.1.1 0 .1-.2.2 0-.2-.1-.1-.1.2-.2.3 0 .2 0 .4-.2.2-.3.3h-.1c.2.1.1.2 0 .3h-.2c0 .1 0 .3-.2.2s.3.3.1.4v-.2h-.1v-.2h-.1c-.1 0-.2 0-.2-.1-.2.1-.1 0-.2-.1s-.1 0-.1.2h-.1c-.1 0-.3 0-.2.2h-.8l-.4.2h-.9v-.2a.9.9 0 00-.5.3c-.1.2-.1.3-.3.4s.1-.1.2 0l-.3.4c-.1.3.2.2.2.5h.3c0 .1-.1.3-.2.2h-.1c.1.2.2.3.1.3s.1 0 .1-.1l.3.4c.2.2.2 0 .3.1s-.1.1 0 .2 0 .1-.1.1a.4.4 0 01.2.4h.3c0 .1.2.1.1.2s0 .1-.2 0h.1c0 .2.1 0 .3.1s-.1.1 0 .1h.1c.1.2.1.1.2.2h.1c.1 0 0 .2.2.3h-.1c.2.1 0 .2.1.2h.2c0 .1.2.1.1.2h-.2c-.1 0 0 .1 0 .1s.1.2 0 .3h.1c.1 0-.1.1 0 .2h-.2c.1 0 0 .1.1.2h-.1c-.1.2.2.3.1.5l-.2-.2v.2s.1.2 0 .2h.1s0 .2.1.1-.1.6-.3.7v.6c0 .3.2.1.3.4s-.2-.1-.2 0 .2.3.3.5h.6l.5-.4v.2c0-.1-.1-.1 0-.2h.1c.2.1.2-.1.3-.1.2-.1.1-.3.3-.4 0-.2.1 0 .2-.1h.1l.3-.4c0 .2-.2.3-.2.4l.2-.2a.5.5 0 01.2-.4c.1.3.5-.1.7 0s.3-.1.5-.1 0 0 .1-.2a.1.1 0 01.1.1l.2.2h-.1c.1.1 0 .1 0 .2a.1.1 0 01.2 0c.2 0 0 .2.3.2h-.1c.2 0 .4.2.6.1s0 .1 0 .1.7.1.8.3h.3c.4.3.8 0 1-.1s.5 0 .6-.2a.7.7 0 00.2-.7 1.1 1.1 0 00-.2-.6c.2-.2 0-.6 0-1h-.1c0-.1-.2-.2 0-.2a.4.4 0 00.1-.3h-.3c.2-.2.1-.4 0-.6s-.1-.3.1-.3v-.2h.1l.2-.3c.1-.1-.1-.3 0-.4h.2c.1-.2.4-.3.5-.6s.1.1 0 .1.4-.2.3-.4.2-.1.2-.3h.1c-.1-.2-.1-.2 0-.3.2 0 0-.1.2-.2v-.2l.3-.2a.2.2 0 010-.3c.2-.3-.1-.5 0-.7a1.8 1.8 0 01.1.5c.1 0 .1-.3.3-.1s-.4-.4-.4-.6h-.1c0-.1-.1-.1-.1-.2l-.3-.2c-.1.1-.2 0-.1.2h-.1l-.3-.4c-.2.1-.5 0-.7.2h.1c-.2.1-.4 0-.5.2s.2-.2-.1-.2h.1c-.4-.3-.8.3-1.2-.1h-.6a1.4 1.4 0 01-.2-.7c-.1-.2-.2-.1-.3-.2h-.1c-.2-.1.1-.4-.2-.6-.1-.1-.2-.3-.1-.3a.1.1 0 01-.1-.1h.1l-.2-.2c-.1-.2.2 0 .1-.3h-.4c-.2.1-.4.1-.4.4h.4c-.1.1-.2.2 0 .2h-.2l.3.2c-.1.1.1.2-.1.3h.3c-.3 0 .1.3-.1.3s.2.3.4.4h-.1a.1.1 0 010 .2h.4c-.1.3-.2 0-.3.2s.3.2.3.1.1.1 0 .2.2.1.3.1 0 .2.3.2-.2 2.1-.2 2.1zm3.4.3zm.1.2zm.2-1zM142.4 189.7zM138.2 184.5zM133.9 186.8zM136.4 191.4zM134 186.9zM139.6 182.6zM139.2 182.6z"/><path class="cls-13" d="M139.2 182.8a.1.1 0 01.1-.1s-.2 0-.1.1zM138.3 183.3c-.2 0 .1-.2 0 0zM138 183.8c0-.1-.1 0-.1 0zM135 185.6c-.1-.1 0-.1 0 0zM134.3 186.2a.1.1 0 01.1.1h-.1zM133.5 185.9zM135.3 192.1zM137.7 193.1zM143.6 190.4v.1-.1zM37.8 165.9l1.3 2.4a.8.8 0 00.5.5l2.7.4a.7.7 0 01.5 1.2l-2 2a.5.5 0 00-.2.6l.4 2.7a.8.8 0 01-1.1.8l-2.4-1.3h-.7l-2.4 1.3a.8.8 0 01-1.1-.8l.5-2.7a.7.7 0 00-.3-.6l-1.9-2a.7.7 0 01.4-1.2l2.7-.4c.3-.1.5-.2.6-.5l1.2-2.4a.7.7 0 011.3 0zM37.6 166z"/><path class="cls-13" d="M37.6 165.6a.2.2 0 00-.2.2h.3c0-.2-.1-.2-.2-.2zM33.8 168.7zM31.3 170.5zM31.6 171.1zM35.5 167.2zM34.5 168.5zM37.9 165.9zM37.4 175.7c0-.1.2 0 .1-.2s-.2.1-.1.2zM37 165.8zM37.5 175.5zM33.2 174.5zM33 175.5v-.1.1zM40.5 169.4s-.2 0 0 0zM34.1 174.7H34a.1.1 0 01.1 0zM40.2 173.4zM33.9 175.3z"/><path class="cls-13" d="M39.2 169.3c.3.1.2-.1.3-.1s.1.1.1.2l.3-.2c.2-.1.4.1.5-.1h.1c-.1-.1-.1-.2 0-.2h.1c.1.2-.1 0-.1.1h.4c0 .1-.2 0-.1.1h-.2c.1.2-.1-.1 0 .2h.5v-.2c.4-.1.2.4.5.3s.1-.3.2-.2v.2c.2 0 .1-.2.3-.1H42c.1.2.1 0 .2 0h.3a.2.2 0 01-.1.3v.2h-.1c-.1.1.1.1.1.1s-.1.1-.1 0-.3.6-.6.6h.1c-.2.1 0 .3-.2.3-.3.2-.5.6-.8.6s-.4.2-.2.4-.3.1-.6.5.2.2.2.4c.1.2 0 .4-.1.4l.2.3h-.1c.1.2-.2.1 0 .2h.1c-.1.1 0 .3 0 .4h-.1c0 .3.2.6.2.8h.1c.1 0 0-.1.1 0h-.2c.1 0-.1.2.1.3h-.1c0 .2 0 .1.1.2h-.2v.2c0-.1-.1-.1-.1-.2h-.5c-.4-.1-.6-.7-.9-.6h-.3c-.1 0 .1 0 .1-.1s-.5-.3-.7-.3l-.2-.2h-.4c-.3 0-.7.2-.8.1h-.1c0 .1.1 0 0 .1a7.7 7.7 0 01-1.6.7c-.2.1 0 .4-.3.3l-.4.3h-.3a.6.6 0 01.1-.4c-.2-.1.1-.3-.1-.3s.2-.3.1-.4h.2c0-.1 0-.3-.1-.3s-.1-.4.2-.5a.9.9 0 01-.1-.5v-.6c.1 0 .1.2.1.3s0 .2.1.2-.1-.4-.1-.6l-.3-.5h.2l-.3-.3h-.1l-.4-.3h.1c-.1.2-.4 0-.4.1s-.2-.2.1-.4h-.5c-.1-.2-.4-.2-.5-.4s-.1-.1 0-.2H32c-.1-.1-.3-.1-.3-.2-.1 0-.2.2-.2 0a.1.1 0 010-.2s-.1-.1 0-.1h.2c-.2-.1 0-.2-.1-.3h.1c.1-.1-.2-.1 0-.2s.2-.2.5-.2-.2.1-.1.2.5-.3.8-.3h-.1c.1-.2.3.1.4 0s0 .1 0 .1l.6-.2h.4s.1 0 0-.1h.5l.6-.3.2-.3h-.2v-.2h.1c.3-.1-.1-.1.1-.2v-.2c.2 0 .1 0 .1.1s-.1-.3.1-.3h.2c-.2-.3.1-.3 0-.5s.1 0 .2.1h.2c-.1-.2.1-.1 0-.3h.1c.1-.1 0 0-.1-.1s.4-.3.3-.6-.1-.3 0-.5a.1.1 0 01.1.1h.2c.1-.1 0-.2.1-.2v.2c0-.1.1-.1.2-.2s-.1.1-.1.2l.3-.2h-.1c.1 0 0 .1 0 .1l-.1-.1h.1c-.1-.3-.3 0-.4.1v-.2h-.2s-.1 0 0-.1-.1.4-.2.4c-.1.3.1.1.1.4h-.3c0 .2 0 .1.1.1s-.1.4-.3.3.1-.1.1.1 0 .1-.2.2.1-.1-.1-.1-.1.2-.1.3-.1.2-.1.4l-.3.3c.1.1 0 .3 0 .4l-.2-.2-.2.2c0 .1.2.2 0 .3v-.2h-.7c0 .1-.3.1-.2.2-.2.2-.5 0-.7.1H33c-.1 0-.2 0-.1-.1h-.3c.1-.1-.1-.1.1-.1s-.2-.1-.3.1H32v-.2a.7.7 0 00-.6.4c-.1.1-.1.3-.3.4h.2c-.1.2-.3.3-.3.4s.2.3.2.5.2-.1.3 0 0 .3-.2.3c0 .1.2.3.1.3s.1 0 0-.1l.3.3c.2.2.2 0 .3.1s-.1.1.1.2h-.2c.2 0 .2.2.2.3h.1c0 .1.1.1 0 .1h.3c0 .1.1.1.1.2s-.1.1-.3 0h.1c.1.2.2 0 .3.1s-.1.2 0 .2 0-.1.1-.1h.2c.2 0 .1.3.2.3s-.1.1 0 .2-.1.1 0 .1.1-.1.2 0a.1.1 0 00-.1-.1h.1c0 .2.2.1.2.3h-.3c.1.1.1.2 0 .4h.1c.1 0 0 .2 0 .2h-.2c.1 0 0 .2.1.2h-.1c-.1.2.2.3.1.5s-.1 0-.1-.1-.1.1 0 .1 0 .2 0 .2v.2h-.1c.1 0 0 .1.1 0s0 .6-.3.8v.5c0 .3.2.1.3.3s-.2-.1-.2 0 .3.3.3.5c.1.2.4.1.6.1l.6-.4c0 .1-.1 0 0 .1s-.1-.1 0-.2h.2c.1.1.1-.1.2-.1l.3-.3c0-.2.1.1.2-.1h.1c.1 0 .2-.3.3-.4a.5.5 0 01-.2.4l.3-.2h-.1a.5.5 0 01.2-.4c.2.3.5-.1.7.1s.3-.2.5-.1 0 0 .1-.2h.1l.2.3h-.1c.1.1 0 .2.1.3h.2v-.2c.3 0 .1.3.4.3H38c.2 0 .5.2.7.1h-.1c.3.2.7.1.9.4h.1c0 .1-.1.1 0 .1h.1c.5.3.8 0 1.1-.2s.4 0 .5-.2h.1a1.3 1.3 0 00.2-.8l-.2-.5c.1-.3-.1-.7 0-1h-.2c0-.1-.2-.2 0-.2s.1-.2.1-.3h-.2c.1-.2 0-.4 0-.5s-.2-.4 0-.4c.1 0 0 0 .2-.2.2-.1-.1-.4 0-.5h.2c.2-.2.5-.2.5-.5h.1c0-.1.4-.3.2-.4s.2-.2.2-.3h.1c0-.2-.1-.3 0-.4h.1c.1 0 0-.1.1-.2v-.2l.3-.2c0-.1-.1-.2 0-.3.2-.3 0-.4 0-.7h.1a.5.5 0 010 .4c.1 0 .1-.2.3 0a4.3 4.3 0 00-.4-.7H43l-.3-.3c0 .1-.2.1-.1.2h.1l.3.2c-.1 0-.2 0-.3-.2l-.2.2c-.1-.2-.3-.3-.3-.4s-.5-.1-.6.1-.1 0-.1-.1h.1c-.1 0-.4 0-.4.1s.1-.1-.1-.1c-.4-.3-.7.3-1.2-.1h-.5a.8.8 0 01-.3-.7l-.2-.2h-.1c-.2-.2.1-.5-.2-.7h-.1c0-.1-.2-.3-.1-.3h-.2c-.1-.2.2-.1.1-.4s-.3-.2-.3-.1h-.1c-.2 0-.4.1-.4.3h.2c.1.1.1-.1.2 0s-.1.1 0 .1h-.1l.2.2c-.1.1.1.3 0 .3l.2.2c-.3-.1.1.2-.1.3s.2.3.4.4c0 .1-.1.1-.1.2s.3 0 .4.1-.2 0-.3.1.3.2.3.1.1.1.1.3.1 0 .3 0-.1.2.2.2-.2 1.5-.2 1.5zm3.4.4zm.1.1zm.2-1z"/><path class="cls-13" d="M40 173h.1l-.1-.1v.1zM35.5 168.3zM35.9 167.7zM36.2 167.2zM31.5 170zM34.1 174.7zM36.8 166h.1s-.2-.1-.1 0zM35.9 166.6v-.2h-.1c-.1.1.3 0 .1.2zM35.6 167zM32.6 168.8c-.1-.1 0-.1 0 0zM31.9 169.4zM31.1 169.2v.2zM32.9 175.3h.2c-.1-.1-.2-.1-.2 0zM35.4 176.3zM41.2 173.6l.1.1-.1-.1zM78.7 165.9l1.3 2.4a.8.8 0 00.5.5l2.7.4a.7.7 0 01.5 1.2l-2 2a.5.5 0 00-.2.6l.4 2.7a.8.8 0 01-1.1.8l-2.4-1.3h-.7l-2.4 1.3a.8.8 0 01-1.1-.8l.5-2.7a.7.7 0 00-.3-.6l-1.9-2a.7.7 0 01.4-1.2l2.7-.4c.3-.1.5-.2.6-.5l1.2-2.4a.7.7 0 011.3 0zM78.5 166z"/><path class="cls-13" d="M78.5 165.6a.2.2 0 00-.2.2h.3c0-.2-.1-.2-.2-.2zM74.7 168.7zM72.2 170.5zM72.5 171.1zM76.4 167.2zM75.4 168.5zM78.8 165.9zM78.3 175.7c0-.1.2 0 .1-.2s-.2.1-.1.2zM77.9 165.8zM78.4 175.5zM74.1 174.5zM73.9 175.5v-.1.1zM81.4 169.4s-.2 0 0 0zM75 174.7h-.1a.1.1 0 01.1 0zM81.1 173.4zM74.8 175.3z"/><path class="cls-13" d="M80.1 169.3c.3.1.2-.1.3-.1s.1.1.1.2l.3-.2c.2-.1.4.1.5-.1h.1c-.1-.1-.1-.2 0-.2h.1c.1.2-.1 0-.1.1h.4c0 .1-.2 0-.1.1h-.2c.1.2-.1-.1 0 .2h.5v-.2c.4-.1.2.4.5.3s.1-.3.2-.2v.2c.2 0 .1-.2.3-.1h-.1c.1.2.1 0 .2 0h.3a.2.2 0 01-.1.3v.2h-.1c-.1.1.1.1.1.1s-.1.1-.1 0-.3.6-.6.6h.1c-.2.1 0 .3-.2.3-.3.2-.5.6-.8.6s-.4.2-.2.4-.3.1-.6.5.2.2.2.4c.1.2 0 .4-.1.4l.2.3h-.1c.1.2-.2.1 0 .2h.1c-.1.1 0 .3 0 .4h-.1c0 .3.2.6.2.8h.1c.1 0 0-.1.1 0h-.2c.1 0-.1.2.1.3h-.1c0 .2 0 .1.1.2h-.2v.2c0-.1-.1-.1-.1-.2h-.5c-.4-.1-.6-.7-.9-.6h-.3c-.1 0 .1 0 .1-.1s-.5-.3-.7-.3l-.2-.2h-.4c-.3 0-.7.2-.8.1h-.1c0 .1.1 0 0 .1a7.7 7.7 0 01-1.6.7c-.2.1 0 .4-.3.3l-.4.3h-.3a.6.6 0 01.1-.4c-.2-.1.1-.3-.1-.3s.2-.3.1-.4h.2c0-.1 0-.3-.1-.3s-.1-.4.2-.5a.9.9 0 01-.1-.5v-.6c.1 0 .1.2.1.3s0 .2.1.2-.1-.4-.1-.6l-.3-.5h.2l-.3-.3h-.1l-.4-.3h.1c-.1.2-.4 0-.4.1s-.2-.2.1-.4h-.5c-.1-.2-.4-.2-.5-.4s-.1-.1 0-.2h-.1c-.1-.1-.3-.1-.3-.2-.1 0-.2.2-.2 0a.1.1 0 010-.2s-.1-.1 0-.1h.2c-.2-.1 0-.2-.1-.3h.1c.1-.1-.2-.1 0-.2s.2-.2.5-.2-.2.1-.1.2.5-.3.8-.3h-.1c.1-.2.3.1.4 0s0 .1 0 .1l.6-.2h.4s.1 0 0-.1h.5l.6-.3.2-.3h-.2v-.2h.1c.3-.1-.1-.1.1-.2v-.2c.2 0 .1 0 .1.1s-.1-.3.1-.3h.2c-.2-.3.1-.3 0-.5s.1 0 .2.1h.2c-.1-.2.1-.1 0-.3h.1c.1-.1 0 0-.1-.1s.4-.3.3-.6-.1-.3 0-.5a.1.1 0 01.1.1h.2c.1-.1 0-.2.1-.2v.2c0-.1.1-.1.2-.2s-.1.1-.1.2l.3-.2h-.1c.1 0 0 .1 0 .1l-.1-.1h.1c-.1-.3-.3 0-.4.1v-.2h-.2s-.1 0 0-.1-.1.4-.2.4c-.1.3.1.1.1.4H77c0 .2 0 .1.1.1s-.1.4-.3.3.1-.1.1.1 0 .1-.2.2.1-.1-.1-.1-.1.2-.1.3-.1.2-.1.4l-.3.3c.1.1 0 .3 0 .4l-.2-.2-.2.2c0 .1.2.2 0 .3v-.2H75c0 .1-.3.1-.2.2-.2.2-.5 0-.7.1h-.4c-.1 0-.2 0-.1-.1h-.3c.1-.1-.1-.1.1-.1s-.2-.1-.3.1h-.4v-.2a.7.7 0 00-.6.4c-.1.1-.1.3-.3.4h.2c-.1.2-.3.3-.3.4s.2.3.2.5.2-.1.3 0 0 .3-.2.3c0 .1.2.3.1.3s.1 0 0-.1l.3.3c.2.2.2 0 .3.1s-.1.1.1.2h-.2c.2 0 .2.2.2.3h.2c0 .1.1.1 0 .1h.3c0 .1.1.1.1.2s-.1.1-.3 0h.1c.1.2.2 0 .3.1s-.1.2 0 .2 0-.1.1-.1h.3c.2 0 .1.3.2.3s-.1.1 0 .2-.1.1 0 .1.1-.1.2 0a.1.1 0 00-.1-.1h.1c0 .2.2.1.2.3h-.3c.1.1.1.2 0 .4h.1c.1 0 0 .2 0 .2h-.2c.1 0 0 .2.1.2h-.1c-.1.2.2.3.1.5s-.1 0-.1-.1-.1.1 0 .1 0 .2 0 .2v.2H74c.1 0 0 .1.1 0s0 .6-.3.8v.5c0 .3.2.1.3.3s-.2-.1-.2 0 .3.3.3.5c.1.2.4.1.6.1l.6-.4c0 .1-.1 0 0 .1s-.1-.1 0-.2h.2c.1.1.1-.1.2-.1l.3-.3c0-.2.1.1.2-.1h.1c.1 0 .2-.3.3-.4a.5.5 0 01-.2.4l.3-.2h-.1a.5.5 0 01.2-.4c.2.3.5-.1.7.1s.3-.2.5-.1 0 0 .1-.2h.1l.2.3h-.1c.1.1 0 .2.1.3h.2v-.2c.3 0 .1.3.4.3h-.2c.2 0 .5.2.7.1h-.1c.3.2.7.1.9.4h.1c0 .1-.1.1 0 .1h.1c.5.3.8 0 1.1-.2s.4 0 .5-.2h.1a1.3 1.3 0 00.2-.8l-.2-.5c.1-.3-.1-.7 0-1h-.2c0-.1-.2-.2 0-.2s.1-.2.1-.3H82c.1-.2 0-.4 0-.5s-.2-.4 0-.4l.2-.2c.2-.1-.1-.4 0-.5h.2c.2-.2.5-.2.5-.5h.1c0-.1.4-.3.2-.4s.2-.2.2-.3h.1c0-.2-.1-.3 0-.4h.1c.1 0 0-.1.1-.2v-.2l.3-.2c0-.1-.1-.2 0-.3.2-.3 0-.4 0-.7h.1a.5.5 0 010 .4c.1 0 .1-.2.3 0a4.3 4.3 0 00-.4-.7h-.2a.5.5 0 00-.3-.3c0 .1-.2.1-.1.2h.1l.3.2c-.1 0-.2 0-.3-.2l-.2.2c-.1-.2-.3-.3-.3-.4s-.5-.1-.6.1-.1 0-.1-.1h.1c-.1 0-.4 0-.4.1s.1-.1-.1-.1c-.4-.3-.7.3-1.2-.1h-.5a.8.8 0 01-.3-.7l-.2-.2h-.1c-.2-.2.1-.5-.2-.7h-.1c0-.1-.2-.3-.1-.3H79c-.1-.2.2-.1.1-.4s-.3-.2-.3-.1h-.1c-.2 0-.4.1-.4.3h.2c.1.1.1-.1.2 0s-.1.1 0 .1h-.1l.2.2c-.1.1.1.3 0 .3l.2.2c-.3-.1.1.2-.1.3s.2.3.4.4c0 .1-.1.1-.1.2s.3 0 .4.1-.2 0-.3.1.3.2.3.1.1.1.1.3.1 0 .3 0-.1.2.2.2-.1 1.5-.1 1.5zm3.4.4zm.1.1zm.2-1z"/><path class="cls-13" d="M80.9 173h.1l-.1-.1v.1zM76.4 168.3zM76.8 167.7zM77.1 167.2zM72.4 170zM75 174.7zM77.7 166zM76.8 166.6v-.2h-.1c-.1.1.3 0 .1.2zM76.5 167zM73.5 168.8c-.1-.1 0-.1 0 0zM72.8 169.4zM72 169.2v.2zM73.8 175.3h.2c-.1-.1-.2-.1-.2 0zM76.3 176.3zM82.1 173.6l.1.1-.1-.1zM121.4 165.9l1.2 2.4c.1.3.3.4.6.5l2.7.4a.7.7 0 01.4 1.2l-2 2a1.1 1.1 0 00-.2.6l.5 2.7a.8.8 0 01-1.1.8l-2.4-1.3h-.7l-2.5 1.3a.8.8 0 01-1.1-.8l.5-2.7c0-.2 0-.5-.2-.6l-2-2a.7.7 0 01.4-1.2l2.7-.4c.3-.1.5-.2.6-.5l1.2-2.4a.8.8 0 011.4 0zM121.1 166z"/><path class="cls-13" d="M121.1 165.6a.2.2 0 00-.2.2h.2c.1 0 0 .1 0 .1h.1c.1-.2 0-.2-.1-.2zM115.2 171.1zM117.4 168.7zM119 167.2h.2a.1.1 0 01-.1-.1zM118.1 168.5zM121.4 165.9h.1-.1zM121 175.7c-.1-.1.2 0 .1-.2s-.2.1-.1.2zM120.5 165.8zM121.1 175.5zM116.7 173.5zM116.7 174.5zM116.5 175.5h.1v-.1l-.1.1zM124 169.4s-.2 0 0 0zM117.6 174.7zM123.7 173.4zM117.5 175.3z"/><path class="cls-13" d="M122.8 169.3c.3.1.1-.1.2-.1s.1.1.2.2l.3-.2c.1-.1.3.1.5-.1v-.2h.2c0 .2-.2 0-.2.1h.5c0 .1-.3 0-.2.1h-.1c.1.2-.1-.1 0 .2h.4v-.2c.3-.1.2.4.4.3s.1-.3.3-.2v.2c.2 0 .2-.2.4-.1h-.2c.1.2.1 0 .2 0h.3c.2.1 0 .3-.1.3v.2c-.1.1 0 .1 0 .1s-.1.1-.1 0-.3.6-.5.6c-.2.1 0 .3-.2.3-.3.2-.5.6-.8.6s-.3.2-.2.4-.3.1-.5.5.1.2.1.4a.1.1 0 01.1-.1 1 1 0 01-.1.4v.3h-.1c.2.2-.1.1 0 .2h.1a.6.6 0 00.1.4h-.1c0 .3.1.6.1.8h.1c.1 0 .1-.1.2 0h-.3c.1 0-.1.2.1.3v.2h-.1c-.1.1-.1.1-.1.2s-.1-.1 0-.2h-.5c-.4-.1-.6-.7-1-.6h-.2c-.2 0 .1 0 0-.1s-.4-.3-.7-.3v-.2h-.5c-.3 0-.7.2-.8.1l-1.7.7c-.2.1.1.4-.3.3l-.4.3h-.3c.1-.1 0-.3.1-.4s.1-.3-.1-.3.2-.3.2-.4h.1c0-.1 0-.3-.1-.3s-.1-.4.2-.5v-.5c-.1-.2 0-.3-.1-.6s.1.2.1.3 0 .2.1.2a1.5 1.5 0 00-.1-.6c-.1-.1-.1-.3-.2-.5s.1 0 .1.1l-.2-.3h-.2l-.3-.3c0 .2-.3 0-.4.1s-.1-.2.2-.4h-.1c-.1-.1-.1-.1 0-.1h-.4c-.2-.2-.5-.2-.6-.4s0-.1.1-.2h-.2c-.1-.1-.2-.1-.2-.2h-.1c-.1 0-.1.2-.2 0s0-.1.1-.2h.1c-.1-.1 0-.2-.1-.3h.2c.1-.1-.2-.1 0-.2l.4-.2c.1.2-.2.1-.1.2l.8-.3c0-.2.2.1.3 0l.6-.2h1l.6-.3a.1.1 0 00-.1.1l.2-.3h-.1c-.1-.1-.1-.2 0-.2h.1c.2-.1-.2-.1 0-.2h.1c0-.1-.1-.2 0-.2h.1c0-.1-.1-.3 0-.3.2 0 .2 0 .2-.1h.1c-.2-.3.1-.3 0-.5s.1 0 .2.1h.1c0-.2.1-.1.1-.3-.1-.2.3-.3.2-.6s0-.3 0-.5a.1.1 0 01.1.1h.3c0-.1 0-.2.1-.2v.2l.2-.2v.2c0-.1.1-.1.2-.2h-.1c0 .1-.1-.1-.1-.1h.1c-.1-.3-.3 0-.4.1-.1-.1-.2-.1-.1-.2h-.2c-.1 0-.2 0-.1-.1s0 .4-.2.4c-.1.3.1.1.2.4h-.3c-.1.1-.1.4-.3.3s.2-.1.2.1-.1.1-.2.2h-.1c.1.2-.2.2-.2.3s0 .2-.1.4l-.3.3c.1.1 0 .3 0 .4v-.2h-.1a.1.1 0 01.1.1h-.1a.2.2 0 01-.2.2c0 .1.2.2.1.3s-.1-.1 0-.2h-.5c-.1 0-.2 0-.1.1h-.1c-.1.1-.4.1-.3.2-.2.2-.5 0-.7.1h-.9c-.1 0-.2-.1-.3.1h-.3v-.2a.7.7 0 00-.5.4l-.4.4c.1.1.2-.2.3-.1s-.4.3-.4.4.2.3.3.5a.1.1 0 01.2 0c.1.2 0 .3-.1.3h-.1c0 .1.2.3.1.3s.1 0 .1-.1.1.2.2.3h.1c.1.2.1 0 .3.1s-.2.1 0 .2h-.1c.1 0 .1.2.2.3h.3c0 .1.2.1.1.2s-.1.1-.2 0c.1.2.2 0 .4.1v.2h.4c.2 0 .1.3.3.3v.2c.2 0 0 .1.1.1s0-.1.1 0 0-.1-.1-.1h.2c-.1.2.2.1.1.3h-.2c-.1.1-.1.1 0 .1v.4c.1 0 0 .2 0 .2h-.1s-.1.2.1.2h-.1c-.1.2.1.3.1.5s-.2 0-.2-.1.1.2 0 .2v.2s0 .1.1 0-.1.6-.3.8-.1.3 0 .5h-.1c0 .3.3.1.3.3s-.1-.1-.1 0 .2.3.3.5h-.1c.1.2.4.1.7.1s-.1 0 0 .1.4-.3.5-.4c.1 0-.1-.1.1-.2h.1c.1.1.2-.1.2-.1h.1l.3-.3h-.1c.1-.2.2.1.2-.1h.2a.8.8 0 01.3-.4l-.3.4.3-.2h-.1c0-.2.1-.3.3-.4s.4-.1.6.1.4-.2.5-.1.1 0 .2-.2h.1v.3h-.1c.2.1 0 .2.1.3h.2v-.2c.3 0 .1.3.4.3h-.1c.1 0 .4.2.6.1.2.2.7.1.8.4h.3c.4.3.7 0 1-.2s.4 0 .6-.2a1.3 1.3 0 00.2-.8c-.1-.3-.1-.4-.2-.5s0-.7 0-1h-.2c.1-.1-.1-.2.1-.2.1 0 0-.2 0-.3h-.2a.4.4 0 000-.5c-.1-.2-.1-.4 0-.4l.3-.2c.1-.1-.1-.4 0-.5h.1c.2-.2.5-.2.6-.5.1-.1.4-.3.2-.4s.2-.2.3-.3c0-.2 0-.3.1-.4l.2-.2c.1-.1 0-.1 0-.2l.4-.2a.4.4 0 01-.1-.3h.1c.1-.3-.1-.4-.1-.7h.1a1 1 0 01.1.4c.1 0 .1-.2.2 0a4.3 4.3 0 00-.4-.7h-.2c.1-.1-.2-.3-.3-.3s-.1.1 0 .2h.1l.2.2c-.1 0-.2 0-.3-.2v.2c-.1-.2-.3-.3-.3-.4s-.5-.1-.7.1-.1 0-.1-.1h-.3c-.1-.1.1-.1-.1-.1-.3-.3-.7.3-1.1-.1h-.6a1.1 1.1 0 01-.3-.7l-.2-.2h-.1c-.2-.2.1-.5-.2-.7h-.3a1 1 0 00-.1-.3h-.2c0-.2.3-.1.2-.4s-.3-.2-.4-.1 0 .1 0 .1h-.1c-.2 0-.4.1-.4.3h.1c-.1.1 0 .1.1.1.1.1.1-.1.2 0s-.1.1 0 .1h-.1l.2.2c0 .1.2.3 0 .3l.2.2c-.2-.1.2.2-.1.3s.3.3.4.4v.2c.1-.1.2 0 .4.1s-.3 0-.4.1.3.2.4.1v.3c.1-.2.1 0 .3 0s0 .2.2.2-.1 1.4-.1 1.4zm3.3.4zm.1.1zm.2-1zM123.6 173v-.1.1zM119.4 167.7zM115.1 170zM117.6 174.7zM115.2 170.1zM120.9 165.8z"/><path class="cls-13" d="M120.3 166h.1c.1 0-.1-.1-.1 0zM119.5 166.6v-.2h-.1c-.1.1.2 0 .1.2zM119.2 167zM116.1 168.8zM115.5 169.4zM114.7 169.2c-.1.1-.1.1-.1.2a.1.1 0 01.1-.2zM116.5 175.3h.1c0-.1-.2-.1-.1 0zM118.9 176.3zM124.7 173.6l.1.1-.1-.1zM164 165.9l1.2 2.4c.1.3.4.4.6.5l2.7.4a.7.7 0 01.4 1.2l-1.9 2a.5.5 0 00-.2.6l.4 2.7a.8.8 0 01-1.1.8l-2.4-1.3h-.7l-2.4 1.3a.8.8 0 01-1.1-.8l.4-2.7a.5.5 0 00-.2-.6l-2-2a.7.7 0 01.5-1.2l2.7-.4a1.3 1.3 0 00.6-.5l1.2-2.4a.7.7 0 011.3 0z"/><path class="cls-13" d="M163.8 166s.1 0 0-.1zM163.8 165.6l-.3.2h.3a.1.1 0 01-.1.1h.1c.1-.2 0-.2-.1-.2zM160 168.7zM157.5 170.5zM157.8 171.1zM160 168.7zM161.7 167.2zM162.7 165.6zM160.7 168.5zM164.1 167.3zM164 165.9h.1-.1zM163.6 175.7c-.1-.1.2 0 .1-.2s-.2.1-.1.2zM163.2 165.8zM163.7 175.5zM159.3 173.5zM159.3 174.5zM159.2 175.5v-.1.1zM166.7 169.4h0zM163.1 165.8zM160.2 174.7zM166.3 173.4zM160.1 175.3z"/><path class="cls-13" d="M165.4 169.3c.3.1.2-.1.3-.1s0 .1.1.2l.3-.2c.1-.1.4.1.5-.1v-.2h.2c0 .2-.1 0-.1.1h.4c0 .1-.3 0-.1.1h-.2c.1.2-.1-.1 0 .2h.5v-.2c.3-.1.2.4.5.3s.1-.3.2-.2v.2c.3 0 .2-.2.4-.1h-.1c.1.2.1 0 .2 0h.2c.2.1.1.3-.1.3s.1.1.1.2h-.1c-.1.1.1.1 0 .1s-.1.1-.1 0-.2.6-.5.6c-.1.1.1.3-.1.3-.3.2-.5.6-.9.6s-.3.2-.1.4-.3.1-.6.5l.2.4c.1.2 0 .4-.1.4l.2.3h-.2c.2.2-.1.1.1.2h.1a.3.3 0 000 .4h-.1a1.9 1.9 0 00.2.8h.1c.1 0 0-.1.1 0h-.2c.1 0-.1.2 0 .3v.2s.1 0 0 .1h-.1c-.1.1 0 .1 0 .2v-.2h-.5c.1 0 .1.1 0 .1-.4-.1-.6-.7-.9-.6h-.3c-.1 0 .1 0 0-.1s-.4-.3-.7-.3v-.2h-.4c-.3 0-.7.2-.9.1l-1.7.7c-.2.1.1.4-.2.3l-.4.3h-.6s.1-.1-.1-.1 0-.3.1-.4.1-.3 0-.3.2-.3.1-.4h.1a.2.2 0 00-.1-.3c.3-.1-.1-.4.2-.5v-1.1c.1 0 .1.2.1.3s0 .2.1.2-.1-.4-.2-.6l-.2-.5c-.1-.1.1 0 .1.1s-.1-.2-.2-.3h-.1l-.4-.3c0 .2-.3 0-.3.1s-.2-.2.1-.4h-.5l-.6-.4c.2-.1 0-.1.1-.2h-.1c-.1-.1-.3-.1-.3-.2-.1 0-.2.2-.2 0a.1.1 0 010-.2h.1c-.1-.1 0-.2 0-.3h.1c.1-.1-.2-.1 0-.2l.4-.2c.1.2-.1.1 0 .2a1.9 1.9 0 01.8-.3h-.1c0-.2.2.1.4 0a.1.1 0 00-.1.1l.7-.2h.4s.1 0 0-.1h.5l.6-.3s-.1.1 0 .1l.2-.3h-.2v-.2h.1c.2-.1-.1-.1.1-.2v-.2h.1c.1-.1-.1-.3.1-.3s-.1.1 0 .1.1 0 .1-.1h.1c-.2-.3.1-.3 0-.5s.1 0 .2.1h.1c0-.2.2-.1.1-.3h.1c.1-.1 0 0-.1-.1s.3-.3.3-.6-.1-.3 0-.5 0 .1.1.1.1 0 .1-.1a.1.1 0 01.1.1c.1-.1 0-.2.1-.2v.2c0-.1.1-.1.2-.2s-.1.1-.1.2l.3-.2h-.1c-.1.1-.1-.1-.1-.1 0-.3-.2 0-.3.1v-.2c-.1 0-.1.1-.1.2v-.2h-.2s-.1 0 0-.1-.1.4-.3.4c0 .3.1.1.2.4h-.3c0 .2 0 .1.1.1s-.1.4-.3.3.1-.1.1.1 0 .1-.2.2h-.1c.1.2-.1.2-.2.3s0 .2 0 .4l-.3.3h-.1c.2.1.1.3 0 .4s-.1-.1-.1-.2h-.1a.2.2 0 01-.2.2c0 .1.3.2.1.3v-.2h-.7c-.1.1-.3.1-.2.2-.2.2-.5 0-.8.1h-.7c.1-.1-.1-.1.1-.1s-.2-.1-.4.1-.1-.1-.2-.1h-.2v-.2a.7.7 0 00-.5.4c-.1.1-.1.3-.3.4s.1-.2.2-.1-.3.3-.3.4.2.3.2.5.1-.1.3 0-.1.3-.2.3h-.1c.1.1.2.3.1.3s.1 0 .1-.1.2.2.3.3c.2.2.2 0 .3.1s-.1.1 0 .2 0 .1-.1.1.2.2.2.3h.3c0 .1.2.1.1.2s0 .1-.2 0h.1c0 .2.1 0 .3.1s-.1.2 0 .2 0-.1.1-.1h.3c.1 0 0 .3.2.3v.2c.2 0 0 .1.1.1s.1-.1.2 0c0 .2.2.1.1.3h-.2c0 .1.1.2 0 .4h.1c.1 0 0 .2 0 .2h-.2c.1 0 0 .2.1.2h-.1c-.1.2.2.3.1.5h-.2a.1.1 0 00.1.1c-.1 0 0 .2-.1.2s.2.1.1.2 0 .1.1 0-.1.6-.3.8v.5c0 .3.2.1.3.3s-.2-.1-.2 0 .2.3.3.5c.1.2.4.1.6.1l.6-.4c0 .1-.1 0 0 .1a.1.1 0 010-.2h.1c.2.1.2-.1.3-.1l.3-.3c0-.2.1.1.2-.1h.1l.3-.4a.5.5 0 01-.2.4l.2-.2a.5.5 0 01.2-.4c.2.3.5-.1.7.1s.3-.2.5-.1 0 0 .1-.2h.1l.2.3h-.1c.1.1 0 .2 0 .3h.2v-.2c.2 0 .1.3.3.3h-.1c.2 0 .4.2.7.1h-.1c.3.2.7.1.8.4h.3a.8.8 0 001-.2c.1.2.5 0 .6-.2a.9.9 0 00.2-.8.6.6 0 00-.2-.5c.2-.3 0-.7.1-1h-.2c0-.1-.2-.2 0-.2.1 0 .1-.2.1-.3h-.3a.3.3 0 000-.5c0-.2-.1-.4.1-.4l.2-.2c.1-.1-.1-.4 0-.5h.2c.2-.2.4-.2.5-.5s.1 0 0 .1.5-.3.3-.4.2-.2.2-.3h.1c0-.2-.1-.3 0-.4.2 0 0-.1.2-.2v-.2l.3-.2a.2.2 0 010-.3c.2-.3-.1-.4 0-.7a1 1 0 01.1.4c.1 0 .1-.2.3 0s-.4-.5-.4-.7h-.2l-.3-.3c-.1.1-.2.1-.1.2h.1l.2.2-.2-.2-.2.2c-.1-.2-.3-.3-.3-.4s-.5-.1-.7.1h-.4c-.1-.1.2-.1-.1-.1h.1c-.4-.3-.8.3-1.2-.1h-.6a1.2 1.2 0 01-.2-.7l-.3-.2h-.1c-.2-.2.1-.5-.2-.7 0-.1-.2-.3-.1-.3h-.2c-.1-.2.2-.1.1-.4s-.3-.2-.3-.1h-.1c-.2 0-.4.1-.4.3h.1c.2.1.2-.1.3 0s-.2.1 0 .1h-.2l.3.2c-.1.1.1.3 0 .3l.2.2c-.3-.1.1.2-.1.3s.2.3.4.4h-.1c.1.1 0 .1 0 .2s.3 0 .4.1-.2 0-.3.1.3.2.3.1.1.1 0 .3.2 0 .3 0 0 .2.3.2-.2 1.2-.2 1.2zm3.4.4zm.1.1a.1.1 0 01-.1-.1h.1zm.2-1z"/><path class="cls-13" d="M166.2 173h.1l-.1-.1v.1zM162 167.7zM157.7 170zM160.2 174.7zM163 165.9zM163 166h.1s-.2-.1-.1 0zM162.1 166.6v-.2h-.1c-.1.1.2 0 .1.2zM161.8 167zM158.8 168.8c-.1-.1 0-.1 0 0zM158.1 169.4zM157.3 169.2v.2zM159.1 175.3h.1c0-.1-.1-.1-.1 0zM161.5 176.3zM167.4 173.6v.1-.1z"/></g><path class="cls-4" d="M89.2 33.8s4.8 1.9-14.8 13.5c-11.3 6.7-5.3 42.1-5.3 42.1S62.9 74.5 63.6 69s-3.4-30.5 25.6-35.2z"/><path class="cls-4" d="M88.6 33.2s-3 4.6 5.4 8.1c14.6 6 27.4 13.9 23.6 46.4 0 0 7.7-21.5.6-36.6S88.6 33.2 88.6 33.2z"/></g></svg>