<svg xmlns="http://www.w3.org/2000/svg" viewBox="0 0 175.7 182"><defs><clipPath id="clip-path"><circle class="cls-1" cx="87.8" cy="87.8" r="87.8"/></clipPath><clipPath id="clip-path-2"><path class="cls-1" d="M127.5 133.8c-26-8.1-18.9-35-18.9-35l-12-1.4v-.3l-.9.2-.9-.2v.3l-12 1.4s7.1 26.9-18.9 35S32 150 30 182h131.4c-2-32-7.9-40.1-33.9-48.2z"/></clipPath><style>.cls-1{fill:none}.cls-4{fill:#010c39}.cls-6{fill:#ffcaa6}.cls-8{fill:#eaa16e}.cls-9{fill:#edad80}.cls-10{fill:#f4826c}.cls-13{fill:#f9a61a}.cls-14{fill:#fff}</style></defs><circle cx="87.8" cy="87.8" r="87.8" fill="#f7ec48"/><g clip-path="url(#clip-path)"><path class="cls-4" d="M133 61.5C125.6 18 94.6 27.8 91 29.1 87.4 27.8 56.5 18 49 61.5c-7.9 46.2-51.3 46.5-26.6 73.3 21.3 23.2 59 21.8 68.6 21 9.6.8 47.3 2.2 68.7-21C184.3 108 141 107.7 133 61.5z"/><path d="M88.1 50.6c-2.5-1.6-6.5 3.3-9 7.4-15.6 29.7-23.8 60.7-33.7 91.9 18.8 7.3 39 6.5 45.6 5.9 8.1.7 35.9 1.7 57.2-11.6-11.8-36.2-28.5-69.9-60.1-93.6z" fill="#00071e"/><path class="cls-6" d="M114.7 72.7c-3.4 5.3-3.9 13.8.5 16.6s11.8-1.4 15.2-6.7 2.5-11.8-1.8-14.5-10.6-.7-13.9 4.6zM72.3 74c3.7 5 4.8 13.5.7 16.6s-12-.5-15.7-5.6-3.4-11.6.8-14.6 10.5-1.5 14.2 3.6z"/><g clip-path="url(#clip-path-2)"><path class="cls-6" d="M127.5 133.8c-26-8.1-18.9-35-18.9-35l-12-1.4v-.3l-.9.2-.9-.2v.3l-12 1.4s7.1 26.9-18.9 35S32 150 30 182h131.4c-2-32-7.9-40.1-33.9-48.2z"/><path class="cls-8" d="M107.7 105.2a34 34 0 01.9-6.4l-12-1.4v-.3l-.9.2-.9-.2v.3l-12 1.4a38.3 38.3 0 01.8 10.2c2.6 5.3 12.1 12.8 24.1-3.8z"/><path class="cls-9" d="M108.3 105.6h-.2l.2.3zM107.3 105.8a1.2 1.2 0 00.6.6l-.3-.6h.3c-.1-.1.1-.1 0-.3s-.4.1-.4.3zM93.9 114.6zM92.9 114.2zM99.7 112.6h-.2c0 .2.1.1.2 0zM107.1 107.5v-.2zM101.7 110.7a.1.1 0 00-.1-.1zM103.2 109.3c-.1 0 .2.2.2.3s-.1-.2 0-.2zM105.9 107.1zM100.5 111.7zM109.4 102.8zM107.7 105.2h-.1l-.1-.1.2.1zM84.4 100.3c-.3.1-.4-.2-.7 0a1.6 1.6 0 00.7 0zM107.1 107.5zM87.6 111.9zM90 113.9zM86.1 111.1zM85.1 109.7l-.1.1h.1v-.1zM107 97.3a.4.4 0 01.1.3c0-.2.5-.2-.1-.3zM107 107.4zM84.3 112.7l-.2-.3zM93.7 96.2zM83.4 111.6a.4.4 0 00.1-.3.1.1 0 00-.1.1z"/><path class="cls-9" d="M110.7 97.7c.1-.5-.4.1-.7.2-.7 0 .1-.3.1-.5s-1.1.3-1.4.3 0-.1.2-.2h-1.8a1.3 1.3 0 01-.1.6c-.1 0-.3.2-.3-.1 0-.2 0-.3.1-.3h.2a.6.6 0 00-.5.2h-.4c0-.4.5-.1.3-.4l.3.2c-.2-.6.1 0 0-.6s-.5.1-.9 0 0 .3-.1.5-.3-1-.8-.6-.2.7-.5.4l.2-.4c-.4-.1-.3.6-.7.3s.3-.1.3-.2-.3.2-.5.2v-.4l-1.3.2c0-.1.1-.2 0-.3a3.1 3.1 0 01-1.8-.5l-.2.3c-.1 0-.1-.1 0-.2s-.1.2-.2.3-.1-.2 0-.3-1.2.5-1.6.1h.1c-.3-.2-.4.6-.7.3h.1l-1.4-.2.9 1v-.3l.3-.7-1.4-.3h-.4c0 .3-.4.1-.4.2s-.1 0-.1.2-.2-.4-.7-.7l-1.6 1.4.2.2 1.1-1.3c-.1.1-.1.3-.2.3v-.3l-.3.4v-.4h-.2a.2.2 0 01.2.2.5.5 0 01-.7-.3l-.6.4c0-.2.1-.2.1-.3s-.1-.4-.3 0v.2a1.1 1.1 0 00-.8 0v-.2l-1.5.3c.2.1.2.5.1.5v-.3c-.1.2.1.1 0 .4s-.2-.4-.1-.5h-.2c-.1-.1 0-.2 0-.3s-.5-.3-.6.1l-1.2.3c.1.3-.1.2-.2.5a2 2 0 00-1.1-.2c-.2.2 0 .3-.1.5s-.4-.2-.3-.4a3 3 0 00-1.1.4c.1.1.2.1.1.2s-.2-.1-.2-.2c-.3.2-.6 0-1.3 0s-1.5-.2-1.7.1l-.6.3c-.2.1-.2 0-.2-.1l-.3-.2a2.7 2.7 0 01.4 1.3 3 3 0 00.4 1.1.6.6 0 00-.3.6v.2h.1v.3c.1.3.3.6 0 .9h.2c.2.1-.1.2-.1.3s.1-.2.3-.1a8.7 8.7 0 01-.2 3.2c-.1.4 1 .2.5.7h-.3a2.5 2.5 0 01.2 1.2c0 .2-.1.4 0 .6v.3a.8.8 0 00.1.4l-.2-.2a.6.6 0 00-.1.6c0 .2 0 .3.1.3h.2c.1.2-.1.1-.2.3l.4.4c.1.1.2.1.1.2s-.1 0-.1 0 .2.5.4.3.5.4.5.7.2.6.6.4.1.7.4.7 0 .2-.2.3.4.3.5.1 1 .2.7 1l1.9.7c-.3.4-.6-.3-.9.1l.9.2a1 1 0 01.7.2c.1.2-.2.2-.2.2l.8.4a1.1 1.1 0 00.8.1h-.1c.1 0 .2.2.2 0h-.1c0-.4.6-.5.7-.7s.4.4-.1 1l.3-.2c.1.1.1.2-.1.3s.4-.3.7-.2l-.2.2a.7.7 0 01.7-.2c0 .1 0 .2-.1.2l.7-.2c.3-.1.5-.2.7-.1s.2.2.2.6h.3v-.2c.3 0 .5-.3.7-.2l-.2.2h.2c.3-.3 0-.6.3-.5s.2 0 .4.2c.1-.2.2-.3.4-.2s0 .4.1.5.5-.2.6-.6v.1c.1 0 .1.1.2.2s-.3-.4.2-.3h-.1c.4 0 .7-.4 1.1-.4s-.3.2 0 .5.8-.9 1.3-1.1h-.1c-.2-.5.5.1.6-.2v.2c.4-.1.6-.4.9-.9.3 0 .5-.2.8-.3s.1-.2-.1-.3.7-.2.9-.4.3-.7.8-.6v.2l.4-.5h-.4c-.1-.2 0-.4.1-.4s.2.3.4.3-.1-.1-.1-.2-.3-.4.1-.4h.1c.1-.1 0-.4.2-.4s0 .2.1.4 0-.7.3-.6v.3c.4.1.3 0 .5 0l.3-.2h-.1c-.4-.7.3-.5.1-1.1s.2.2.4.5h.4c-.1-.4.3-.1.2-.5s.1-.2.3 0-.2-.1-.3-.2.9-.2.8-.9-.1-.8 0-1.2.3.3.3.3.3-.2.3-.4h.3c0-.1-.3-.3 0-.4l.2.4c.1-.2 0-.4.1-.6s.1.2.2.3.2-.5 0-.7h-.2c.1-.1.2.1.3.2s-.3.2-.4.1c-.5-.3-.2.4-.4.6l-.3-.3v.4a.3.3 0 01-.3-.3c-.3 0 0 .3-.3.2v.2c0-.1-.2-.2-.1-.2s-.1.6-.4.5c-.2.4.2.2.3.7l-.8-.3.2.2h-.2c0 .3.1.1.2.3s-.3.6-.8.3.3-.1.3.2-.1.3-.5.3.1-.3-.2-.3-.4.2-.4.4-.2.4-.3.7-.6.2-.9.3c.2.4-.1.5-.2.7s-.2-.3-.1-.4h-.2a.2.2 0 010 .3l-.2-.2c-.1.2-.1.6-.5.7s.7.4.5.8-.3-.3-.2-.4h-.1v-.3c-.1 0 .1.3 0 .3s-.2-.1-.3-.2h-.3c.1 0 .1.2.1.3s-.2-.2-.4-.2-.2.1 0 .4h-.3c0 .1-.5.3-.2.5h.1c-.2.5-.9.4-1.2.6h-.1c-.1.3-.4.4-.5.7s-.2-.1-.3-.3-.1.3-.4.3-.1-.1.1-.2-.4-.1-.5.2-.3-.2-.4-.1h-.1v-.4c-.6-.2-.6 1.1-1.2.4s.3.2.3.5-.6-.5-.7-.5-.2.6-.5.5.1.4-.1.6-.4-.5-.2-.6H94a.1.1 0 000-.2c-.1-.1-.4-.1-.4-.3s0 .2.1.3-.5 0-.8-.1.1.2.1.2-.2.2-.5.3.1-.5-.3-.3a.4.4 0 01.1-.5c-.3.2-.4-.2-.6-.3h.2a.1.1 0 01-.2 0v.1c-.1.2 0 .5-.3.7s-.3 0-.3-.3.1-.4.4-.4h-.2c-.2-.3-.2.4-.6.2s.1-.3 0-.3 0 .3-.2.4-.3 0-.4 0h.1c-.1.2-.2.1-.3.1s.1-.1.1-.1-.2-.5-.5-.4.1-.3.1-.5-.2-.3-.5-.3 0 .2-.3.4h.5l-.5.2h.4c-.2.1-.2.1-.2.3s-.5 0-.5-.4l.3-.5c-.1-.4-.7-.1-.9-.5v.2c-.2.2-.2-.1-.4-.1a.8.8 0 00.1-.4c-.1.1-.2-.3-.5 0v-.3c-.1-.3-.7.2-.9-.2s.2-.3.5-.2-.1-.2-.2-.1-.4 0-.4-.3-.2.2-.3.1h.1c-.1.1-.3-.1-.4.2s-.7-.8-.4-1.4l-.5-.6s.1-.1.1 0-.2-.1-.3-.1-.4 0-.3-.2.2.1.3 0-.1-.2.3-.5c.3-.2-.2-.5-.1-.9s0 .1.1 0a1.3 1.3 0 01-.6-1c.3.1.1.2.4.1s-.4.1-.5-.2a.9.9 0 01.6-.3v.2c.4-.1 0-.3 0-.5h.2c-.1-.4-.5-.4-.5-.8h-.1c-.4-.2.2-.2-.1-.4h.4a5.6 5.6 0 01-.5-.8c.3.1.5.4.7.6s-.1-.5-.3-.6.2.2.1.2-.5-.4-.6-.7.2-.8.8-1.2a1.1 1.1 0 01-.2-.8v-.9c-.6.2 0 0-.7 0s0-.1 0-.1l.4-.2h.3l.5.2-.3-.2h-.3c-.4-.3.2 0 .3 0h.1c-.1-.1 0 0-.2-.5l.2.3h.1c0-.1 0-.2.2-.2a.8.8 0 01.8-.2v.2c.1 0 .2-.3.3-.2s0 .2.1.2a.3.3 0 01.4-.2v.2c.5.1.8-.6 1.2-.8s.5.6.7.7c.7 0 1.1-.5 1.7-.7s1.2 0 1.9.2-.1-.3 0-.4.4-.4.4.1c.1.4.4.2.6.2v-.6c.7.8 1.5-.5 1.9.2a.1.1 0 00.1-.1l1.3-.9-.2-.3a.4.4 0 00-.1-.3L94.9 98h.1v.3l.4.2h1l-.2.2c.2 0 .2-.1.3-.2a.4.4 0 01.1-.3c0-.2.1-.5.2-.5v.5h.2l-1.4-1.3v.3l-.2.7 1.3.5c.3.2.6.4 1 .1s0 .2-.1.2.8.4.8-.2.5.1.8-.1v.3c.3-.3.3-.5.6-.5s.1.2 0 .1.2-.2.5 0l-.2.2c.3 0 .3-.1.4-.3s.5.1.5.4.2-.4.3-.3v.2c.3.3.6-.3.9.1v.4c-.3-.1-.6-.1-.6-.2s.2.4 0 .8.6-.6.9-.5h.4c0 .3.2.2.4.2s.2-.2 0-.5h-.5c.2-.1.3-.2.4 0l.3-.5c.1.4.4.7.4 1s1 0 1.3-.6.1.2.1.3h-.2c.3-.1.7.1.8-.3s-.2.3.2.3c.1.2.3.2.5.2h.4c.2-.3.7-.4.7 0l.4.2c-.1.2 0 .4-.1.6a.6.6 0 01-.1.4.9.9 0 01-.3.5c-.1.3.1.3.3.5h-.3l.3.4c.2.4-.9.6-.4 1.2h.2c0 .2.1.7-.2.6s.3.1.1.1h-.1l.2.5c-.1.4-.7-.1-.7.4s.5.6.6.6.1-.2.3-.2v.2c.6 0 1.1.2 1.4-.2l-.2-.3h.2v.2c.2-.1 0-.2-.1-.3h.3l-.5-.3c.2-.1.4.1.5-.1s-.4.1-.6-.1.5-.1.3-.3h.3c-.2-.1-.1-.3-.3-.4s-.1-.5.4-.5-.3-.3-.3-.4.1-.5.7-.4-.2-.6-.4-1h.1l.4-.4c-.5-.1-.5-.6-.7-.7s.5.1.9-.1-.2-.6-.5-.4.1-.3.6-.6 0-.2-.4-.3.7-.4.6-.8.1-.1.1-.1zm-8.4-.5zm-.5 0h.2v.2zm.9 2.2c-.1.1-.1 0-.1-.1h.1zM102.9 99.1z"/><path class="cls-9" d="M94.3 96l.1.1V96h-.1zM102.8 111.6zM103.9 110.8zM104.7 110.1zM89.4 115.8zM94.6 115.7l-.2.2c.1 0 .2 0 .2-.2zM84.3 112.7z"/><path class="cls-9" d="M94.2 115.9h.2a.1.1 0 00-.2 0zM107.7 106.8zM107.7 106.7zM107.8 106.5zM106.5 108.1c.1-.1.4 0 .4-.2h-.1c.1.1-.4 0-.3.2zM104.4 108.5l.3-.2c-.2 0-.3-.1-.3-.2s.3.1 0 .4zM103.5 109.1c.1-.1-.1-.1-.1-.1s0 .2.1.1zM97.6 113.6v-.3c-.2.1 0 .1 0 .3zM96.8 115.5l.2.1v-.3l-.2.2zM95.4 113.8h.1l-.2.1.1-.1zM85.5 109.8l-.3.3c.1 0 .4-.2.3-.3zM84.4 105.1c.2 0 .3-.2.1-.3a1 1 0 01-.1.3zM93.2 98.9l-.1.2.2-.2h-.1z"/></g><path class="cls-6" d="M66.2 49.3c-.2.5-5.9 37.1 7.5 50.6s36.6 5.5 42.2-8.4c4.9-11.9 5.8-34.5-3.6-48.3s-36.7-21.4-46.1 6.1z"/><path class="cls-8" d="M82.9 59.2l1.6 18.1.3 2.6c0 .2.1.4.3.4l3.9.8c.5.1.7-.7.2-.8l-3.9-.7.3.3-1.7-18.1-.2-2.6c0-.5-.9-.5-.8 0z"/><path class="cls-4" d="M98.5 70.7c0 1.3.6 2.3 1.5 2.4s1.6-1 1.7-2.2-.6-2.3-1.5-2.4-1.6 1-1.7 2.2zM76.3 71.5c-.1 1.2.6 2.3 1.4 2.3s1.7-.9 1.7-2.2-.6-2.3-1.5-2.3-1.6.9-1.6 2.2z"/><path class="cls-8" d="M125.2 74.5a7.9 7.9 0 00-2.6.8 4.4 4.4 0 00-1.7 1.6 5.2 5.2 0 00-.5 2.8 3.3 3.3 0 00.9 2.3 2.9 2.9 0 002 .5 3 3 0 001.7-1 2.3 2.3 0 00.6-2.2 2.1 2.1 0 00-2-1.4A2.9 2.9 0 00121 79a.6.6 0 000 .6.6.6 0 00.6 0 2.1 2.1 0 011.8-.9 1.8 1.8 0 011.4.6 1.6 1.6 0 01-.3 1.5 2.6 2.6 0 01-1.3.8 1.5 1.5 0 01-1.3-.2c-.2-.1-.3-.4-.5-.6a4.3 4.3 0 01-.2-1.1 3.7 3.7 0 01.4-2.3 3.3 3.3 0 011.3-1.3 4.4 4.4 0 011.6-.6h.3s.3-.1.1 0h.3a.4.4 0 000-.8zM60.1 77.1h.5l1.4.4a3.8 3.8 0 011.6 5.3 1.2 1.2 0 01-1.2.5 2.4 2.4 0 01-1.4-.5 1.8 1.8 0 01-.6-1.5.7.7 0 01.3-.6 1.6 1.6 0 01.9-.3 2.2 2.2 0 012 .8c.2.2.5.2.6 0s.1-.4 0-.6-3.3-1.6-4.4-.2.4 3.1 1.7 3.6a2.7 2.7 0 002-.1 2.7 2.7 0 001.3-1.8 4.9 4.9 0 00-1.7-4.9 5.7 5.7 0 00-3-1c-.5-.1-.5.8 0 .8z"/><path class="cls-10" d="M69.7 84.1c0 2.2 2.2 4 5 4s4.9-1.8 4.9-4-2.2-4-4.9-4-5 1.8-5 4zM102.8 81.7c0 2.2 2.2 4 4.9 4s5-1.8 5-4-2.2-4-5-4-4.9 1.8-4.9 4z"/><ellipse class="cls-8" cx="92.2" cy="96.6" rx="1.2" ry=".6"/><path class="cls-4" d="M104.8 60.1c-.2 1.2-2.3.6-5 .1s-4.9-.8-4.6-1.9 2.5-1.7 5.2-1.1 4.7 1.8 4.4 2.9zM79.9 59.4c.3 1.1-1.9 1.4-4.6 1.9s-4.8 1.1-5.1 0 1.8-2.5 4.5-3 5 0 5.2 1.1z"/><path d="M131.7 135.1l-.4.3c-17 11.6-55.7 13-71.8-.2-22.3 7.7-27.6 16.6-29.5 46.8h131.4c-1.9-30.2-7.3-39.1-29.7-46.9z" fill="#253245"/><path d="M135.4 167.4c-31.2 16.8-71.1 8.4-103.5-2.7A142.6 142.6 0 0030 182h131.4c-.8-13.2-2.3-22.4-5.6-29.1a104.8 104.8 0 01-20.4 14.5z" fill="#131f2d"/><path class="cls-13" d="M126.3 182v-48.6a16.2 16.2 0 0112.5 4.5V182zM64.9 182v-48.6a16.2 16.2 0 00-12.5 4.5V182z"/><path class="cls-8" d="M98.5 84.8c-2.9 5.4-11.2 6.8-15.2 2.1a7.6 7.6 0 01-1.3-2c-.2-.4-1-.2-.8.3a8.7 8.7 0 004.9 4.7 11 11 0 0011.3-2.3 20.3 20.3 0 001.8-2.3c.2-.5-.5-.9-.7-.5z"/><path class="cls-4" d="M106.2 32.8S95.9 49.7 91.5 49.7s-1.3-9-1.3-9-6.8 15.7-27.1 17.4c0 0 .9-29.3 28.3-27.3z"/><path class="cls-4" d="M101.7 32.8s9.6 23 15.9 22.3c2.7-.2 3.3-2.9 3.2-5.8a17.3 17.3 0 00-18.3-16.6z"/><path class="cls-14" d="M57.1 73.1a13.1 13.1 0 1010.7-12.9 13.3 13.3 0 00-10.7 12.9.8.8 0 101.6 0 11.5 11.5 0 0120.4-7.3 11.5 11.5 0 01-11 18.6 11.7 11.7 0 01-9.4-11.3.8.8 0 00-1.6 0zM90.2 73.1a13.1 13.1 0 1010.7-12.9 13.3 13.3 0 00-10.7 12.9.8.8 0 101.6 0 11.5 11.5 0 0120.4-7.3 11.5 11.5 0 01-11 18.6 11.7 11.7 0 01-9.4-11.3.8.8 0 00-1.6 0z"/><path class="cls-14" d="M83.1 73.7l.2-.2h.2c.1-.1-.1 0 0 0a.1.1 0 01.1-.1 6.5 6.5 0 011.6-.9 5.3 5.3 0 015.2 1.3c.8.7 2-.5 1.2-1.2a6.7 6.7 0 00-6.6-1.8 6.9 6.9 0 00-3 1.7.8.8 0 001.1 1.2z"/></g></svg>