<svg xmlns="http://www.w3.org/2000/svg" viewBox="0 0 175.7 204.5"><defs><clipPath id="clip-path"><circle class="cls-1" cx="87.8" cy="87.8" r="87.8"/></clipPath><clipPath id="clip-path-2"><path class="cls-1" d="M116.7 139.3c-26-8.1-18.9-34.9-18.9-34.9l-12-1.5v-.2H84v.2l-12 1.5s7.1 26.8-18.9 34.9-31.9 16.2-33.9 48.3h131.4c-2-32.1-7.9-40.2-33.9-48.3z"/></clipPath><clipPath id="clip-path-3"><path class="cls-1" d="M76 90.2a6.5 6.5 0 004.1-1.1c1.8-1.2 4.7-2.5 7.3-1.4 4.4 1.8 4.5 11.9-7 12.6s-10-7.4-8.5-9.3 2.8-.9 4.1-.8z"/></clipPath><clipPath id="clip-path-4"><path class="cls-1" d="M116.8 139.4c-29.2 25-57.8 13.5-60.1-1.4a30.1 30.1 0 01-3.6 1.3c-26 8.1-31.9 16.2-33.9 48.3h131.4c-2-32-7.9-40.2-33.8-48.2z"/></clipPath><style>.cls-1{fill:none}.cls-5{fill:#ffcaa6}.cls-7{fill:#eaa16e}.cls-8{fill:#edad80}.cls-9{fill:#010c39}.cls-13{fill:#f4826c}.cls-14{fill:#e8ae46}.cls-18{fill:#d83b05}</style></defs><circle cx="87.8" cy="87.8" r="87.8" fill="#ee5271"/><g clip-path="url(#clip-path)"><path d="M49.2 74.3c0 22.8 12.3 41.5 33.5 41.5S119 97.4 119 74.6s-15.2-41.2-36.3-41.2-33.5 18.2-33.5 40.9z" fill="#253245"/><path class="cls-5" d="M103.9 78.3c-3.4 5.3-3.8 13.8.5 16.6s11.9-1.4 15.2-6.7 2.6-11.8-1.8-14.6-10.6-.6-13.9 4.7zM61.5 79.6c3.7 5 4.8 13.5.7 16.5s-11.9-.5-15.7-5.5-3.3-11.6.8-14.7 10.5-1.4 14.2 3.7z"/><g clip-path="url(#clip-path-2)"><path class="cls-5" d="M116.7 139.3c-26-8.1-18.9-34.9-18.9-34.9l-12-1.5v-.2H84v.2l-12 1.5s7.1 26.8-18.9 34.9-31.9 16.2-33.9 48.3h131.4c-2-32.1-7.9-40.2-33.9-48.3z"/><path class="cls-7" d="M97 110.7a29.8 29.8 0 01.8-6.3l-12-1.5v-.2H84v.2l-12 1.5a33.5 33.5 0 01.8 10.1c2.7 5.4 12.1 12.8 24.2-3.8z"/><path class="cls-8" d="M97.6 111.2h-.3l.2.3zM96.6 111.3a.8.8 0 00.5.7c-.2-.3-.1-.3-.3-.6s.2-.1.3 0 .2-.1 0-.3-.4.1-.3.4a.2.2 0 01-.2-.2zM88.9 118.2zM83.1 120.2a.1.1 0 00.1-.1c-.1 0-.1 0-.1.1zM82.1 119.8zM88.9 118.2zM96.4 113zM90.9 116.3zM92.4 114.8l.3.4a.4.4 0 01-.1-.3zM89.7 117.2h-.1a.1.1 0 00.1 0zM96.9 110.7h-.2.2zM80.4 119.2h.1c0-.1 0 0-.1 0zM73.6 105.9c-.3.1-.4-.2-.7-.1s.5.2.7.1zM96.3 113zM76.8 117.5zM79.3 119.4zM75.4 116.7c-.1-.1 0-.1-.1-.2a.1.1 0 01.1.2zM74.3 115.3v.1-.1zM96.3 102.9v.3c0-.2.5-.3 0-.3zM96.2 112.9zM73.5 118.2l-.2-.3zM83 101.8zM72.7 117.2v-.3h-.1z"/><path class="cls-8" d="M99.9 103.3c.2-.6-.4 0-.7.1-.6 0 .1-.3.1-.6s-1.1.4-1.3.3a.1.1 0 01.1-.1h-.9a.8.8 0 00-.8.1h-.1c.1.2 0 .4 0 .5s-.4.3-.4 0 .1-.1.2-.2h-.2c0-.2 0-.2.1-.2s.2 0 .2-.2l-.5.2h-.3c0-.4.4-.1.2-.5l.3.2c-.2-.6.2.1 0-.6s-.4.2-.8 0 0 .3-.1.5-.4-1-.9-.5-.2.7-.5.4l.2-.4c-.4-.1-.3.5-.7.2h.3c-.2-.4-.2.2-.4.1v-.3l-1.4.2c0-.1.1-.2 0-.3a2.6 2.6 0 01-1.7-.5l-.3.3s-.1-.2 0-.2 0 .2-.2.3-.1-.2 0-.3-1.2.4-1.5 0h.1c-.3-.2-.5.6-.7.2a5.9 5.9 0 00-1.3 0l.8.9a.3.3 0 01.1-.2l.2-.7-1.4-.3-.4-.2c0 .3-.4.2-.4.2v.3c-.3-.3-.2-.5-.6-.7l-1.6 1.4h.1l1.1-1.3a.5.5 0 01-.2.4v-.4l-.2.4-.2-.4H83l.2.3c-.2.2-.7-.2-.7-.3l-.6.3.2-.3c-.3.4-.1-.3-.4 0s0 .2 0 .3-.5-.1-.8 0v-.3c-.4 0-.9.3-1.4.3a.4.4 0 010 .6v-.4c-.1.3.2.1 0 .4s-.2-.4-.1-.5l-.2.2c0 .2-.4-.3-.5.1h-.1l-1.1.2c0 .3-.2.3-.3.6s-.7-.3-1-.2-.1.2-.2.4-.4-.2-.2-.4l-1.2.4.2.3c-.1 0-.3-.1-.3-.2-.3.3-.6.1-1.3 0s-1.5-.2-1.7.2l-.5.4h-.3c0-.1 0-.2-.2-.2h-.1a4.5 4.5 0 01.5 1.3 2.3 2.3 0 00.3 1.1.5.5 0 00-.2.6v.5c.1.3.3.7.1.9h.1c.3.1 0 .1-.1.2h.3c.4 1.1-.1 2.2-.2 3.3s1 .2.6.7h-.4a2.5 2.5 0 01.2 1.2v.9c0 .1.1.1.1.3l-.2-.2c-.1.1-.1.5-.1.7l.2.3h.2c.1.2-.2.1-.2.2s.2.3.3.5.2.1.1.2h-.1c.2 0 .2.5.4.2s.5.5.5.8.2.6.6.3.1.7.4.7 0 .3-.2.3.4.3.6.1.9.3.6 1l1.9.8c-.3.4-.6-.4-.9.1h.9a1.3 1.3 0 01.8.3c.1.1-.2.1-.3.2a1.9 1.9 0 01.8.3l.9.2h-.2c.1 0 .2.1.3-.1h-.1c-.1-.3.6-.5.6-.6s.5.3 0 1a.2.2 0 00.2-.2c.1 0 .1.1-.1.3s.4-.3.7-.3v.3c.2-.2.4-.4.7-.2a.1.1 0 00-.1.1h.7a.6.6 0 01.7-.1c-.2.4.1.1.2.5h.3v-.2c.2 0 .4-.2.6-.1v.2l.4-.2h-.2c.2-.2-.1-.5.2-.4s.3-.1.4.1c.1-.2.2-.3.4-.3s.1.5.1.6.6-.2.6-.6 0 .3.1.3v-.7c.1.1.2.1.2.3s-.2-.5.2-.4h-.1c.5 0 .7-.4 1.1-.4s-.2.2 0 .5.9-.9 1.4-1h-.1c-.2-.6.4.1.6-.3s0 .3 0 .3.6-.5.9-1v.2l.7-.3c0-.2.1-.2-.1-.4s.7-.1.9-.4.3-.6.8-.5-.1.2 0 .1l.3-.4c-.2-.2-.2-.1-.4-.2a.6.6 0 01.1-.4c-.1.3.3.3.4.4s0-.2-.1-.2-.3-.4.2-.5v.2c.1-.2.1-.4.2-.5s0 .2.2.4-.1-.7.2-.6v.3c.4.2.4.1.5 0h.2c-.3-.8.3-.5.2-1.1s.1.2.3.4h.4c-.1-.3.3-.1.2-.5s.1-.1.3.1-.2-.1-.2-.2.8-.3.8-1-.1-.7-.1-1.1a.3.3 0 01.3.3c.2-.1.3-.2.3-.4h.3c.1-.1-.2-.3 0-.4l.3.4c0-.2-.1-.5 0-.7s.1.3.2.4a.8.8 0 000-.8h-.1c0-.1.2.1.2.2s-.3.1-.4.1v.1c-.6-.3-.3.5-.5.7l-.3-.4.2.5a.4.4 0 01-.4-.3c-.3 0 0 .2-.2.2s-.1 0-.1-.1v.3c-.1-.1-.3-.2-.2-.3s0 .7-.4.6c-.2.5.2.3.3.8l-.8-.4.2.3a.1.1 0 01-.2 0c.1.3.1 0 .2.3s-.3.5-.7.2.3 0 .2.3-.1.3-.4.2 0-.2-.3-.3-.4.3-.4.4-.2.5-.3.8-.6.2-.9.3c.2.3 0 .5-.1.7a.6.6 0 01-.2-.5l-.2.2a.2.2 0 010 .3v-.3c-.2.2-.2.7-.6.7s.7.5.6.8a.5.5 0 01-.3-.4c0 .1 0 .2-.1.2v-.3c-.2 0 0 .2-.1.3l-.2-.2c0-.1.1 0 .1-.1h-.5c.1.1.2.2.1.3s-.2-.1-.4-.1-.2.1 0 .3-.2 0-.2-.1-.5.4-.2.6c-.2.5-.8.4-1.2.7-.2.2-.5.3-.6.6l-.2-.2c-.2.2-.2.3-.5.2s-.1-.1.1-.2-.3-.1-.5.3a.2.2 0 00-.4-.2l.3.2H86v-.4c-.6-.3-.7 1-1.3.4s.4.1.3.4-.6-.5-.6-.5-.2.6-.6.5a.6.6 0 01-.1.7c-.3-.1-.3-.5-.2-.7h.1c.1-.1.1-.1 0-.3v.2c-.1-.1-.4-.1-.3-.3s-.1.2 0 .3-.4-.1-.7-.2.1.2 0 .2-.2.3-.5.3.1-.4-.2-.3 0-.3.1-.4-.5-.3-.6-.4h-.1v.3c0-.1-.1-.1-.1-.2s0 .4-.2.6-.4.1-.4-.3.1-.3.4-.3h-.2c-.2-.4-.2.3-.5.2a.5.5 0 000-.4c.1.1-.1.4-.3.5s-.2 0-.3-.1h.1c-.1.2-.2.1-.4.1s.2 0 .1-.1-.2-.4-.5-.3.1-.4.1-.5-.1-.4-.5-.3 0 .2-.3.3h.5l-.4.2h.4l-.3.3c.1-.4-.4 0-.5-.3l.3-.5c-.1-.4-.6-.1-.9-.5v.2c-.2.1-.2-.2-.4-.2s.1-.2.2-.4-.3-.2-.6.1v-.4c-.2-.3-.8.2-1-.1s.3-.3.6-.3-.2-.1-.3 0-.4-.1-.3-.3-.3.1-.4 0H75c-.1 0-.3-.1-.4.1s-.6-.8-.3-1.4a1.2 1.2 0 01-.6-.6h.1c0-.2-.1-.1-.3-.1s-.3.1-.3-.1.3.1.3-.1-.1-.2.3-.4h.1c.2-.2-.3-.5-.2-.8h.1c-.4-.2-.5-.7-.6-1h.5c-.1-.2-.5 0-.6-.3s.3-.3.6-.3v.3c.4-.2 0-.4.1-.5h.1c0-.4-.5-.4-.4-.9h-.2c-.4-.2.3-.2-.1-.5h.5a1.7 1.7 0 01-.6-.8 4.6 4.6 0 01.7.7c0-.2 0-.6-.3-.6s.2.1.1.2-.5-.4-.5-.7.1-.9.7-1.2a1.2 1.2 0 01-.2-.8 4.3 4.3 0 01.1-.5v-.3h-.8v-.2h.7c.1-.1.3 0 .5.1h-.3l-.3-.2h.2l.3.2c-.1-.1 0 0-.2-.5s.1.2.1.3h.1l.2-.2a1.2 1.2 0 01.8-.1v.2c.1-.1.1-.4.3-.2s-.1.2 0 .2.2-.4.4-.3v.2c.6.2.8-.5 1.2-.7a.7.7 0 00.8.6c.6 0 1-.5 1.6-.8s1.3.1 1.9.3 0-.4.1-.4.3-.4.3 0c.1.4.4.3.6.3v-.6c.7.8 1.5-.5 1.9.2h.1l1.4-.9-.2-.4-.2-.2-1.3 1.1h.1v.3h1.4v.3c.1-.1.2-.1.2-.2v-.5c.1-.3.1-.5.2-.5l.2.4-1.4-1.2v.2l-.2.8 1.3.5a1.1 1.1 0 001.1 0 .2.2 0 01-.2.2c.3.1.9.5.9-.2s.5.1.7 0v.3c.2-.4.2-.5.6-.6s0 .3-.1.2.2-.3.5-.1v.2c.2.1.2 0 .4-.3s.4.2.4.5.2-.4.4-.3-.1.1-.1.2.6-.3.9 0v.2h-.5c-.1.3.2.4-.1.7s.7-.6.9-.4c.1.1.1 0 .2 0h.2c0 .2.3.2.4.2s.2-.2.1-.5h-.5c.1-.1.2-.3.3-.1s.2-.4.3-.4.4.7.4.9 1 0 1.3-.5.1.2.2.3-.2 0-.2.1.7 0 .8-.4-.2.4.2.4H95l.5.2h.3l.2-.2c.2-.2.7-.3.6.1v-.2c0 .1.2.1.3.2v.7a.4.4 0 00-.1.3l-.3.5c-.2.3.1.4.2.6h-.3l.3.3c.3.5-.9.7-.4 1.2h.2c0 .2.1.6-.1.6s.2 0 .1.1h-.2l.3.5c-.2.3-.7-.1-.8.4s.5.6.6.5.1-.2.3-.2v.2a1.4 1.4 0 001.4-.2l-.3-.3h.2v.3c.3-.2.1-.3-.1-.4h.3l-.4-.3c.2 0 .3.2.5 0s-.5.1-.6-.2.4 0 .2-.2h.3c-.2-.2 0-.4-.3-.5s0-.5.5-.4a.7.7 0 01-.4-.5c.5.4.1-.5.7-.3s-.1-.7-.4-1h.1l.4-.3c-.4-.1-.4-.6-.7-.8s.5.2.9 0-.2-.6-.5-.4l.6-.6c-.6.2 0-.3-.3-.3s.6-.5.5-.9.6 0 .6 0zm-8.3-.5zm-.6-.1h.3a.3.3 0 01-.1.2zm.9 2.3h.1c0-.1 0 0-.1 0zM92.1 104.6zM83.6 101.6zM92 117.2zM93.1 116.3z"/><path class="cls-8" d="M93.9 115.7c0-.1 0-.1-.1-.2zM83.8 121.3h-.1c.1.1.1.1.1 0zM73.5 118.2zM83.4 121.4zM97 112zM96 113.3zM95.8 113.7c0-.1.3-.1.3-.2.1 0-.4 0-.3.2zM93.6 114h.3c-.1-.1-.3-.1-.2-.3s.2 0-.1.3zM92.8 114.7c0-.2-.2-.1-.2-.2s0 .2.2.2zM86.8 119.1v-.2c-.2.1 0 .1 0 .2zM86 121l.2.1v-.2l-.2.1zM84.6 119.4l.1-.1-.2.2.1-.1zM74.7 115.4l-.3.2c.1 0 .5-.2.3-.2zM73.6 110.7c.2-.1.3-.3.1-.3s-.1.2-.1.3zM82.4 104.5l-.1.1.2-.1h-.1z"/></g><path class="cls-5" d="M55.4 54.8c-.1.6-5.9 37.1 7.5 50.6s36.6 5.6 42.3-8.3c4.8-12 5.8-34.6-3.7-48.3s-36.7-21.4-46.1 6z"/><path class="cls-7" d="M72.1 64.8l1.7 18.1.2 2.6c0 .2.1.4.3.4l3.9.8c.6.1.8-.7.3-.8l-4-.8.3.4-1.6-18.1-.3-2.6a.4.4 0 10-.8 0z"/><path class="cls-9" d="M87.7 76.3c0 1.3.7 2.3 1.5 2.3s1.7-.9 1.7-2.2-.6-2.3-1.5-2.3-1.6.9-1.7 2.2zM65.5 77a2.1 2.1 0 001.5 2.4c.9 0 1.6-1 1.7-2.2s-.6-2.3-1.5-2.4a2 2 0 00-1.7 2.2z"/><path class="cls-7" d="M114.4 80.1a5 5 0 00-2.6.8 4.1 4.1 0 00-1.6 1.6 4.3 4.3 0 00-.6 2.7 3.1 3.1 0 001 2.3 2.2 2.2 0 001.9.5 2.7 2.7 0 001.7-1 2.6 2.6 0 00.7-2.2 2.1 2.1 0 00-2.1-1.3 3 3 0 00-2.5 1 .4.4 0 000 .6.3.3 0 00.5 0 2.5 2.5 0 011.8-.8c.5 0 1.2.1 1.4.6s0 1.1-.3 1.5a2.2 2.2 0 01-1.3.8 1.3 1.3 0 01-1.3-.3 1.5 1.5 0 01-.4-.6 3.8 3.8 0 01-.3-1 4.9 4.9 0 01.5-2.4 3.7 3.7 0 011.2-1.3 4.4 4.4 0 011.6-.6h.7c.5 0 .5-.9 0-.8zM49.3 82.7h.6l1.3.5a3.7 3.7 0 012.1 3.1 3.4 3.4 0 01-.5 2.2 1.7 1.7 0 01-1.2.5 1.6 1.6 0 01-1.3-.6 1.7 1.7 0 01-.7-1.5c0-.2.2-.4.4-.6a1.4 1.4 0 01.9-.3 2.7 2.7 0 012 .9h.5a.4.4 0 000-.6c-.9-1.2-3.3-1.6-4.3-.2s.4 3.1 1.7 3.6a2.5 2.5 0 001.9-.1 2.9 2.9 0 001.3-1.8 4.7 4.7 0 00-1.7-4.9 6 6 0 00-3-1.1c-.5 0-.5.8 0 .9z"/><g clip-path="url(#clip-path-3)"><path d="M76 90.2a6.5 6.5 0 004.1-1.1c1.8-1.2 4.7-2.5 7.3-1.4 4.4 1.8 4.5 11.9-7 12.6s-10-7.4-8.5-9.3 2.8-.9 4.1-.8z" fill="#9e3a2d"/><path d="M70.7 88.5s-2.2 4.9 4.6 4.3c13.4-1.1 14.1-3.2 12.9-7.5z" fill="#fff"/><path class="cls-13" d="M72.2 99.7s2.2-4.2 8.4-4.8 8.7 2.4 8.7 2.4-5.1 7.2-17.1 2.4z"/></g><path class="cls-13" d="M59 89.6c0 2.2 2.2 4 4.9 4s4.9-1.8 4.9-4-2.2-4-4.9-4-4.9 1.8-4.9 4z"/><ellipse class="cls-13" cx="97" cy="87.3" rx="4.9" ry="4"/><path class="cls-7" d="M80.3 102.1c0 .4.5.6 1.2.6s1.2-.2 1.2-.6-.6-.5-1.2-.5-1.2.2-1.2.5z"/><path class="cls-14" d="M94.1 65.7c-.2 1.1-2.4.6-5.1 0s-4.8-.7-4.6-1.9 2.5-1.6 5.2-1.1 4.7 1.9 4.5 3zM69.2 65c.2 1.1-2 1.4-4.7 1.9s-4.8 1.1-5 0 1.7-2.5 4.4-3 5-.1 5.3 1.1z"/><path d="M116.8 139.4c-29.2 25-57.8 13.5-60.1-1.4a30.1 30.1 0 01-3.6 1.3c-26 8.1-31.9 16.2-33.9 48.3h131.4c-2-32-7.9-40.2-33.8-48.2z" fill="#ff6b2d"/><path d="M108.3 179.4c-29.5 3.7-61.1 4.1-86.8-11a138.5 138.5 0 00-2.3 19.2h131.4c-.7-10.9-1.8-19-4-25.3a75.6 75.6 0 01-38.3 17.1z" opacity=".58" fill="#d83b05"/><g clip-path="url(#clip-path-4)"><circle class="cls-18" cx="30.8" cy="178.2" r="15.4"/><circle class="cls-18" cx="139.1" cy="178.2" r="15.4"/><circle class="cls-18" cx="52" cy="141.8" r="15.4"/><circle class="cls-18" cx="118.7" cy="141.8" r="15.4"/><circle class="cls-18" cx="84.9" cy="189.1" r="15.4"/></g><circle class="cls-14" cx="72.5" cy="42.4" r="11.2"/><circle class="cls-14" cx="84.4" cy="40.3" r="5.3"/><circle class="cls-14" cx="59.5" cy="48.3" r="11.2"/><circle class="cls-14" cx="50.1" cy="63.2" r="11.2" transform="rotate(-45 50.063 63.163)"/><path class="cls-14" d="M86.2 37c.3.3 22.4 3.5 24 36 0 0-2.3 7.1-4.3 6.2s-4.2-33.8-19.7-38.9z"/></g></svg>