<svg xmlns="http://www.w3.org/2000/svg" viewBox="0 0 175.7 182.3"><defs><clipPath id="clip-path"><circle class="leader-2-1" cx="87.8" cy="87.8" r="87.8"/></clipPath><clipPath id="clip-path-2"><path class="leader-2-1" d="M54.9 135.5c25.3-7.9 18.4-33.9 18.4-33.9l11.6-1.4v-.2h1.8v.2l11.6 1.4s-6.9 26 18.4 33.9 30.9 15.7 32.9 46.8H22c2-31.1 7.7-39 32.9-46.8z"/></clipPath><clipPath id="clip-path-3"><path class="leader-2-1" d="M94.5 87.8a6.5 6.5 0 01-4.1-1c-1.7-1.2-4.5-2.5-7.1-1.4-4.2 1.8-4.3 11.5 6.8 12.3s9.7-7.2 8.4-9.1-2.8-.9-4-.8z"/></clipPath><style>.leader-2-1{fill:none}.leader-2-4{fill:#ee5271}.leader-2-6{fill:#eaa271}.leader-2-8{fill:#d6854d}.leader-2-9{fill:#db9464}.leader-2-10{fill:#010c39}.leader-2-13{fill:#fff}.leader-2-14{fill:#f4826c}.leader-2-16{fill:#e64054}.leader-2-18{fill:#87c4c4}</style></defs><circle cx="87.8" cy="87.8" r="87.8" fill="#473c72"/><circle class="leader-2-1" cx="87.8" cy="87.8" r="87.8"/><g clip-path="url(#clip-path)"><path class="leader-2-4" d="M79.8 34.2s9.4-15.4 31.2-3.5 35.3 74 18.4 90.2c0 0-18.6-9-46.9-2.3s-42.6 4.3-42.6 4.3 2.3-90.6 39.9-88.7z"/><path d="M79.9 57.2c-19 15.2-24.1 42.1-25.9 65.9a164.2 164.2 0 0028.5-4.5 88.3 88.3 0 0126.9-2.2c-.5-13.9.6-27.9-1.8-41.8-2.3-11.9-19.8-23.7-27.7-17.4z" fill="#ed4257"/><path class="leader-2-6" d="M67.4 76.2c3.2 5.2 3.7 13.5-.5 16.2S55.4 91 52.1 85.9s-2.4-11.5 1.8-14.1 10.2-.7 13.5 4.4zM108.5 77.5c-3.6 4.9-4.7 13.1-.6 16.1s11.5-.5 15.1-5.4 3.3-11.3-.7-14.2-10.2-1.4-13.8 3.5z"/><g clip-path="url(#clip-path-2)"><path class="leader-2-6" d="M54.9 135.5c25.3-7.9 18.4-33.9 18.4-33.9l11.6-1.4v-.2h1.8v.2l11.6 1.4s-6.9 26 18.4 33.9 30.9 15.7 32.9 46.8H22c2-31.1 7.7-39 32.9-46.8z"/><path class="leader-2-8" d="M74.1 107.8a38.1 38.1 0 00-.8-6.2l11.6-1.4v-.2h1.8v.2l11.6 1.4a35.9 35.9 0 00-.8 9.8c-2.5 5.2-11.7 12.5-23.4-3.6z"/><path class="leader-2-9" d="M74.7 107.3c-.1.1-.3.2-.2.3l.4-.2zM74.6 108.3a.9.9 0 00.7-.4l-.6.2c-.1-.1 0-.2.1-.3s-.1-.2-.3-.1 0 .5.3.5zM87.4 118.3h-.1a.1.1 0 00.1 0zM88.6 118.7zM81.4 115.8v.2c.2-.1.1-.1 0-.2zM76.1 108.8H76a.1.1 0 00.1.1zM79 114.4zM77.3 112.9l.4-.2h-.2zM80.1 115.4zM74 107.8v-.1h-.2l.2.1zM90.9 118.8h-.1c0 .1 0 0 .1 0zM99.4 102.8c-.4.4-.3-.4-.7.1s.4.3.7-.1zM76.1 108.9zM95.3 116.3zM91.9 117.8zM96.4 114.7c0-.1.1 0 .1-.1h-.1zM97.6 113.1zM75.3 102.7v-.3c0 .2-.1.3 0 .3zM76 108.9zM94.6 113l.2-.2zM87.4 101.5zM95.2 112.2z"/><path class="leader-2-9" d="M75.4 103.1l-.7-.5h-.1c0-.2.4.2.6.4s-.4-.4-.3-.4h.2c-.2-.3.1 0 .1-.4-.1-.2-.1-.4-.2-.5s.2-.3.2-.1v.2c.2.4-.1.2 0 .4l.3-.3h.3c.1.4-.4.2-.1.5h-.3c.3.5-.2 0 .1.6s.4-.3.8-.2-.1-.3 0-.5.5.8.9.3 0-.7.4-.5v.4c.4 0 .1-.6.6-.4s-.3.2-.2.2.1-.2.3-.2v.3l1.2-.5a.4.4 0 00.1.3 2.8 2.8 0 011.8.1v-.4c.1 0 .1.2.1.2s0-.2.1-.3.1.1.1.2 1-.7 1.4-.4H83c.4.1.3-.7.6-.4a5.7 5.7 0 011.3-.1h.7l.2-1v-.1l-1.1 1c.1.1.2.1.3.3s.3-.1.7-.1.2-.1.2-.3.4.4.9.5l-1.5-1.4h-.1l.2.2 1.1 1.3.3-.3v.3l.3-.3v.4h.2a.4.4 0 01-.1-.3c.3-.1.6.3.6.5l.6-.2c0 .1-.1.1-.2.2s0 .4.4.1 0-.2 0-.3a.6.6 0 00.8.2v.3a7.4 7.4 0 001.5 0c-.2-.1-.1-.5 0-.5v.4c.2-.3-.1-.2.1-.4s.1.4 0 .5h.2v.3c.1-.2.3.4.5 0h1.2c0-.3.2-.2.3-.4s.6.4 1 .4.1-.2.2-.4.4.3.2.5l1.1-.2c0-.1-.1-.2 0-.2s.2.1.1.2a.4.4 0 01.5 0c.2 0 .2.1.2.2s-.1.4.2.1l.5-.2-.5.3h.1c.2-.1.2 0 .1.1s-.1.1 0 .2-.4-.1-.4.4.1.7-.2.9h.2c.1.2-.2.2-.2.3s.2-.2.3-.1-.6 2.2-.8 3.4 1 .2.5.8l-.3-.2a2.7 2.7 0 01.2 1.3v.6a.4.4 0 00.1.3c0 .1 0 .2.1.2h-.2c-.3 0 0 .1.2.2H96c-.1 0 0 0 0 .1s.1.2-.1.1c0 .2-.3.4 0 .5s-.1.5-.4.5-.4.3 0 .6a.4.4 0 00-.6.4c-.1-.1-.2 0-.3-.2s-.2.4 0 .5-.2.8-.8.4a4.8 4.8 0 01-.9 1.4c-.3-.4.4-.3.1-.7l-.3.6c-.1.2-.2.4-.5.4s0-.2 0-.3l-.6.4a1 1 0 00-.5.4c-.1-.1 0-.1 0-.2s-.2 0-.1.2c.3.3-.1.8 0 1s-.5 0-.5-.9-.1.2 0 .3-.2-.1-.1-.3-.1.4-.4.5v-.3c-.1.2-.2.5-.4.4s-.1-.1 0-.1-.3.2-.5.3a.6.6 0 01-.6.1c.1-.5-.1-.1-.2-.5h-.2v.2c-.2 0-.4.3-.6.1h-.2l.2.2c-.2.2 0 .5-.3.4s-.2-.1-.3-.3c-.1.1-.3.2-.4.1s.1-.5.1-.6-.5.1-.7.4v-.3l-.2.2a.2.2 0 010-.3c-.3-.2 0 .5-.3.2h.1c-.3-.2-.7-.1-1-.3s.3 0 .3-.3-1.1 0-1.5-.3h.1c-.3.5-.2-.4-.5-.3s.2-.2.1-.2-.6-.1-1.1-.3h.1l-.5-.5c-.1.1-.2 0-.3.2a.5.5 0 00-.6-.6c-.3-.1-.6-.2-.6-.6s.2 0 .1-.1l-.4-.2a.6.6 0 00-.1.4c-.2.1-.3.1-.4 0s.2-.3.3-.5l-.2.2c.1-.5-.4.3-.4-.1h-.4c.2-.3.2 0 .4-.2s-.7.2-.6-.2h.3c.1-.4 0-.3 0-.5v-.3h-.1c-.7.4-.4-.2-1-.1s.3-.2.5-.4 0-.3.1-.3 0-.4-.5-.3-.1-.1.2-.2-.2.1-.3.2-.1-.8-.8-.8-.7 0-1.1-.2.4-.2.4-.2-.2-.3-.4-.4a.2.2 0 00.2-.2c-.1-.1-.3.1-.3-.1l.4-.2h-.6c.1-.2.2-.1.4-.2s-.5-.3-.8-.1.2-.2.3-.1.1.2 0 .3h-.1c-.5.5.4.4.5.6l-.4.2h.4c0 .1-.2.3-.3.2s.2.1.1.4h-.1c0 .4.6.2.4.5.4.2.3-.2.8-.2l-.5.7.3-.2c0 .1.1.2 0 .2s.1-.1.3-.2.5.4.2.8 0-.3.3-.2.2.1.2.5-.3-.1-.3.2.2.4.4.4.3.2.6.3.3.6.4.9c.3-.3.5 0 .7.1l-.4.2h.5l-.3.2c.2.2.7.1.8.5s.3-.8.7-.7l-.4.3c.1.2.2-.1.3 0s0 .2-.1.3H80c.1.2.2.3.1.5l.3-.2c.2.2-.1.3 0 .5s.2.1.4-.2a.4.4 0 01-.1.3c.2 0 .6.3.7 0 .5 0 .6.7 1.1.8.3 0 .6.2.8.1s.1.2 0 .3.3-.1.5.2 0 .2-.2.1.1.4.5.2.1.4.3.4v-.3h.3v.4c.4.6 1.1-.4 1.4.4s-.3-.2-.1-.5.4.6.5.6.4-.4.8-.2 0-.5.2-.6a.4.4 0 01.1.7h-.1s-.2 0-.1.2h.1c.1.1.5.2.4.4s.1-.3-.1-.3.6 0 .9.1-.1-.2 0-.2.2-.3.5-.3 0 .4.3.3.1.3 0 .4.7.1.9.1h.1l-.2-.2h.3c0-.2-.2-.4-.1-.7s.4-.2.5.1.2.3-.2.5h.3c.5.2.1-.4.4-.5s.3.3.3.2-.2-.3-.1-.5.3-.2.4-.2h-.2c0-.2.1-.2.3-.3s-.1.1 0 .2.5.1.7-.2.2.3.3.3.4.1.7-.3-.2-.1-.2-.4l-.4.4.2-.5-.4.3c.1-.2.1-.2-.1-.3s.3-.4.6-.3l.4.5c.5.1.4-.7.9-.8h-.2c-.1-.3.2-.2.3-.4s.2.2.4.2.3-.2 0-.6h.4c.4-.2-.1-.8.2-1s.4.3.3.6.2-.2.1-.3 0-.5.2-.4-.2-.3-.1-.4h.1c-.1-.1.1-.3-.2-.3s.6-.9 1.3-.9l.3-.8c.1 0 .1 0 .1.1s0-.3-.1-.4-.2-.3 0-.4.1.3.3.2 0-.7.4-1c.3-.2-.3-.5-.2-.8h.1a1.3 1.3 0 01-.6-.9h.4c0-.2-.4 0-.5-.3l.6-.3v.3c.4-.1 0-.3.1-.5h.1c0-.4-.4-.5-.4-.9H98c-.4-.3.2-.2-.1-.5h.5l-.5-.8c.3.1.5.5.6.7a.5.5 0 00-.2-.6c.1 0 .2.1.1.2a.7.7 0 01-.4-.8c.8.1.3-.8.9-.9a1.1 1.1 0 01.1-.8v-.4c.1-.1.1-.2.2-.5s0-.3-.7-.3 0-.2.1-.2l.5-.8c.3-.2.2.2.3.1s.4-.3.7-.8-.3 0-.1-.4l-.5.6c-.2-.4.4-.8.6-1.3a5 5 0 00-2.4.2.2.2 0 01.2-.2 3.8 3.8 0 00-1.5 0 .8.8 0 01-.8-.1h.1c-.1 0-.2.2-.4.1v-.2c-.1 0-.3.2-.5.1h.2c-.5-.3-.9.3-1.4.4a.7.7 0 00-.5-.8c-.6-.1-1.1.3-1.7.4s-1.2-.4-1.7-.7a.8.8 0 01-.2.4c-.1-.1-.4.3-.3-.2 0-.4-.3-.3-.6-.4v.6c-.4-.9-1.5.1-1.7-.7a.1.1 0 01-.1.1l1.1 1.3v-.1l-1-1.4-.3.2a.1.1 0 00-.1.1v-.3h-.6v-.2h-.1l-.2.3c-.1.2-.2.5-.3.5v-.5H85l-1.1-.3-.2 1.5v.2l1.1-1.3c-.3 0-.7-.1-1 .2s0-.2.1-.2-.9-.2-.7.4-.5 0-.7.2v-.3c-.2.5-.2.6-.5.7s-.1-.2 0-.2-.1.3-.4.2v-.2c-.3 0-.2.1-.3.4s-.5-.1-.6-.3-.1.4-.2.3a.1.1 0 010-.2c-.4-.1-.6.4-.9.2v-.2c.3 0 .5-.1.5 0s-.3-.3-.1-.7-.5.7-.8.6h-.4c0-.2-.3-.1-.4-.1s-.1.3.1.5h.4c-.1.1-.1.3-.3.1a4.3 4.3 0 01-.1.5c-.3-.4-.6-.5-.7-.8s-.9.2-1.1.8-.1-.1-.2-.2l.2-.2c-.2.2-.7.2-.7.6s.1-.4-.2-.3c-.4-.3-.6 0-1.1.3s-.6.5-1.5.2h-.8a8.8 8.8 0 01.5 1.5 1.9 1.9 0 010 1.3c-.1.3.2.3.4.4H73l.4.3c.3.3-.7.7-.1 1.2h.2c0 .2.2.5-.1.5s.2.1.1.1h-.1l.3.4c-.1.3-.7 0-.7.5s.5.5.6.4.1-.2.3-.2h.1c.5.1 1 .2 1.4-.3l-.4-.3h.3v.3c.2-.2 0-.3-.1-.4s.2 0 .2-.1l-.5-.3c.2 0 .4.1.5-.1s-.4.2-.6 0 .4-.2.2-.3h.3c-.2-.2-.1-.4-.4-.5s-.1-.5.4-.5l-.5-.4c.6.2 0-.5.6-.5s-.3-.7-.6-1a.1.1 0 00.1.1c0-.1 0-.2.1-.2h.1c-.4.1-.5 0-.8-.2l.9.2-.6-.2h.5l-.5-.3c.3.1.6.3.3.1l.3.2zm4.1-1.4zm.6-.1h-.3c0-.1 0-.2.1-.2s.1.1.2.2zm-1.4-2c.1 0 .1 0 .1.1h-.1zM78.6 100z"/><path class="leader-2-9" d="M86.8 101.6v-.1l-.1.1h.1zM79.7 113.1zM78.8 112.2v-.2c-.1.1-.1.2 0 .2zM78.2 111.4zM91.1 115.9c.1-.1 0-.1 0 0zM87 117.1l.2-.2c-.1 0-.2 0-.2.2zM94.6 113zM87.4 117zM75.4 108.1zM76.3 109.2zM76.6 109.5c-.1-.1 0-.3-.1-.4h-.1c.1 0 0 .5.2.4zM76.6 111.7l-.2-.3c0 .1-.1.3-.2.2s.1-.3.4.1zM77.2 112.6c-.2-.1-.1.1-.2.1s.2 0 .2-.1zM83.3 117.2v.2c.1 0 0-.1 0-.2zM85.2 116.3l-.1-.2-.1.3.2-.1zM85.5 118.5h-.1.2-.1zM97.6 113.6l-.3-.2c0 .1.3.4.3.2zM98.3 107.8c.2-.1.3-.2.1-.3zM88.5 99l.1-.1-.2.1h.1z"/></g><path class="leader-2-6" d="M114.4 53.5c.2.5 5.8 36-7.2 49.1s-35.6 5.4-41-8.1c-4.8-11.6-5.7-33.5 3.5-46.9s35.6-20.7 44.7 5.9z"/><path class="leader-2-8" d="M97.4 63.2l-1.6 17.5-.2 2.6.3-.4-3.8.7c-.6.1-.3.9.2.8l3.8-.7c.2-.1.3-.2.3-.4L98 65.7l.2-2.5c.1-.6-.7-.6-.8 0z"/><path class="leader-2-10" d="M83.1 74.3c0 1.3-.6 2.3-1.5 2.3s-1.6-.9-1.6-2.1.6-2.3 1.4-2.3 1.6.9 1.7 2.1zM104.6 75.1c.1 1.2-.5 2.2-1.4 2.2s-1.6-.9-1.6-2.1a2 2 0 011.4-2.3c.9 0 1.6.9 1.6 2.2z"/><path class="leader-2-8" d="M57.2 78.8h.2c.1.1-.1 0 0 0a.1.1 0 00.1.1h.2l1.3.4a3.4 3.4 0 012 3.1 3.1 3.1 0 01-.4 2.1 1.7 1.7 0 01-1.2.5 3.8 3.8 0 01-1.3-.6 2 2 0 01-.6-1.5 1.3 1.3 0 01.3-.5 1.6 1.6 0 01.9-.3 2.1 2.1 0 011.9.8c.2.2.5.2.6 0s.1-.4 0-.6-3.3-1.5-4.2-.2.4 3.1 1.6 3.5a2.1 2.1 0 001.9-.1 2.5 2.5 0 001.3-1.7 4.6 4.6 0 00-1.7-4.8 5.9 5.9 0 00-2.9-1 .4.4 0 000 .8zM120.3 79.7a5.3 5.3 0 00-2.4.8 3.3 3.3 0 00-1.6 1.5 4.3 4.3 0 00-.6 2.7 3.3 3.3 0 00.9 2.3 2.2 2.2 0 001.9.4 2.6 2.6 0 001.7-.9 2.5 2.5 0 00.6-2.2 2 2 0 00-2-1.3 3 3 0 00-2.5 1 .6.6 0 000 .6c.2.2.5.2.6 0a2.3 2.3 0 011.7-.8 1.8 1.8 0 011.4.6.8.8 0 010 .7 1.5 1.5 0 01-.3.7 2.6 2.6 0 01-1.3.8h-.6l-.6-.2c-.2-.1-.3-.4-.4-.6a1.9 1.9 0 01-.3-1 4.5 4.5 0 01.4-2.3 4 4 0 011.3-1.3l1.5-.6h.6a.4.4 0 100-.8z"/><g clip-path="url(#clip-path-3)"><path d="M94.5 87.8a6.5 6.5 0 01-4.1-1c-1.7-1.2-4.5-2.5-7.1-1.4-4.2 1.8-4.3 11.5 6.8 12.3s9.7-7.2 8.4-9.1-2.8-.9-4-.8z" fill="#9e3a2d"/><path class="leader-2-13" d="M99.6 86.2s2.2 4.7-4.5 4.2c-13-1.1-13.6-3.2-12.5-7.3z"/><path class="leader-2-14" d="M98.2 97S96 93 90 92.4s-8.5 2.3-8.5 2.3 5 7 16.7 2.3z"/></g><path class="leader-2-14" d="M111 87.3c0 2.1-2.2 3.8-4.8 3.8s-4.8-1.7-4.8-3.8 2.1-3.9 4.8-3.9 4.8 1.7 4.8 3.9zM78.9 85c0 2.1-2.1 3.8-4.8 3.8s-4.8-1.7-4.8-3.8 2.2-3.9 4.8-3.9 4.8 1.7 4.8 3.9z"/><path d="M90.3 99.4c0 .3-.5.6-1.1.6s-1.2-.3-1.2-.6.5-.5 1.2-.5 1.1.2 1.1.5z" fill="#eaa16e"/><path class="leader-2-16" d="M76.9 64.1c.2 1.1 2.3.5 4.9 0s4.7-.7 4.5-1.8-2.5-1.6-5.1-1.1-4.5 1.8-4.3 2.9zM101.1 63.3c-.2 1.1 1.9 1.4 4.5 1.9s4.7 1.1 4.9 0-1.7-2.4-4.3-2.9-4.9-.1-5.1 1z"/><path d="M116.7 135.5a27.9 27.9 0 01-13.3-8.3 22.2 22.2 0 01-4.2 2.5c-9.6 4.8-22 3-30.4-3.3-2.9 3.7-7.3 7-13.9 9.1-25.2 7.8-30.9 15.7-32.9 46.8h127.6c-2-31.1-7.7-39-32.9-46.8z" fill="#b5d7d9"/><path class="leader-2-18" d="M85.5 141.2a13.7 13.7 0 0018.3 7c9.5-3.9 3.8-13.4-.1-20.5-.1-.1-.1-.3-.2-.4h-.1a22.2 22.2 0 01-4.2 2.5c-9.6 4.8-22 3-30.4-3.3a18 18 0 01-3.9 3.9c-.5 1.3-1 2.5-1.4 3.7-3.2 9.2 5.4 18.5 14.6 15.3 3.1-1.2 5.9-3.6 7.4-8.2zM24.9 161.3c-1.5 5.6-2.3 12.4-2.9 21h127.6c-.7-10.9-1.9-18.9-4.2-25.1-11.3 8.8-25.4 14.9-37.8 18.8-26.9 8.5-60.5 6.5-82.7-14.7z"/><path class="leader-2-13" d="M103.4 127.2s-15.6 11.3-34.6-.8c0 0-11.1 11.9-1.2 17.9s18.2-10.1 18.2-10.1 3.7 15.7 15.6 10.8 2-17.8 2-17.8z"/><path class="leader-2-4" d="M75.9 39.2s5.6 11.3 27.2 14.8 20.8 11.8 20.8 11.8-11.3-50.1-48-26.6z"/><path class="leader-2-4" d="M78.1 37.9s4.2 22-15.4 31.3c0 0-7.9-19.3 15.4-31.3z"/></g></svg>