<svg xmlns="http://www.w3.org/2000/svg" viewBox="0 0 175.7 196.7"><defs><clipPath id="clip-path"><circle class="leader-3-1" cx="87.8" cy="87.8" r="87.8"/></clipPath><clipPath id="clip-path-2"><path class="leader-3-1" d="M55.7 142.3c26.2-8.2 19.1-35.3 19.1-35.3l12.1-1.5v-.2h1.9v.2l12.1 1.5s-7.2 27.1 19.1 35.3 32.2 16.4 34.3 48.8H21.4c2-32.4 8-40.6 34.3-48.8z"/></clipPath><clipPath id="clip-path-3"><path class="leader-3-1" d="M120 142.3a33.5 33.5 0 01-8.9-4.2c-7 9.1-31.7 16.6-47.4.5a31.2 31.2 0 01-8 3.7c-26.3 8.2-32.3 16.4-34.3 48.8h132.9c-2.1-32.4-8-40.6-34.3-48.8z"/></clipPath><style>.leader-3-1{fill:none}.leader-3-6{fill:#cc885a}.leader-3-8{fill:#ad683a}.leader-3-9{fill:#b77b53}.leader-3-10{fill:#010c39}.leader-3-11{fill:#f4826c}.leader-3-16{fill:#fff}</style></defs><circle cx="87.8" cy="87.8" r="87.8" fill="#ee5271"/><circle cx="87.8" cy="87.8" r="87.8" fill="#f7ec48"/><g clip-path="url(#clip-path)"><path d="M56.9 57.6L41.4 67.9a7 7 0 002.1 12.6c7.1 2 17.9 3.5 33.9 2.3L124 58.9s-42.6-19.4-67.1-1.3z" fill="#ba1c37"/><path class="leader-3-6" d="M68.7 80.6c3.3 5.3 3.8 14-.6 16.7s-12-1.3-15.4-6.7-2.5-11.9 1.9-14.7 10.7-.7 14.1 4.7zM111.5 81.9c-3.8 5.1-4.9 13.7-.7 16.7s12.1-.5 15.8-5.6 3.4-11.7-.7-14.8-10.7-1.4-14.4 3.7z"/><g clip-path="url(#clip-path-2)"><path class="leader-3-6" d="M55.7 142.3c26.2-8.2 19.1-35.3 19.1-35.3l12.1-1.5v-.2h1.9v.2l12.1 1.5s-7.2 27.1 19.1 35.3 32.2 16.4 34.3 48.8H21.4c2-32.4 8-40.6 34.3-48.8z"/><path class="leader-3-8" d="M75.6 113.4a30.2 30.2 0 00-.8-6.4l12.1-1.5v-.2h1.9v.2l12.1 1.5a35.8 35.8 0 00-.9 10.2c-2.6 5.5-12.2 13-24.4-3.8z"/><path class="leader-3-9" d="M76.2 113c-.1 0-.2.2-.1.2h.1zM76.1 114c.3-.1.6-.1.8-.4l-.7.2a.2.2 0 01.1-.3c-.1 0 0-.2-.2-.1s-.1.4.2.4-.1.1-.2.2zM83.3 121.8zM89.5 124.4zM90.7 124.8zM83.3 121.8v.2c.1-.1 0-.1 0-.2zM77.7 114.6zM79 118.7l.4-.2H79zM81.9 121.3zM76.9 110.7zM75.6 113.4h-.2.2zM93.1 124.9c-.1 0 0 0 0 0zM101.9 108.3c-.3.3-.3-.5-.7 0s.4.4.7 0zM77.7 114.6h.1a.1.1 0 00-.1 0zM97.7 122.3zM94.2 123.8zM98.8 120.6zM100.1 119zM76.8 108v-.2c0 .2-.1.3 0 .2zM77.6 114.7a.1.1 0 01.1-.1c-.1 0-.1 0-.1.1zM97.1 118.9l.2-.2c-.1.1-.2.1-.2.2zM89.5 106.9zM97.7 118.1z"/><path class="leader-3-9" d="M76.9 108.5l-.8-.5c0-.2.4.2.6.4l-.3-.4h.2c-.1-.1-.1-.1 0-.2s.1 0 .1-.2-.1-.4-.1-.6.1-.2.2 0-.1.1-.1.2h.1c.2.3-.1.1 0 .4s.4-.5.6-.4-.4.2-.1.5h-.4c.4.5-.1-.1.2.5s.4-.2.8-.1-.1-.3 0-.6.6.9.9.4.1-.8.4-.6v.5c.4 0 .1-.6.6-.4a.4.4 0 01-.3.2c.4.3.2-.3.4-.3v.4c.4-.1.8-.5 1.3-.6s-.1.3 0 .4a3.1 3.1 0 011.9 0l.2-.3a.1.1 0 010 .2c.3.1 0-.2.1-.4a.2.2 0 01.1.3c.4-.3 1.1-.7 1.5-.4.3.1.2-.7.6-.5h2l.2-1v-.2l-1.1 1 .3.3c.1-.3.3-.1.7-.1a.3.3 0 00.3-.3c.4.2.3.4.8.5l-1.6-1.4a.2.2 0 00.2.2l1.1 1.3c.1-.1.2-.3.3-.3v.4l.2-.4v.5h.2c-.1 0-.1-.2-.1-.3s.6.3.6.5l.7-.2-.2.2c.3-.3 0 .4.3.1a.3.3 0 01.1-.2c.1.2.5.2.7.2v.2H93c-.2-.1-.1-.5.1-.6v.4c.1-.2-.1-.2.1-.4s.1.4-.1.5h.3c0 .1-.1.2-.1.3s.4.4.6.1h1.2c0-.3.2-.2.4-.5a1.9 1.9 0 001 .5c.3-.1.1-.3.2-.4s.4.3.2.4h1.2a.4.4 0 01-.1-.3c.1 0 .2.2.2.3.3-.1.8.1.7.3s0 .3.3.1h-.1l.5-.2c.1 0 0 0-.1.1l-.3.2h.1c.2-.1.1 0 .1.1s-.1.1 0 .2-.1 1-.7 1.4h.2c.2.2-.1.2-.2.3h.3a10.5 10.5 0 01-.8 3.5c0 .5 1 .3.6.8h-.4a3 3 0 01.2 1.3v.7c0 .1.1.2.1.3s0 .2.1.2h-.2c-.1.1-.1 0-.1.1-.1 0 0 0 0 .1s.1.2-.1.2v-.4c0 .2-.3.4 0 .5s-.2.5-.4.6-.4.3-.1.6-.6.1-.5.4-.3 0-.4-.2-.1.4.1.5-.2.9-.9.5a3.6 3.6 0 01-1 1.4c-.2-.4.5-.4.2-.8s-.2.5-.4.7-.2.4-.5.4 0-.2 0-.3l-.6.4-.6.4v-.2c-.1.1-.2 0-.2.3h.1c.3.2-.1.7-.1.9s-.5 0-.5-.9v.4c-.1-.1-.1-.1-.1-.3s-.1.4-.4.4v-.3c-.1.3-.2.5-.4.5s-.1-.2 0-.2l-.5.4a.7.7 0 01-.6.1c.1-.5-.2-.2-.2-.6h-.3v.2c-.2 0-.4.4-.6.2l.2-.2h-.4l.2.2c-.2.1 0 .5-.3.3s-.2 0-.3-.3c-.2.1-.3.2-.5.1s.2-.4.1-.5-.5 0-.7.3.1-.3.1-.3v.2c-.1-.1-.1-.1-.1-.3s0 .5-.3.2h.1c-.3-.2-.8 0-1-.3s.3 0 .3-.3-1.1 0-1.5-.3c-.3.5-.2-.4-.5-.3s.2-.2.1-.2-.6-.1-1.1-.3h.1c-.1-.2-.4-.3-.5-.5s-.3 0-.3.2a.8.8 0 00-.7-.7c-.3-.1-.6-.2-.6-.6s.2 0 .1-.1l-.4-.2c-.2.2-.1.2-.1.4H81c.3 0 .3-.3.3-.5l-.2.2c.1-.5-.3.3-.4-.1h.1c-.1-.1-.4 0-.4-.2s.2 0 .3-.1-.7.1-.6-.2h.3a.7.7 0 000-.5v-.2c-.8.3-.5-.3-1.1-.2s.2-.2.5-.4 0-.3.1-.3-.1-.4-.5-.3-.1-.1.1-.3-.1.2-.2.3-.2-.9-.9-.9-.7 0-1.1-.2.4-.1.4-.1-.2-.4-.4-.5a.2.2 0 00.2-.2c-.1-.1-.3.1-.4-.1l.5-.2-.7-.2h.5a1.1 1.1 0 00-.8-.2v.2l.3-.2c.3 0 0 .3 0 .4h-.2c-.4.5.4.4.6.6l-.4.2h.4c0 .1-.2.3-.3.2s.2.1.1.4H77c0 .4.6.2.5.5h-.1c.4.3.3-.1.8-.1l-.4.7.3-.2a.3.3 0 01-.1.2c.3 0 .1-.1.3-.2s.6.4.2.8 0-.3.3-.2.3.1.3.5-.3-.1-.4.2.3.4.5.5.4.2.7.3.3.5.4.8h-.1c.3-.3.5 0 .7.1l-.4.2h.2a.2.2 0 01.3 0l-.2.2c.2.2.6.1.8.5s.3-.8.7-.7l-.4.3h-.1c.1.2.2-.1.3 0s0 .1-.1.3-.1-.2-.2-.1.2.3.1.4l.3-.2c.3.2-.1.3 0 .5s.2.1.4-.1 0 .2 0 .2.6.4.6 0c.6 0 .7.7 1.2.8.3 0 .6.2.9.1v.3c.2.1.3 0 .5.3s0 .1-.3 0 .2.4.6.2.1.4.3.4l-.2-.3a.5.5 0 01.4.2l-.2.3c.5.6 1.3-.4 1.5.4s-.3-.2 0-.5.4.7.5.7.4-.5.8-.3a.4.4 0 01.2-.6.4.4 0 01.1.7h-.1c0 .1-.2.1-.1.3v-.2c.1.2.5.2.4.4s.1-.2-.1-.3.6 0 1 .1-.2-.2-.1-.2.2-.2.6-.3-.1.5.3.3.1.4 0 .5.7 0 .9 0l-.2.2.3-.2-.2-.2h.3c0-.2-.2-.4 0-.7s.3-.2.5.1.1.4-.3.5h.3c.5.2.1-.5.5-.6a.3.3 0 00.3.3c-.2 0-.2-.3-.1-.5s.2-.2.4-.3H94c0-.2.1-.2.3-.3s-.2.1-.1.2.6.2.8-.2.2.3.3.3.5.1.7-.3-.2-.1-.1-.4l-.5.4.2-.5c-.2.1-.2.3-.4.3s.1-.2-.1-.3.3-.4.7-.3l.3.5c.5.1.4-.7 1-.8h-.2c-.1-.3.2-.3.3-.4l.4.2c-.1-.1.3-.3 0-.6h.4c.4-.2-.1-.7.3-1s.3.3.2.6.2-.2.1-.3 0-.5.3-.4-.2-.3-.1-.4h.1c-.1-.1 0-.3-.2-.4s.6-.9 1.3-.8l.3-.9a.1.1 0 01.1.1.3.3 0 000-.4c-.1-.1-.3-.3 0-.4s0 .3.2.2 0-.8.4-1h.1c.2-.3-.3-.5-.3-.9s.1.1.1 0a1.8 1.8 0 01-.6-.9h.5c-.1-.2-.5 0-.6-.3s.3-.3.6-.3v.3c.4-.1 0-.4.1-.5h.2c-.1-.4-.5-.4-.5-.8h-.1c-.4-.3.3-.2 0-.4h.4a7.3 7.3 0 01-.5-.9 5 5 0 01.7.8c0-.2 0-.5-.2-.6a.1.1 0 010 .2 1 1 0 01-.4-.8c.8.1.3-.8 1-1s-.1-.5 0-.8a2.4 2.4 0 00.3-.9c-.7.3 0-.3-.6-.3s0-.3 0-.3l.6-.7c.2-.3.1.1.3.1s.3-.4.6-.9-.3 0-.1-.4l-.5.6c-.2-.4.4-.8.6-1.3a5.1 5.1 0 00-2.4.2c0-.1 0-.3.2-.3H99c-.4 0-.7.1-.9-.1v-.2c-.1.1-.2.3-.3.1-.1 0-.3.2-.5.1l.2-.2c-.5-.3-.9.4-1.4.4s-.4-.7-.6-.8c-.6-.2-1.1.2-1.7.3s-1.3-.3-1.8-.7-.1.4-.2.4-.4.3-.4-.1h.1c-.1-.5-.4-.4-.6-.4v.5c-.5-.9-1.6.2-1.8-.6h-.2l1.1 1.2v-.2l-.9-1.4-.4.2c0 .1 0 .1-.1.1v-.3h-.7v-.2h-.1c0 .1-.1.2-.2.3s-.2.5-.3.5v-.5H87l-1.1-.3-.2 1.5c0 .1 0 .1-.1.2l1.1-1.2a.8.8 0 00-1 .2v-.3c-.2 0-.9-.2-.7.4s-.5.1-.8.3v-.3c-.1.4-.1.5-.4.6s-.1-.2 0-.1-.2.3-.5.2v.6c-.2.1-.2.2-.3.4s-.5 0-.6-.3-.1.4-.2.4a.1.1 0 010-.2c-.4-.2-.6.4-.9.1s0-.1-.1-.2h.6c0-.3-.3-.3-.1-.7s-.5.8-.8.7 0-.1-.1-.1h-.3c-.1-.2-.3-.1-.5 0s-.1.2.1.5h.5c-.1.2-.2.3-.4.2a4.3 4.3 0 01-.1.5c-.2-.4-.6-.6-.7-.8s-.9.2-1.1.8-.2-.2-.2-.2.1-.1.1-.2-.6.1-.6.5.1-.3-.3-.2v-.2a.4.4 0 00-.5 0l-.6.4a1.4 1.4 0 01-1.5.2c.1 0 .2 0 .2.1a4 4 0 00-1.1 0 15.4 15.4 0 01.5 1.7 1.7 1.7 0 01.1.7 1.1 1.1 0 01-.1.6c0 .3.2.3.4.4h-.3l.4.3c.4.4-.7.8-.1 1.2h.3c0 .2.2.6-.1.6s.3 0 .2.1h-.2l.3.4c-.1.3-.7 0-.7.5s.6.5.7.4.1-.2.2-.2v.2c.5 0 1.1.1 1.4-.4l-.3-.2.2-.2v.3c.2-.2 0-.2-.2-.3l.3-.2-.5-.3c.2 0 .4.1.5-.1s-.5.2-.6 0 .4-.2.2-.3a.1.1 0 01.2 0c-.1-.1-.1-.4-.3-.4s-.2-.6.3-.6-.4-.2-.4-.4-.1-.5.6-.5-.4-.7-.7-1a.1.1 0 01.1.1.4.4 0 01.1-.3h.1a1.1 1.1 0 01-.8-.1c.4-.1.5.1 1 .1s-.4-.1-.7-.2h.5l-.5-.3c.3.1.6.3.4.1zm4.4-1.5zm.5-.1h-.2v-.3zm-1.4-1.9zM88.8 106.9h.1-.1zM81.4 119zM80.5 118.1zM79.9 117.2z"/><path class="leader-3-9" d="M89.1 123.1h.1s-.1-.2-.1 0zM97 118.9h.1-.1zM89.4 123zM76.9 113.7zM77.9 115zM78.2 115.3c-.1-.1 0-.4-.1-.4H78c.2 0 0 .4.2.4zM78.3 117.5l-.2-.4c-.1.2-.1.3-.2.2s.1-.2.4.2zM78.9 118.4c-.2-.1-.1.1-.2.1s.2.1.2-.1zM85.3 123.2l-.2.2c.2 0 .1-.1.2-.2zM87.2 122.4l-.1-.2-.1.2h.2zM87.5 124.6h-.1.3-.2zM100.1 119.4h-.3s.3.2.3 0zM100.8 113.4c.2 0 .3-.2.2-.3zM90.7 104.4l.1-.1h-.2l.1.1z"/></g><path class="leader-3-6" d="M117.6 56.9c.2.5 6.1 37.5-7.5 51.2s-37 5.5-42.7-8.5c-5-12.1-5.9-34.9 3.7-48.9s37.1-21.6 46.5 6.2z"/><path class="leader-3-8" d="M99.9 66.9l-1.6 18.3-.2 2.7.3-.4-4 .8c-.6.1-.3.9.2.8l4-.8c.2 0 .3-.2.3-.4l1.6-18.3.3-2.7c0-.5-.8-.5-.9 0z"/><path class="leader-3-10" d="M85 78.6c0 1.3-.6 2.3-1.5 2.4s-1.7-1-1.7-2.3.6-2.3 1.5-2.3 1.6.9 1.7 2.2zM107.5 79.3c0 1.3-.6 2.4-1.5 2.4a2 2 0 01-1.7-2.2c-.1-1.3.6-2.4 1.5-2.4s1.6 1 1.7 2.2z"/><path class="leader-3-8" d="M58 83.2h.2c.1.1 0 0 0 .1h.4l1.4.5a3.7 3.7 0 012.1 3.1 3.3 3.3 0 01-.6 2.2 1.3 1.3 0 01-1.2.6 3.8 3.8 0 01-1.3-.6 2 2 0 01-.7-1.6.7.7 0 01.4-.5l.9-.4a2.5 2.5 0 012 .9c.2.2.4.1.6 0s.1-.4 0-.6-3.4-1.6-4.4-.2.4 3.1 1.7 3.6a2.3 2.3 0 002-.1 2.7 2.7 0 001.3-1.8 4.8 4.8 0 00-1.7-4.9 6.8 6.8 0 00-3.1-1.1.4.4 0 000 .8zM123.8 84.2a5 5 0 00-2.6.8 4.9 4.9 0 00-1.6 1.6 4.5 4.5 0 00-.6 2.8 3.3 3.3 0 001 2.3 2.2 2.2 0 001.9.5 3.2 3.2 0 001.8-1 2.5 2.5 0 00.6-2.2 2.3 2.3 0 00-2-1.4 2.9 2.9 0 00-2.6 1.1.4.4 0 000 .6.5.5 0 00.5 0 2.3 2.3 0 011.8-.9 1.6 1.6 0 011.4.6 1.4 1.4 0 01-.3 1.5 1.8 1.8 0 01-1.2.9 1.7 1.7 0 01-1.4-.3l-.4-.6a2 2 0 01-.3-1.1 5.2 5.2 0 01.5-2.4 3.4 3.4 0 011.2-1.2 5.6 5.6 0 011.6-.7h.7a.4.4 0 100-.8z"/><path class="leader-3-11" d="M114.1 92.1c0 2.2-2.3 4-5 4s-5-1.8-5-4 2.2-4.1 5-4.1 5 1.8 5 4.1zM80.6 89.7c0 2.2-2.2 4-5 4s-4.9-1.8-4.9-4 2.2-4.1 4.9-4.1 5 1.8 5 4.1z"/><path d="M95.4 99.9c0 .3-.5.5-1.2.5s-1.2-.2-1.2-.5.6-.6 1.2-.6 1.2.2 1.2.6z" fill="#eaa16e"/><path class="leader-3-10" d="M78.6 67.9c.2 1.1 2.4.5 5.1 0s4.9-.8 4.7-1.9-2.6-1.7-5.3-1.1-4.8 1.8-4.5 3zM103.8 67.1c-.3 1.2 2 1.4 4.7 2s4.8 1.1 5.1-.1-1.8-2.5-4.5-3-5.1 0-5.3 1.1z"/><g clip-path="url(#clip-path-3)"><path d="M120 142.3a33.5 33.5 0 01-8.9-4.2c-7 9.1-31.7 16.6-47.4.5a31.2 31.2 0 01-8 3.7c-26.3 8.2-32.3 16.4-34.3 48.8h132.9c-2.1-32.4-8-40.6-34.3-48.8z" fill="#cc5050"/><path d="M135.2 169.7a59 59 0 01-26.4 11.5c-29.9 7.1-58.3 1.4-84.4-12-1.6 5.8-2.4 12.9-3 21.9h132.9c-1-15.3-2.8-25.3-7.3-32.3a136 136 0 01-11.8 10.9z" fill="#a82f2f"/><path class="leader-3-16" d="M19.1 144.5s46.7 24.5 136.1 0l2.5 2.9s-84.6 27-139.7 0zM19.1 163.1s46.7 24.5 136.1 0l2.5 2.9S73.1 193 18 166zM19.1 181.8s46.7 24.5 136.1 0l2.5 2.9s-84.6 26.9-139.7 0z"/></g><path class="leader-3-8" d="M85 92.1c3.1 5.8 12.2 7.3 16.6 2.2a8.3 8.3 0 001.5-2.3c.2-.5-.6-.8-.8-.3a7.9 7.9 0 01-4.5 4.3 10.1 10.1 0 01-10.6-2.4 5.9 5.9 0 01-1.5-2 .4.4 0 00-.7.5z"/><path class="leader-3-10" d="M71.1 50.7s8.7 4.1 1.5 11.3c0 0 5.1 12.8-8.8 13.9 0 0-4.7-2.5-9.2 0 0 0-7.9-8.8 2.5-14.5 0 0-2.3-6.9 4.6-9.8s9.4-.9 9.4-.9zM116.2 53.2s-2.8 8.5.7 12.9c0 0-5.2 13.2.8 11.3a10.3 10.3 0 015.5-.2 10.1 10.1 0 013.6 1.8s9-4.8.5-13.2c0 0 5.9-14.6-11.1-12.6z"/><path d="M128.2 59.3c0 .8-39.3-7.7-71.3-1.7 0 0-.3-19.7 17.1-30s36.3-4.8 47.4 9.9a32.5 32.5 0 016.8 21.8z" fill="#e64054"/><path d="M125.3 43.5a33.3 33.3 0 00-3.9-6.3C110.2 22.6 89.8 18.3 74 27.8a32.6 32.6 0 00-12.9 14c19.8-30.9 58.3-8.7 64.2 1.7z" fill="#ffc7d3"/><path class="leader-3-10" d="M90 45.6s2-12.6 13.5-10.4 12.6-1.5 12.6-1.5a9 9 0 01-1.3 9.5c-1.8 2.2-5.6 3.1-9.9 2 0 0-7.8 7.8-14.9.4z"/></g></svg>