<svg xmlns="http://www.w3.org/2000/svg" viewBox="0 0 175.7 200.8"><defs><clipPath id="clip-path"><circle class="leader-1-1" cx="87.8" cy="87.8" r="87.8"/></clipPath><clipPath id="clip-path-2"><path class="leader-1-1" d="M48.8 146.3c29.4-9.2 21.4-39.5 21.4-39.5l13.5-1.6v-.3h2.1v.3l13.6 1.6s-8 30.3 21.3 39.5 36.1 18.3 38.4 54.5H10.5c2.3-36.2 8.9-45.4 38.3-54.5z"/></clipPath><style>.leader-1-1{fill:none}.leader-1-2{fill:#ee5271}.leader-1-4{fill:#343466}.leader-1-5{fill:#cc885a}.leader-1-7{fill:#ad683a}.leader-1-8{fill:#b77b53}.leader-1-10{fill:#533e8d}.leader-1-11{fill:#fff}.leader-1-12{fill:#72c9cc}</style></defs><circle class="leader-1-2" cx="87.8" cy="87.8" r="87.8"/><g clip-path="url(#clip-path)"><path class="leader-1-4" d="M78.9 112.2s-27.6-1.1-30.8-29.3 5.8-54.4 31.8-57.7 34.9-17.3 33.7-2.6c0 0 5.2-5.5 6.5-2.8s.4 7.7-6 10.9c0 0 12.8 3.7 12.1 30-.8 31-1.9 57.6-47.3 51.5z"/><path class="leader-1-5" d="M63.3 77.3c3.8 6 4.4 15.6-.6 18.7s-13.4-1.5-17.2-7.5-2.8-13.4 2.1-16.5 11.9-.7 15.7 5.3zM111.2 78.7c-4.2 5.7-5.4 15.3-.7 18.8s13.5-.6 17.7-6.3 3.8-13.1-.9-16.6-11.9-1.6-16.1 4.1z"/><g clip-path="url(#clip-path-2)"><path class="leader-1-5" d="M48.8 146.3c29.4-9.2 21.4-39.5 21.4-39.5l13.5-1.6v-.3h2.1v.3l13.6 1.6s-8 30.3 21.3 39.5 36.1 18.3 38.4 54.5H10.5c2.3-36.2 8.9-45.4 38.3-54.5z"/><path class="leader-1-7" d="M71.1 114a32.6 32.6 0 00-.9-7.2l13.5-1.6v-.3h2.1v.3l13.6 1.6a42.7 42.7 0 00-1 11.5c-2.9 6-13.6 14.4-27.3-4.3z"/><path class="leader-1-8" d="M71.7 113.6c-.1 0-.2.1-.1.2h.1zM71.7 114.6a1.3 1.3 0 00.8-.3h-.7c-.1-.1-.1-.2.1-.3s-.1-.2-.3-.1 0 .4.3.5zM79.7 123.3zM86.7 126.2zM88 126.6zM79.7 123.3v.2c.2-.1.1-.1 0-.2zM73.4 115.3h-.2c.1 0 .1 0 .1.1zM76.9 121.6zM75 119.9l.4-.3h-.3a.3.3 0 00-.1.3zM72.7 116.6zM78.3 122.8a.1.1 0 00-.1.1c0-.1 0-.1.1-.1zM72.4 111zM71.1 114h-.2.2zM100.3 108.4c-.3.3-.2-.6-.6-.1s.4.5.6.1zM73.4 115.4zM95.7 123.8zM91.8 125.6zM97 121.9a.1.1 0 00.1-.1c0 .1 0 .1-.1.1zM98.4 120.1zM72.4 107.8c-.1 0-.1-.1-.2-.2a.1.1 0 010 .2c.1.1 0 .1.2 0zM73.2 115.4zM95.2 120.2zM96 119.3z"/><path class="leader-1-8" d="M72.3 108.3l-.8-.5c0-.2.4.2.7.4s-.4-.4-.3-.4a.1.1 0 00.1.1c-.1-.1 0-.1 0-.2s.2 0 .2-.2a1.3 1.3 0 00-.1-.6c.2 0 .3-.3.3 0v.2h.2c.1.3-.2.1-.2.4s.6-.5.8-.4-.5.2-.1.5h-.4c.3.5-.2-.1.1.5s.5-.2 1-.2-.1-.3 0-.5.6.9 1 .3.1-.7.4-.5v.4c.4 0 .2-.6.7-.4s-.4.2-.3.3.2-.3.4-.3v.3l1.5-.6c-.1.2-.1.3 0 .4a3.7 3.7 0 012.1 0l.2-.3a.1.1 0 010 .2c.3 0 0-.2.1-.4s.2.2.2.3 1.1-.8 1.6-.5c.3.1.3-.7.6-.4l1.5-.2h.8v-.9a.4.4 0 01.1-.3l-1.2 1 .4.3c.1-.3.3-.1.8-.1s.2-.1.2-.3.4.4 1 .5l-1.6-1.4v.2l1.2 1.2.3-.2v.3l.4-.3v.4h.2a.2.2 0 01-.2-.2.6.6 0 01.7.5l.8-.2c0 .1-.2.1-.3.2s0 .4.4.1.1-.2.1-.3.5.3.8.3v.2h1.7c-.2-.1-.1-.5.1-.6v.4c.1-.2-.2-.1.1-.4s.1.4-.1.5h.5c0 .2 0 .2-.1.3s.4.4.7.1h1.3c.1-.3.2-.2.4-.4s.7.4 1.2.4.1-.2.2-.4.5.3.2.5h1.3c0-.1-.1-.2 0-.3s.2.2.2.3h.5l.5.3c.1.2-.1.4.3.1h-.1l.5-.2H98l-.3.2c.3-.1.2 0 .1.1s-.1.1.1.2l-.4.2a.7.7 0 00-.1.5c0 .5 0 .9-.3 1.1h.2c.2.2-.1.2-.2.3s.2-.1.3 0-.5 2.5-.8 3.9 1 .3.6.8h-.4c.4.9 0 2 .4 2.8H97c-.1.2-.1.1-.1.2-.1 0 0 0 0 .2s0 .2-.1.2-.1-.1-.1-.2-.2.5.1.5-.3.6-.6.7-.4.3 0 .7-.7.1-.7.4-.2.1-.3-.1-.2.4 0 .5-.3.9-.9.5l-.3.5-.3.4-.6.7c-.2-.4.5-.4.2-.8a2.5 2.5 0 00-.4.7 1 1 0 01-.6.5c-.1 0 0-.2 0-.3l-.7.4-.6.4c-.1 0-.2 0-.1.2.3.2-.1.8-.1.9s-.5.1-.5-.8-.1.2 0 .3-.2-.1-.1-.3-.2.4-.5.5v-.3c-.1.2-.2.5-.5.4-.2 0-.4.2-.6.4a.7.7 0 01-.6.1c.1-.5-.2-.2-.3-.6h-.2v.2c-.3 0-.5.4-.7.2l.2-.2h-.2c-.3.2-.1.6-.4.4s-.2 0-.3-.3c-.2.1-.3.2-.5.1v-.5c-.2.3-.6 0-.8.3v-.3l-.2.2a.2.2 0 010-.3c-.4-.2-.1.5-.4.2h.1c-.4-.3-.8-.1-1.2-.4s.4.1.4-.3-1.3 0-1.7-.3h.1c-.4.4-.3-.5-.7-.4l.2-.2a6.8 6.8 0 00-1.3-.4h.2c-.2-.3-.5-.4-.6-.6s-.3 0-.3.2a.9.9 0 00-.8-.8c-.4-.1-.7-.2-.7-.7h.1l-.5-.3c-.1.2 0 .2-.1.4a.3.3 0 01-.4 0c.3 0 .2-.3.3-.5l-.2.2c.1-.6-.4.3-.5-.2h-.4c.2-.3.2 0 .4-.2s-.7.1-.7-.2h.4c.1-.4 0-.4-.1-.5v-.4c-.8.4-.5-.3-1.2-.2s.3-.2.5-.4 0-.3.1-.3-.1-.4-.5-.3-.1-.2.1-.3-.1.1-.2.2-.3-.9-1-1-.8 0-1.2-.2a.3.3 0 01.4-.2c0-.3-.2-.4-.4-.5l.2-.2c-.1-.2-.4.1-.4-.2h.4l-.7-.2c.2-.2.3-.1.5-.1a.8.8 0 00-.8-.3v.2c-.1-.1.2-.2.3-.2s.1.3 0 .4h-.2c-.4.5.5.4.7.7l-.5.2h.7a.3.3 0 01-.4.2c0 .4.3.1.2.4h.2c-.1.1-.2.3-.3.1s.7.3.5.6c.4.4.3-.1.8-.1l-.4.7h.3s.1.1-.1.2.1-.1.4-.2.6.4.2.9 0-.4.3-.3.3.2.3.6-.3-.2-.3.2.2.4.4.5.5.2.8.4.3.6.5.9h-.1c.4-.2.6.1.8.2l-.4.2h.5l-.2.2c.2.2.7.1.8.6s.3-.8.7-.7l-.3.3h-.1c0 .2.2-.1.3 0s0 .2-.2.3 0-.2-.1-.1a.8.8 0 01.2.5c0-.1.1-.3.2-.2s0 .3.1.5.2.1.4-.1 0 .1 0 .2.6.4.6 0h.1c.6 0 .7.8 1.3.9.3 0 .6.2.9.1a.3.3 0 010 .4c.3 0 .3-.1.6.2s0 .2-.3.1.2.4.7.2.1.4.3.4l-.2-.3.5.2-.2.3c.5.6 1.3-.3 1.6.5s-.3-.2-.1-.5.5.6.6.7.5-.5.9-.3 0-.5.3-.6.3.6.1.7h-.1c-.1.1-.2.1-.1.2.2.2.6.2.5.4s.1-.2-.1-.3.6 0 1 .1-.1-.2 0-.2.2-.2.6-.3 0 .5.4.3.1.3 0 .4.7.1.9.1h.2l-.2-.2c.1 0 .2 0 .2.1s-.1-.4 0-.7.5-.2.6.1.1.3-.3.5h.3c.1 0 0 .1 0 .1s.1-.4.6-.6.2.4.3.3-.2-.3-.1-.5.3-.2.4-.2h-.2c0-.3.2-.3.3-.4s-.1.2 0 .2.6.1.8-.2.2.3.4.3.5 0 .7-.3-.2-.1-.1-.5l-.5.5.2-.6-.4.4c.1-.3.1-.2-.1-.4s.4-.4.7-.3l.4.5c.5.1.5-.7 1-.9h-.2c-.1-.2.3-.2.4-.4s.2.2.4.2.3-.3.1-.6h.4c.4-.2-.1-.8.3-1.1s.3.3.2.6.3-.2.2-.3 0-.5.3-.5-.2-.3-.1-.4h.1c-.1-.1 0-.3-.2-.3s.7-1.1 1.4-1.1a3.6 3.6 0 01.4-.9s.1 0 0 .1.1-.3 0-.4-.2-.3.1-.5 0 .3.2.2 0-.8.4-1c.3-.2-.3-.5-.2-.9h.1c-.4-.2-.5-.7-.6-1.1s.2.2.4.1-.4.1-.5-.2.3-.4.6-.4v.3c.4-.1 0-.4.1-.5h.1c0-.5-.4-.5-.4-1h-.1c-.4-.3.2-.2-.1-.5h.5a4.6 4.6 0 01-.5-1l.7.9c0-.2 0-.6-.2-.7s.1.1 0 .2a1 1 0 01-.4-.9c.8.2.3-.9 1-1s.3-1.2.3-1.9h-.3c0-.1 0-.2-.3-.2s0-.3.1-.4l.5-.7c.3-.3.1.2.3.1s.4-.3.7-.9-.3-.1-.1-.5l-.5.7c-.2-.5.4-.9.6-1.5-.6 0-1.9-.3-2.6.2s-.1-.3.1-.3h-1.5c-.3.1-.7.2-.9 0v-.2c-.2 0-.3.3-.4.1s.1-.2 0-.2-.3.3-.5.2l.2-.2c-.6-.3-1 .3-1.6.4s-.4-.7-.6-.8a4.8 4.8 0 00-2 .4c-.3-.6-1.4-.4-2-.8s-.1.4-.2.4-.5.3-.4-.2h.2c-.1-.5-.4-.4-.7-.5v.6c-.6-.9-1.8.1-2.1-.7a.1.1 0 01-.1.1l1.1 1.3c0-.1-.1-.2-.1-.3l-.9-1.5-.4.4h-.1v-.3h-.9v-.2h-.2l-.2.3c-.1.2-.2.4-.4.4v-.5h-.1l-1.2-.3-.2 1.5v.3l1.1-1.3c-.4 0-.9-.1-1.2.2s0-.2.1-.2-1.1-.2-.9.4-.6 0-.8.3v-.3c-.2.4-.2.5-.5.6s-.1-.2 0-.1-.2.3-.5.1v-.2c-.3.1-.3.2-.4.4a.4.4 0 01-.6-.3.4.4 0 01-.3.4.1.1 0 010-.2c-.5-.2-.6.4-1 .1h.6c-.1-.2-.4-.3-.2-.7s-.5.8-.9.7h-.4c-.1-.3-.4-.1-.5-.1s-.2.3 0 .5h.6c-.1.1-.2.3-.4.1s-.1.4-.2.5-.6-.5-.7-.8-1.1.2-1.3.9-.2-.2-.2-.3h.2c-.3.1-.8.1-.8.5s.1-.4-.3-.2v-.2c-.4-.2-.8.1-1.1.3a1.6 1.6 0 01-1.7.3c.1 0 .2 0 .2.1h-1.1c.4 1.2.9 2.5.6 3.2s.2.3.4.5H70l.4.3c.3.4-.7.8-.1 1.4h.2c0 .2.2.6-.1.6l.3.5c-.1.4-.7-.1-.7.5s.6.6.7.5a.2.2 0 01.2-.2v.2c.6 0 1.1.1 1.4-.4l-.3-.3.2-.2v.3c.2-.2 0-.3-.2-.4h.3l-.5-.3c.2-.1.4.1.5-.1s-.5.1-.6-.1.4-.2.2-.3h.2c-.1-.1-.1-.4-.3-.5s-.2-.6.3-.6l-.5-.4c.7.2 0-.6.6-.6s-.3-.8-.7-1.1h.2a.5.5 0 01.2-.4 2 2 0 01-.9-.2c.4-.1.6.1 1 0h-.7c.2-.1.1-.1.5 0s-.1-.1-.5-.3.6.3.4.1zm5.2-1.6zm.6 0h-.3v-.2zm-1.6-2zM76.4 105.1zM79.6 123.2zM85.9 106.6v-.1.1zM77.6 120.3z"/><path class="leader-1-8" d="M76.5 119.3v-.3a.4.4 0 010 .3zM75.8 118.3c0 .1 0 .1-.1.1h.1zM91 123.7a.1.1 0 01.1-.1zM86.2 124.9a.1.1 0 01.1-.1c0-.1-.1-.1-.1.1zM95.2 120.3v-.1.1zM86.6 124.8h-.3c.1 0 .2.1.3 0zM72.7 114.5zM72.5 114.4zM73.6 115.8zM73.9 116.1c-.1-.1 0-.3-.1-.4h-.1c.2 0 0 .5.2.4zM74.1 118.5l-.2-.4c0 .2-.1.3-.2.2s.1-.2.4.2zM74.8 119.5c-.1-.1-.1.1-.1.1s.2.1.1-.1zM82 124.8l-.2.3c.2 0 .1-.1.2-.3zM84 124.1v-.2l-.2.2h.2zM84.4 126.3h-.1.3-.2zM98.4 120.6H98s.3.3.4 0zM99.2 114c.2-.1.3-.2.1-.3zM87.9 104l.2-.1-.3.1h.1z"/></g><path class="leader-1-5" d="M118.1 50.8c.2.6 6.7 41.9-8.4 57.2s-41.4 6.2-47.8-9.4C56.4 85 55.3 59.5 66 43.9s41.5-24.2 52.1 6.9z"/><path class="leader-1-7" d="M98.4 62l-1.9 20.5-.2 3 .3-.4-4.5.8c-.5.1-.3.9.2.8l4.5-.9a.3.3 0 00.3-.3L98.9 65l.3-3a.4.4 0 00-.8 0z"/><path class="leader-1-4" d="M81.6 75c0 1.5-.7 2.7-1.7 2.7a2.3 2.3 0 01-1.9-2.5c-.1-1.4.7-2.6 1.7-2.6s1.8 1 1.9 2.4zM106.7 75.9c.1 1.4-.7 2.6-1.6 2.6s-1.9-1-2-2.5.7-2.6 1.7-2.6 1.9 1.1 1.9 2.5z"/><path class="leader-1-7" d="M51.5 80.2h.6l1.5.5a4.2 4.2 0 012.4 3.7 3.7 3.7 0 01-.6 2.5 1.7 1.7 0 01-1.4.6 2.3 2.3 0 01-1.5-.7 2.3 2.3 0 01-.8-1.7 1.5 1.5 0 011.5-1.1 2.9 2.9 0 012.3 1c.3.4.9-.2.6-.6s-3.7-1.8-4.9-.2.5 3.4 1.9 3.9a2.4 2.4 0 002.2-.1 3.2 3.2 0 001.4-2 5.1 5.1 0 00-1.9-5.4 5.8 5.8 0 00-3.3-1.2c-.6-.1-.6.8 0 .8zM125 81.4a5.4 5.4 0 00-2.8.8 6.6 6.6 0 00-1.9 1.8 5.7 5.7 0 00-.6 3.1 3.1 3.1 0 001.1 2.6 2.3 2.3 0 002.1.5 3.1 3.1 0 001.9-1.1 2.4 2.4 0 00.7-2.4 2.2 2.2 0 00-2.2-1.5 3.3 3.3 0 00-2.9 1.2c-.3.4.3 1 .6.6a2.3 2.3 0 012-1 2.2 2.2 0 011.7.7 2 2 0 01-.4 1.8 2.9 2.9 0 01-1.5.9 1.7 1.7 0 01-1.5-.3 3 3 0 01-.8-1.9 4.2 4.2 0 01.5-2.7 4.3 4.3 0 011.5-1.5l1.7-.7h.8c.6-.1.6-.9 0-.8z"/><ellipse class="leader-1-2" cx="108.5" cy="90.1" rx="5.6" ry="4.5"/><path class="leader-1-2" d="M77.5 89.4c0 2.5-2.5 4.5-5.6 4.5s-5.6-2-5.6-4.5 2.5-4.5 5.6-4.5 5.6 2 5.6 4.5z"/><path class="leader-1-4" d="M74.4 63.1c.3 1.2 2.7.6 5.7 0s5.5-.9 5.3-2.1-2.9-1.9-5.9-1.3-5.3 2.1-5.1 3.4zM102.6 62.2c-.3 1.3 2.2 1.6 5.2 2.2s5.5 1.2 5.7 0-2-2.8-5-3.4-5.7-.1-5.9 1.2z"/><path class="leader-1-7" d="M80 91.9c3.4 6.6 13.6 8.2 18.5 2.5a7.8 7.8 0 001.7-2.6c.2-.5-.6-.7-.8-.2a9.2 9.2 0 01-5.1 4.8 11.2 11.2 0 01-11.9-2.7 7.2 7.2 0 01-1.7-2.2c-.3-.5-1 0-.7.4z"/><path d="M120.7 146.3a32.8 32.8 0 01-14.8-9c-17.2 12-32.7 9.8-39.9-3-3.3 4.9-8.7 9.3-17.2 12-29.4 9.1-36 18.3-38.3 54.5h148.6c-2.3-36.2-9-45.4-38.4-54.5z" fill="#7857a2"/><path class="leader-1-10" d="M105.6 192.6c-31.9 3.4-59.9-12.5-86.8-28.2-5.1 7.9-7.2 19-8.3 36.4h148.6c-1-16-2.9-26.7-7.2-34.4-2.3 1.8-31.5 23.4-46.3 26.2z"/><path class="leader-1-4" d="M54.8 68.2s1.5 12.6 5.3 11.6 14.3-35.4 14.3-35.4 24.2 8.9 41-3.3c0 0-14.3-24-44.2-6.3 0 0-12.5 10-16.4 33.4z"/><path class="leader-1-11" d="M60.6 79a14.7 14.7 0 0026.1 9.4 15.1 15.1 0 001.3-17A14.8 14.8 0 0060.6 79a.8.8 0 101.6 0 13.1 13.1 0 1124.3 6.8 13.1 13.1 0 01-13.7 6.1A13.3 13.3 0 0162.2 79a.8.8 0 00-1.6 0zM98 79a14.8 14.8 0 0026.2 9.4 15.1 15.1 0 001.2-17A14.8 14.8 0 0098 79a.8.8 0 101.6 0 13.1 13.1 0 1110.6 12.9A13.3 13.3 0 0199.6 79a.8.8 0 00-1.6 0z"/><path class="leader-1-11" d="M89.8 79.6l.2-.2h.2c.2-.2 0 0 0-.1s.2 0 .2-.1l1.8-1a6 6 0 016 1.5c.8.7 2-.5 1.2-1.1a7.4 7.4 0 00-10.7 0c-.8.7.4 1.9 1.1 1.1z"/><path class="leader-1-10" d="M94 197.8l-1.6-50.1 4.6-1.3 13.9 12.5s1.8-2.7-2.1-8a22.2 22.2 0 00-9.3-7c-.3-.1-12.3 2.6-12.3 2.6l1.5 52.4z"/><path class="leader-1-12" d="M105.9 137.3s-23.6 18.4-39.9-3c0 0-9.6 10.9-10.3 22l17-11.7s10.8 6.3 24.4 0l14.1 11.7s1.2-13.7-5.3-19z"/><path class="leader-1-12" d="M83.2 145h6.9v55.76h-6.9z"/></g></svg>